<?xml version="1.0" encoding="UTF-8"?> <svg xmlns="http://www.w3.org/2000/svg" width="229" height="21.757" viewBox="0 0 229 21.757"><g id="Cards" transform="translate(120.862 -684.413)"><g id="Group_196" data-name="Group 196" transform="translate(-120.862 684.413)"><path id="Rectangle_229" data-name="Rectangle 229" d="M2.391,0H32.419a2.392,2.392,0,0,1,2.392,2.392V19.365a2.392,2.392,0,0,1-2.392,2.392H2.393A2.393,2.393,0,0,1,0,19.364V2.391A2.391,2.391,0,0,1,2.391,0Z" fill="#f9f9f9"></path><g id="Group_195" data-name="Group 195" transform="translate(6.985 7.498)"><g id="Group_194" data-name="Group 194"><path id="Path_54" data-name="Path 54" d="M-89.644,706.642h-1.7l1.063-6.532h1.7Z" transform="translate(98.678 -699.994)" fill="#0066b2"></path><path id="Path_55" data-name="Path 55" d="M-100.559,700.11l-1.621,4.492-.192-.967h0l-.572-2.937a.728.728,0,0,0-.806-.588h-2.68l-.032.111a6.356,6.356,0,0,1,1.779.747l1.477,5.675h1.772l2.706-6.532Z" transform="translate(106.463 -699.994)" fill="#0066b2"></path><path id="Path_56" data-name="Path 56" d="M-71.484,706.642h1.562l-1.362-6.532h-1.367a.781.781,0,0,0-.785.487l-2.536,6.045H-74.2l.355-.97h2.162Zm-1.871-2.311.893-2.445.5,2.445Z" transform="translate(90.763 -699.994)" fill="#0066b2"></path><path id="Path_57" data-name="Path 57" d="M-80.837,701.557l.243-1.4a4.917,4.917,0,0,0-1.53-.284c-.844,0-2.848.369-2.848,2.162,0,1.688,2.352,1.709,2.352,2.594s-2.11.728-2.806.169l-.253,1.466a4.762,4.762,0,0,0,1.92.369c1.16,0,2.911-.6,2.911-2.236,0-1.7-2.373-1.856-2.373-2.595S-81.565,701.156-80.837,701.557Z" transform="translate(95.761 -699.87)" fill="#0066b2"></path></g><path id="Path_58" data-name="Path 58" d="M-102.373,703.636l-.572-2.937a.728.728,0,0,0-.806-.588h-2.68l-.032.111a6.6,6.6,0,0,1,2.524,1.267A5.088,5.088,0,0,1-102.373,703.636Z" transform="translate(106.463 -699.994)" fill="#f9a533"></path></g></g><g id="Group_204" data-name="Group 204" transform="translate(-4.365 684.413)"><path id="Rectangle_230" data-name="Rectangle 230" d="M2.391,0H32.419a2.392,2.392,0,0,1,2.392,2.392V19.364a2.393,2.393,0,0,1-2.393,2.393H2.392A2.392,2.392,0,0,1,0,19.365V2.391A2.391,2.391,0,0,1,2.391,0Z" fill="#f9f9f9"></path><g id="Group_203" data-name="Group 203" transform="translate(6.984 4.643)"><g id="Group_199" data-name="Group 199"><g id="Group_198" data-name="Group 198"><path id="Path_59" data-name="Path 59" d="M146.159,700.219a6.236,6.236,0,1,1-6.236-6.236A6.236,6.236,0,0,1,146.159,700.219Z" transform="translate(-133.688 -693.983)" fill="#4173b6"></path><g id="Group_197" data-name="Group 197" transform="translate(8.511)"><path id="Path_60" data-name="Path 60" d="M157.33,693.983a6.214,6.214,0,0,0-4.186,1.614,6.319,6.319,0,0,0-.63.66h1.26a6.249,6.249,0,0,1,.475.66h-2.21a6.207,6.207,0,0,0-.36.661h2.929a6.239,6.239,0,0,1,.264.66h-3.458a6.245,6.245,0,0,0-.181.661h3.819a6.268,6.268,0,0,1-.18,3.3h-3.458a6.352,6.352,0,0,0,.264.661h2.929a6.287,6.287,0,0,1-.359.66h-2.21a6.2,6.2,0,0,0,.475.66h1.26a6.232,6.232,0,0,1-.63.661,6.236,6.236,0,1,0,4.186-10.858Z" transform="translate(-151.234 -693.983)" fill="#409dc9"></path></g></g><path id="Path_61" data-name="Path 61" d="M174.942,713.79a.2.2,0,1,1,.2.2A.2.2,0,0,1,174.942,713.79Zm.2.153a.153.153,0,1,0-.153-.153A.153.153,0,0,0,175.143,713.943Zm-.027-.065h-.041V713.7h.075a.08.08,0,0,1,.045.009.053.053,0,0,1,.022.044.049.049,0,0,1-.03.046l.032.078h-.046l-.027-.07h-.03Zm0-.1h.023a.05.05,0,0,0,.025,0,.023.023,0,0,0,0-.038.062.062,0,0,0-.027,0h-.022Z" transform="translate(-154.93 -704.078)" fill="#409dc9"></path></g><g id="Group_202" data-name="Group 202" transform="translate(2.757 4.456)"><path id="Path_62" data-name="Path 62" d="M170.629,709.494a.2.2,0,1,1,.2.2A.2.2,0,0,1,170.629,709.494Zm.2.153a.153.153,0,1,0-.153-.153A.153.153,0,0,0,170.83,709.648Zm-.028-.065h-.041v-.177h.074a.08.08,0,0,1,.045.009.053.053,0,0,1,.023.045.049.049,0,0,1-.031.046l.033.078h-.046l-.027-.07H170.8Zm0-.1h.023a.056.056,0,0,0,.025,0,.026.026,0,0,0,.01-.02.024.024,0,0,0-.01-.018.054.054,0,0,0-.026,0H170.8Z" transform="translate(-155.466 -706.322)" fill="#fff"></path><g id="Group_201" data-name="Group 201"><g id="Group_200" data-name="Group 200"><path id="Path_63" data-name="Path 63" d="M142.685,703.326c-.055.245-.084.383-.16.681a1.76,1.76,0,0,0-1.58,0,1.276,1.276,0,0,0-.575,1.242.762.762,0,0,0,.469.579,1.574,1.574,0,0,0,1.332-.136c-.066.3-.117.538-.175.754a2.731,2.731,0,0,1-1.659.021,1.374,1.374,0,0,1-.944-1.115,1.856,1.856,0,0,1,1.025-1.954A3.442,3.442,0,0,1,142.685,703.326Z" transform="translate(-139.372 -703.169)" fill="#fff"></path></g><path id="Path_64" data-name="Path 64" d="M160.518,706.865a1.309,1.309,0,0,1-1.084.473c-.624,0-1.02-.459-.8-1.492l.259-1.215h.951l-.258,1.215c-.088.413-.067.728.353.728.494,0,.643-.3.736-.728l.259-1.215h.951l-.427,1.953c-.049.229-.1.472-.122.712h-.893Z" transform="translate(-149.259 -703.922)" fill="#fff"></path><path id="Path_65" data-name="Path 65" d="M165.667,705.41c0,.338.222.569.727.742.389.136.45.176.45.294,0,.169-.174.24-.549.24a3.508,3.508,0,0,1-.858-.1s-.121.553-.134.616a7.046,7.046,0,0,0,1,.075c1.007,0,1.474-.281,1.474-.89,0-.363-.2-.577-.674-.741-.4-.132-.448-.163-.448-.289,0-.142.159-.216.469-.216.185,0,.447.015.69.041l.133-.619c-.247-.029-.624-.053-.842-.053C166.035,704.507,165.664,704.919,165.667,705.41Z" transform="translate(-152.724 -703.858)" fill="#fff"></path><path id="Path_66" data-name="Path 66" d="M146.434,704.631h.954l-.568,2.665h-.955Z" transform="translate(-142.716 -703.922)" fill="#fff"></path><path id="Path_67" data-name="Path 67" d="M156.044,704.59a1.085,1.085,0,0,0-1.091.424,1.887,1.887,0,0,0,.056-.412h-.873c-.126.825-.349,1.661-.524,2.485l-.046.18h.994a8.084,8.084,0,0,1,.414-1.606.642.642,0,0,1,.767-.326Z" transform="translate(-146.68 -703.893)" fill="#fff"></path><path id="Path_68" data-name="Path 68" d="M151.57,704.59a1.084,1.084,0,0,0-1.091.424,1.947,1.947,0,0,0,.056-.412h-.873c-.126.825-.349,1.661-.523,2.485l-.046.18h.994a8.019,8.019,0,0,1,.414-1.606.641.641,0,0,1,.767-.326Z" transform="translate(-144.377 -703.893)" fill="#fff"></path></g></g></g></g><g id="Group_226" data-name="Group 226" transform="translate(-43.197 684.413)"><path id="Rectangle_231" data-name="Rectangle 231" d="M2.391,0H32.419a2.392,2.392,0,0,1,2.392,2.392V19.365a2.392,2.392,0,0,1-2.392,2.392H2.392A2.392,2.392,0,0,1,0,19.364V2.391A2.391,2.391,0,0,1,2.391,0Z" fill="#f9f9f9"></path><g id="Group_225" data-name="Group 225" transform="translate(7.004 4.631)"><path id="Path_69" data-name="Path 69" d="M77.032,706.454l.323-.008.318-.025.312-.039.308-.055.3-.07.3-.084.289-.1.285-.113.277-.125.269-.138.262-.15.253-.164.246-.174.236-.185.228-.2.218-.207.2-.218.2-.228.187-.236.175-.244.162-.255.15-.263.139-.269.126-.277.111-.286.1-.289.084-.3.07-.3.055-.31.039-.312.025-.318.009-.322-.009-.32-.025-.316-.039-.31-.055-.308-.07-.3-.084-.3-.1-.29-.111-.283-.126-.275-.139-.269-.15-.261-.162-.255-.175-.244-.187-.236-.2-.226-.2-.217-.218-.206-.228-.2-.236-.185-.246-.175-.253-.162-.262-.15-.269-.14-.277-.125-.285-.111-.289-.1-.3-.084-.3-.07-.308-.056-.312-.039-.318-.024-.323-.008-.322.008-.318.024-.312.039-.308.056-.3.07-.3.084-.291.1-.283.111-.277.125-.269.14-.261.15-.254.162-.244.175-.236.185-.226.2-.216.206-.207.217-.2.226-.185.236-.174.244-.162.255-.15.261-.138.269-.123.275-.113.283-.1.29-.082.3-.07.3-.056.308-.039.31-.025.316-.008.32.008.322.025.318.039.312.056.31.07.3.082.3.1.289.113.286.123.277.138.269.15.263.162.255.174.244.185.236.2.228.207.218.216.207.226.2.236.185.244.174.254.164.261.15.269.138.277.125.283.113.291.1.3.084.3.07.308.055.312.039.318.025Z" transform="translate(-62.488 -693.958)" fill="#ec1c2e"></path><path id="Path_70" data-name="Path 70" d="M59.936,706.454l.322-.008.318-.025.312-.039.308-.055.3-.07.3-.084.291-.1.283-.113.277-.125.269-.138.261-.15.255-.164.244-.174.236-.185.226-.2.217-.207.206-.218.2-.228.185-.236.174-.244.162-.255.15-.263.137-.269.125-.277.111-.286.1-.289.082-.3.07-.3.055-.31.039-.312.025-.318.008-.322-.008-.32-.025-.316-.039-.31-.055-.308-.07-.3-.082-.3-.1-.29-.111-.283-.125-.275-.137-.269-.15-.261-.162-.255-.174-.244-.185-.236-.2-.226-.206-.217-.217-.206-.226-.2-.236-.185-.244-.175-.255-.162-.261-.15-.269-.14-.277-.125-.283-.111-.291-.1-.3-.084-.3-.07-.308-.056-.312-.039-.318-.024-.322-.008-.322.008-.318.024-.312.039-.308.056-.3.07-.3.084-.289.1-.285.111-.277.125-.269.14-.263.15-.252.162-.247.175-.236.185-.228.2-.215.206-.207.217-.2.226-.187.236-.175.244-.162.255-.15.261-.139.269-.125.275-.111.283-.1.29-.084.3-.07.3-.055.308-.039.31-.025.316-.008.32.008.322.025.318.039.312.055.31.07.3.084.3.1.289.111.286.125.277.139.269.15.263.162.255.175.244.187.236.2.228.207.218.215.207.228.2.236.185.247.174.252.164.263.15.269.138.277.125.285.113.289.1.3.084.3.07.308.055.312.039.318.025Z" transform="translate(-53.678 -693.958)" fill="#0084c4"></path><path id="Path_71" data-name="Path 71" d="M73.534,698.493H76.7v-.349H73.839Z" transform="translate(-63.902 -696.114)" fill="#ec1c2e"></path><path id="Path_72" data-name="Path 72" d="M72.509,700.019h3.665v-.347H72.731Z" transform="translate(-63.374 -696.9)" fill="#ec1c2e"></path><path id="Path_73" data-name="Path 73" d="M71.742,701.566h4.037v-.349H71.913Z" transform="translate(-62.98 -697.696)" fill="#ec1c2e"></path><path id="Path_74" data-name="Path 74" d="M71.244,703.092h4.279v-.347H71.351Z" transform="translate(-62.723 -698.482)" fill="#ec1c2e"></path><path id="Path_75" data-name="Path 75" d="M70.918,704.617h4.437v-.349H70.981Z" transform="translate(-62.555 -699.267)" fill="#ec1c2e"></path><path id="Path_76" data-name="Path 76" d="M70.817,707.576h4.47v-.349h-4.5Z" transform="translate(-62.488 -700.79)" fill="#ec1c2e"></path><path id="Path_77" data-name="Path 77" d="M71,709.189h4.363v-.349H70.939Z" transform="translate(-62.566 -701.621)" fill="#ec1c2e"></path><path id="Path_78" data-name="Path 78" d="M71.393,710.5h4.151v-.349H71.286Z" transform="translate(-62.744 -702.294)" fill="#ec1c2e"></path><path id="Path_79" data-name="Path 79" d="M71.979,712.088h3.835v-.349h-4Z" transform="translate(-63.015 -703.114)" fill="#ec1c2e"></path><path id="Path_80" data-name="Path 80" d="M72.828,713.7h3.389v-.349H72.594Z" transform="translate(-63.418 -703.944)" fill="#ec1c2e"></path><path id="Path_81" data-name="Path 81" d="M73.9,715.25h2.8V714.9H73.6Z" transform="translate(-63.934 -704.742)" fill="#ec1c2e"></path><g id="Group_206" data-name="Group 206" transform="translate(19.768 9.831)"><g id="Group_205" data-name="Group 205"><path id="Path_82" data-name="Path 82" d="M94.442,714.466l.019-.056.031-.051.039-.045.045-.037.051-.029.056-.019.06-.006.061.006.058.019.051.029.045.037.037.045.029.051.019.056h-.064l-.013-.039-.022-.043-.029-.037-.035-.029-.041-.022-.047-.014-.049,0-.049,0-.048.014-.041.022-.037.029-.029.037-.022.043-.012.039Z" transform="translate(-94.436 -714.224)" fill="#ec1c2e"></path><path id="Path_83" data-name="Path 83" d="M94.84,714.645v-.074h.117l.027,0,.022,0,.021.006.016.008.013.01.01.012.006.014,0,.019h-.054l0-.01,0-.008-.006-.008L95,714.612l-.01,0-.01,0-.011,0h-.076v.041Z" transform="translate(-94.641 -714.402)" fill="#ec1c2e"></path><path id="Path_84" data-name="Path 84" d="M94.434,714.777l0-.052v0H94.5l0,.01,0,.043Z" transform="translate(-94.432 -714.481)" fill="#ec1c2e"></path><path id="Path_85" data-name="Path 85" d="M94.84,714.777v-.053h.053v.043h.088l.012,0,.01,0,.006,0,.006-.008,0-.01v-.014h.054l0,.018,0,.017-.006.012-.006.006Z" transform="translate(-94.641 -714.481)" fill="#ec1c2e"></path><path id="Path_86" data-name="Path 86" d="M95.553,714.777l0-.043,0-.01h.064v0l.006.052Z" transform="translate(-95.005 -714.481)" fill="#ec1c2e"></path><path id="Path_87" data-name="Path 87" d="M94.432,714.833l0,.01.006.062.019.058.031.049.039.045.045.035.051.027.056.016.06.006.061-.006.058-.016.051-.027.045-.035.037-.045.029-.049.019-.058.006-.062v-.01h-.064v.01l0,.054-.015.049-.022.043-.029.037-.035.031-.041.023-.047.014-.049,0-.049,0-.048-.014-.041-.023-.037-.031-.029-.037-.022-.043L94.5,714.9l0-.054v-.01Z" transform="translate(-94.43 -714.538)" fill="#ec1c2e"></path><path id="Path_88" data-name="Path 88" d="M94.84,714.833v.127h.053v-.1h.054l.064.1h.054l-.076-.1.018,0,.019,0,.015-.006.012-.008,0,0Z" transform="translate(-94.641 -714.538)" fill="#ec1c2e"></path></g></g><path id="Path_89" data-name="Path 89" d="M78.246,704.955l-.041,0-.041,0-.037-.006-.037,0-.037-.007-.037-.006-.039-.006-.041-.006-.043,0-.046,0-.051,0-.056,0H77.68l-.068,0-.076,0-.082.006-.06.008-.055.012-.051.016-.045.019-.041.022-.037.025-.031.028-.024.029-.019.033-.012.035-.006.035v.037l.008.039.014.039.022.039.029.039.06.054.07.043.082.037.088.031.092.031.1.031.1.035.094.041.088.049.084.06.074.076.062.09.047.111.031.132.011.156-.011.185-.023.138-.037.123-.047.111-.06.1-.069.086-.076.074-.084.064-.09.055-.095.045-.1.037-.1.031-.1.022-.1.016-.1.01-.094.006-.093,0h-.128l-.115,0-.1,0-.1,0-.088,0-.078,0-.074-.006-.066-.009-.061-.008-.058-.01-.054-.01-.053-.015-.049-.014-.049-.014-.049-.019-.051-.018.127-.645.029.006.035.01.043.01.047.012.055.011.062.015.066.012.07.012.074.01.078.01.08.008.084.008.084,0,.086,0h.086l.088,0,.082-.014.068-.022.051-.033.041-.037.031-.043.023-.045.019-.045.012-.045.006-.047,0-.041-.01-.039-.017-.033-.022-.033-.029-.029-.035-.027-.039-.025-.043-.022-.047-.023L77,706.167l-.054-.02-.053-.021-.057-.023-.058-.023-.059-.025-.058-.025L76.608,706l-.058-.031-.056-.033-.053-.035-.05-.039-.047-.045-.043-.047-.039-.054-.035-.057L76.2,705.6l-.024-.068-.017-.076-.01-.082,0-.09.007-.1.006-.06.008-.058.008-.055.012-.054.012-.052.014-.051.019-.047.019-.047.022-.044.023-.043.027-.039.029-.039.031-.037.033-.035.035-.033.039-.031.041-.029.043-.027.047-.025.05-.025.051-.021.055-.02.058-.016.061-.017.066-.014.068-.012.07-.01.074-.008.078-.006.082,0,.085,0h.2l.1,0,.088,0,.082,0,.072,0,.066,0,.059.006.051,0,.047.006.041.006.039,0,.032.006.029,0,.027,0,.024,0,.023,0Z" transform="translate(-65.055 -699.245)" fill="#fff"></path><g id="Group_208" data-name="Group 208" transform="translate(10.718 4.981)"><g id="Group_207" data-name="Group 207"><path id="Path_90" data-name="Path 90" d="M78.246,704.955h0l-.041,0-.041,0-.037-.006-.037,0-.037-.007-.037-.006-.039-.006-.041-.006-.043,0-.046,0-.051,0-.056,0H77.68l-.068,0-.076,0-.082.006h0l-.06.008-.055.012-.051.016-.045.019-.041.022-.037.025-.031.028-.024.029-.019.033-.012.035-.006.035v.037l.008.039.014.039.022.039.029.039h0l.06.054.07.043.082.037.088.031.092.031.1.031.1.035.094.041.088.049.084.06.074.076.062.09.047.111.031.132.011.156-.011.185h0l-.023.138-.037.123-.047.111-.06.1-.069.086-.076.074-.084.064-.09.055-.095.045-.1.037-.1.031-.1.022-.1.016-.1.01-.094.006-.093,0h-.128l-.115,0-.1,0-.1,0-.088,0-.078,0-.074-.006-.066-.009-.061-.008-.058-.01-.054-.01-.053-.015-.049-.014-.049-.014-.049-.019-.051-.018.127-.645h0l.029.006.035.01.043.01.047.012.055.011.062.015.066.012.07.012.074.01.078.01.08.008.084.008.084,0,.086,0h.086l.088,0h0l.082-.014.068-.022.051-.033.041-.037.031-.043.023-.045.019-.045.012-.045h0l.006-.047,0-.041-.01-.039-.017-.033-.022-.033-.029-.029-.035-.027-.039-.025-.043-.022-.047-.023L77,706.167l-.054-.02-.053-.021-.057-.023-.058-.023-.059-.025-.058-.025L76.608,706l-.058-.031-.056-.033-.053-.035-.05-.039-.047-.045-.043-.047-.039-.054-.035-.057L76.2,705.6l-.024-.068-.017-.076-.01-.082,0-.09.007-.1h0l.006-.06.008-.058.008-.055.012-.054.012-.052.014-.051.019-.047.019-.047.022-.044.023-.043.027-.039.029-.039.031-.037.033-.035.035-.033.039-.031.041-.029.043-.027.047-.025.05-.025.051-.021.055-.02.058-.016.061-.017.066-.014.068-.012.07-.01.074-.008.078-.006.082,0,.085,0h.2l.1,0,.088,0,.082,0,.072,0,.066,0,.059.006.051,0,.047.006.041.006.039,0,.032.006.029,0,.027,0,.024,0,.023,0-.148.665" transform="translate(-75.773 -704.227)" fill="none" stroke="#fff" stroke-width="0.215"></path></g></g><path id="Path_91" data-name="Path 91" d="M81.663,702.9h.825l-.127.719h.507l-.115.655-.519-.01-.273,1.636,0,.035v.031l0,.027.008.025.012.021.014.02.019.017.021.012.025.013.025.01.028.008.029,0,.033.006.033,0,.035,0h.1l.057,0,.053-.008.046-.01.035-.01.027-.01.016-.008.006,0-.084.56-.02.012-.023.01-.023.01-.023.01-.022.008-.025.008-.024.008-.029.009-.029.008-.031.006-.035.006-.037.006-.039.006-.041.006-.047.006-.049.006h-.222l-.117-.008-.1-.012-.092-.017-.08-.023-.068-.024-.057-.031-.047-.035-.039-.039-.031-.043-.023-.047-.014-.051-.008-.057,0-.06,0-.066.006-.068.01-.074Z" transform="translate(-67.796 -698.561)" fill="#fff"></path><g id="Group_210" data-name="Group 210" transform="translate(13.301 4.336)"><g id="Group_209" data-name="Group 209"><path id="Path_92" data-name="Path 92" d="M81.663,702.9h.825l-.127.719h.507l-.115.655-.519-.01-.273,1.636h0l0,.035v.031l0,.027.008.025.012.021.014.02.019.017.021.012.025.013.025.01.028.008.029,0,.033.006.033,0,.035,0h.1l.057,0,.053-.008.046-.01.035-.01.027-.01.016-.008.006,0-.084.56h0l-.02.012-.023.01-.023.01-.023.01-.022.008-.025.008-.024.008-.029.009-.029.008-.031.006-.035.006-.037.006-.039.006-.041.006-.047.006-.049.006h-.222l-.117-.008-.1-.012-.092-.017-.08-.023-.068-.024-.057-.031-.047-.035-.039-.039-.031-.043-.023-.047-.014-.051-.008-.057,0-.06,0-.066.006-.068.01-.074.548-3.211" transform="translate(-81.097 -702.897)" fill="none" stroke="#fff" stroke-width="0.215"></path></g></g><path id="Path_93" data-name="Path 93" d="M71,706.085l-.011.052v.051l0,.055L71,706.3l.016.056.025.055.029.053.035.051.039.049.045.047.047.041.051.039.055.033.058.027.062.02.061.014.074.01.074.01.076.008.076,0,.078,0h.076l.08,0,.078-.006.08-.012.082-.014.082-.021.082-.027.082-.031.086-.037.084-.045.086-.05-.127.729-.047.025-.047.022-.043.019-.045.016-.045.016-.045.012-.047.01-.052.01-.053.006-.058.006-.063.006-.068,0-.074,0H71.9l-.09,0h-.17l-.074,0-.072,0-.074-.008-.076-.01-.074-.013L71.2,707.4l-.074-.016-.072-.022-.072-.023-.07-.027-.07-.03-.067-.035-.066-.037-.061-.041-.062-.045-.057-.049-.056-.053-.054-.058-.047-.062-.045-.068-.041-.069-.037-.076-.033-.081-.029-.086-.022-.091-.019-.094-.012-.1-.008-.107v-.111l0-.119.01-.124.006-.043.006-.049.008-.049.01-.053.01-.056.014-.057.017-.06.016-.062.021-.064.022-.062.027-.064.029-.063.033-.064.035-.064.039-.063.041-.062.047-.059.049-.06.054-.058.06-.053.061-.053.068-.049.072-.045.078-.043.082-.037.088-.035.092-.031.1-.025.105-.021.111-.014.115-.008.123,0h.058l.057,0,.059,0,.06.006.059.008.062.012.06.014.06.017.059.018.06.023.057.024.055.029.054.033.053.035.049.041.05.043.045.047.043.051.039.057.035.06.033.065.028.07.025.076.018.08.017.086.01.09,0,.1v.1l-.006.109-.01.115-.019.121-.025.127-.033.18H70.763l.127-.571H72.17l.006-.078v-.072l0-.068-.012-.062-.016-.055-.021-.051-.027-.045-.031-.041-.035-.037-.039-.03-.041-.025-.043-.021-.047-.016-.049-.012-.051-.006-.053,0h-.058l-.053.008-.053.01-.049.017-.047.023-.045.027-.043.031-.039.035-.037.041-.033.043-.031.047-.029.051-.024.053-.021.058-.016.062-.015.064Z" transform="translate(-62.148 -699.256)" fill="#fff"></path><g id="Group_212" data-name="Group 212" transform="translate(7.979 4.991)"><g id="Group_211" data-name="Group 211"><path id="Path_94" data-name="Path 94" d="M71,706.085h0l-.011.052v.051l0,.055L71,706.3l.016.056.025.055.029.053.035.051.039.049.045.047.047.041.051.039.055.033.058.027.062.02.061.014h0l.074.01.074.01.076.008.076,0,.078,0h.076l.08,0,.078-.006.08-.012.082-.014.082-.021.082-.027.082-.031.086-.037.084-.045.086-.05-.127.729h0l-.047.025-.047.022-.043.019-.045.016-.045.016-.045.012-.047.01-.052.01-.053.006-.058.006-.063.006-.068,0-.074,0H71.9l-.09,0h-.17l-.074,0-.072,0-.074-.008-.076-.01-.074-.013L71.2,707.4l-.074-.016-.072-.022-.072-.023-.07-.027-.07-.03-.067-.035-.066-.037-.061-.041-.062-.045-.057-.049-.056-.053-.054-.058-.047-.062-.045-.068-.041-.069-.037-.076-.033-.081-.029-.086-.022-.091-.019-.094-.012-.1-.008-.107v-.111l0-.119.01-.124h0l.006-.043.006-.049.008-.049.01-.053.01-.056.014-.057.017-.06.016-.062.021-.064.022-.062.027-.064.029-.063.033-.064.035-.064.039-.063.041-.062.047-.059.049-.06.054-.058.06-.053.061-.053.068-.049.072-.045.078-.043.082-.037.088-.035.092-.031.1-.025.105-.021.111-.014.115-.008.123,0h.058l.057,0,.059,0,.06.006.059.008.062.012.06.014.06.017.059.018.06.023.057.024.055.029.054.033.053.035.049.041.05.043.045.047.043.051.039.057.035.06.033.065.028.07.025.076.018.08.017.086.01.09,0,.1v.1l-.006.109-.01.115-.019.121-.025.127-.033.18H70.763l.127-.571H72.17l.006-.078v-.072l0-.068-.012-.062-.016-.055-.021-.051-.027-.045-.031-.041-.035-.037-.039-.03-.041-.025-.043-.021-.047-.016-.049-.012-.051-.006-.053,0h-.058l-.053.008-.053.01-.049.017-.047.023-.045.027-.043.031-.039.035-.037.041-.033.043-.031.047-.029.051-.024.053-.021.058-.016.062-.015.064-.115.614" transform="translate(-70.127 -704.247)" fill="none" stroke="#fff" stroke-width="0.215"></path></g></g><path id="Path_95" data-name="Path 95" d="M66.728,706.821l-.117.655h-.741l.008-.062.008-.062.008-.055.008-.052.008-.043.006-.037.008-.025.008-.014-.039.045-.049.045-.055.044-.064.041-.068.039-.074.037-.078.033-.08.031-.084.027-.086.023-.086.016-.086.012-.086.006-.084,0-.082-.006-.08-.013-.1-.025-.092-.033-.084-.039-.074-.043-.065-.047-.056-.053-.049-.055-.041-.061-.035-.062-.029-.064-.023-.066-.019-.067-.012-.066-.009-.068,0-.066,0-.064.009-.115.018-.109.027-.105.039-.1.047-.092.053-.086.064-.08.068-.076.076-.068.08-.059.086-.055.09-.048.094-.041.1-.033.1-.024.1-.019h0l.015,0,.023,0,.031,0,.035,0,.041,0,.046-.006.049,0,.049,0,.05-.006.051,0,.049,0,.045,0,.043,0,.039,0h.138l.037,0h.035l.033,0h.066l.029,0h.027l.023,0h.02l.016,0h.023l.006-.02.014-.049.011-.058V705.3l0-.037-.006-.035-.01-.033-.014-.031-.016-.029-.02-.027-.02-.025-.025-.025-.027-.02-.027-.017-.031-.016-.03-.014-.033-.01-.035-.008-.035-.006-.035,0-.084,0-.088,0-.093,0-.094.006-.095.006-.094.008-.094.011-.092.01-.088.014-.084.012-.076.015-.072.016-.064.016-.054.016-.043.017-.03.018.211-.7.062-.029.066-.027.065-.023.07-.018.072-.015.074-.012.078-.01.08-.008.082,0,.084,0,.086,0h.279l.1,0,.1,0,.084.008.089.012.092.023.092.026.093.035.093.043.086.049.082.058.076.066.068.072.058.08.045.088.033.1.019.1,0,.111-.016.121Z" transform="translate(-59.02 -699.274)" fill="#fff"></path><g id="Group_214" data-name="Group 214" transform="translate(5.032 5.008)"><g id="Group_213" data-name="Group 213"><path id="Path_96" data-name="Path 96" d="M66.728,706.821l-.117.655h-.741l.008-.062.008-.062.008-.055.008-.052.008-.043.006-.037.008-.025.008-.014h0l-.039.045-.049.045-.055.044-.064.041-.068.039-.074.037-.078.033-.08.031-.084.027-.086.023-.086.016-.086.012-.086.006-.084,0-.082-.006-.08-.013h0l-.1-.025-.092-.033-.084-.039-.074-.043-.065-.047-.056-.053-.049-.055-.041-.061-.035-.062-.029-.064-.023-.066-.019-.067-.012-.066-.009-.068,0-.066,0-.064h0l.009-.115.018-.109.027-.105.039-.1.047-.092.053-.086.064-.08.068-.076.076-.068.08-.059.086-.055.09-.048.094-.041.1-.033.1-.024.1-.019h0l.015,0,.023,0,.031,0,.035,0,.041,0,.046-.006.049,0,.049,0,.05-.006.051,0,.049,0,.045,0,.043,0,.039,0h.138l.037,0h.035l.033,0h.066l.029,0h.027l.023,0h.02l.016,0h.023l.006-.02.014-.049.011-.058V705.3h0l0-.037-.006-.035-.01-.033-.014-.031-.016-.029-.02-.027-.02-.025-.025-.025-.027-.02-.027-.017-.031-.016-.03-.014-.033-.01-.035-.008-.035-.006-.035,0h0l-.084,0-.088,0-.093,0-.094.006-.095.006-.094.008-.094.011-.092.01-.088.014-.084.012-.076.015-.072.016-.064.016-.054.016-.043.017-.03.018.211-.7h0l.062-.029.066-.027.065-.023.07-.018.072-.015.074-.012.078-.01.08-.008.082,0,.084,0,.086,0h.279l.1,0,.1,0h0l.084.008.089.012.092.023.092.026.093.035.093.043.086.049.082.058.076.066.068.072.058.08.045.088.033.1.019.1,0,.111-.016.121-.306,1.542" transform="translate(-64.052 -704.281)" fill="none" stroke="#fff" stroke-width="0.215"></path></g></g><path id="Path_97" data-name="Path 97" d="M66.991,707.871l0-.016-.012-.012-.021-.01-.026-.006-.035,0-.037,0H66.77l-.047,0-.049.006-.047.006-.047.008-.045.008-.043.008-.037.01-.033.01-.019,0-.025.008-.03.01-.033.014-.035.015-.039.018-.039.022-.039.023-.039.028-.037.031-.035.033-.03.037-.029.039-.02.043-.016.047-.011.049,0,.1.015.078.025.062.037.045.045.031.047.02.051.01.049,0,.09,0,.08-.008.076-.014.068-.018.062-.021.055-.024.049-.029.043-.031.039-.031.033-.035.029-.033.024-.035.021-.035.016-.033.012-.033.01-.031.01-.045.01-.047.01-.049.01-.051.008-.049.008-.045.008-.043Z" transform="translate(-59.992 -701.095)" fill="#0084c4"></path><path id="Path_98" data-name="Path 98" d="M55.941,706.764h-.8l.676-3.866h1.4l.138,2.3.951-2.3h1.45l-.677,3.866h-.8l.507-2.9h-.031l-1.195,2.9h-.9l-.008-.121-.019-.322-.027-.456-.031-.523-.031-.528-.027-.466-.019-.337-.008-.142h-.033Z" transform="translate(-54.43 -698.561)" fill="#fff"></path><g id="Group_216" data-name="Group 216" transform="translate(0.708 4.336)"><g id="Group_215" data-name="Group 215"><path id="Path_99" data-name="Path 99" d="M55.941,706.764h-.8l.676-3.866h1.4l.138,2.3.951-2.3h1.45l-.677,3.866h-.8l.507-2.9h-.031l-1.195,2.9h-.9l-.008-.121-.019-.322-.027-.456-.031-.523-.031-.528-.027-.466-.019-.337-.008-.142h-.033l-.507,2.9" transform="translate(-55.138 -702.897)" fill="none" stroke="#fff" stroke-width="0.215"></path></g></g><path id="Path_100" data-name="Path 100" d="M84.446,707.481h.836l.285-1.669.012-.066.014-.064.016-.064.02-.059.023-.06.029-.056.035-.053.039-.051.047-.046.053-.041.064-.037.07-.033.082-.027.092-.021.1-.012.115-.008h.01l.012,0,.017,0h.016l.015,0,.012,0,.008,0h0l0-.012.008-.035.01-.053.016-.068.021-.076.022-.082.027-.082.031-.078.023-.058.027-.055.027-.055.029-.051.025-.043.02-.035.014-.023,0-.008h0l-.01,0-.014,0-.021,0-.02,0-.025,0-.022,0h-.02l-.09.006-.082.01-.076.017-.07.018-.066.024-.059.027-.058.033-.051.035-.052.039-.047.043-.043.045-.045.049-.043.051-.041.056-.043.057-.043.06.1-.528-.836-.01-.55,3.158Z" transform="translate(-69.521 -699.278)" fill="#fff"></path><g id="Group_218" data-name="Group 218" transform="translate(14.925 5.012)"><g id="Group_217" data-name="Group 217"><path id="Path_101" data-name="Path 101" d="M84.446,707.481h.836l.285-1.669h0l.012-.066.014-.064.016-.064.02-.059.023-.06.029-.056.035-.053.039-.051.047-.046.053-.041.064-.037.07-.033.082-.027.092-.021.1-.012.115-.008h.01l.012,0,.017,0h.016l.015,0,.012,0,.008,0h0l0-.012.008-.035.01-.053.016-.068.021-.076.022-.082.027-.082.031-.078h0l.023-.058.027-.055.027-.055.029-.051.025-.043.02-.035.014-.023,0-.008h0l-.01,0-.014,0-.021,0-.02,0-.025,0-.022,0h-.02l-.09.006-.082.01-.076.017-.07.018-.066.024-.059.027-.058.033-.051.035-.052.039-.047.043-.043.045-.045.049-.043.051-.041.056-.043.057-.043.06.1-.528-.836-.01-.55,3.158h0" transform="translate(-84.446 -704.29)" fill="none" stroke="#fff" stroke-width="0.215"></path></g></g><path id="Path_102" data-name="Path 102" d="M90.1,704.29l.092,0,.09.006.088.008.086.012.082.017.08.02.076.023.076.026.072.031.068.033.068.035.062.039.062.043.057.045.054.047.051.051.049.053.045.058.041.057.039.062.037.063.031.068.03.068.025.072.023.072.018.076.016.078.013.08.008.08,0,.084,0,.086,0,.086-.006.1-.012.1-.014.1-.019.094-.02.09-.027.086-.029.084-.031.08-.037.076-.037.074-.044.07-.043.066-.047.064-.052.059-.053.056-.055.053-.058.049-.059.047-.064.043-.064.039-.068.037-.07.033-.069.031-.074.027-.074.025-.078.021-.078.017-.078.014-.082.01-.082.008-.084,0-.084,0-.084,0-.084,0-.08-.008-.08-.013-.078-.014-.078-.016-.074-.021-.072-.024-.072-.027-.068-.031-.065-.033-.064-.037-.061-.039-.058-.044-.058-.045-.053-.049-.049-.052-.049-.055-.043-.057-.043-.062-.037-.064-.037-.068-.031-.07-.029-.072-.024-.076-.023-.08-.018-.082-.014-.085-.01-.088-.006-.09,0-.094,0-.1.006-.1.01-.095.014-.092.018-.088.021-.086.025-.084.027-.08.031-.078.033-.076.037-.072.041-.068.043-.068.045-.061.049-.062.051-.056.054-.055.057-.051.06-.047.062-.045.064-.041.067-.037.07-.037.072-.031.072-.029.076-.024.078-.023.08-.018.082-.017.084-.01.086-.01.089,0Z" transform="translate(-71.561 -699.278)" fill="#fff"></path><g id="Group_220" data-name="Group 220" transform="translate(16.847 5.012)"><g id="Group_219" data-name="Group 219"><path id="Path_103" data-name="Path 103" d="M90.1,704.29h0l.092,0,.09.006.088.008.086.012.082.017.08.02.076.023.076.026.072.031.068.033.068.035.062.039.062.043.057.045.054.047.051.051.049.053.045.058.041.057.039.062.037.063.031.068.03.068.025.072.023.072.018.076.016.078.013.08.008.08,0,.084,0,.086,0,.086h0l-.006.1-.012.1-.014.1-.019.094-.02.09-.027.086-.029.084-.031.08-.037.076-.037.074-.044.07-.043.066-.047.064-.052.059-.053.056-.055.053-.058.049-.059.047-.064.043-.064.039-.068.037-.07.033-.069.031-.074.027-.074.025-.078.021-.078.017-.078.014-.082.01-.082.008-.084,0-.084,0h0l-.084,0-.084,0-.08-.008-.08-.013-.078-.014-.078-.016-.074-.021-.072-.024-.072-.027-.068-.031-.065-.033-.064-.037-.061-.039-.058-.044-.058-.045-.053-.049-.049-.052-.049-.055-.043-.057-.043-.062-.037-.064-.037-.068-.031-.07-.029-.072-.024-.076-.023-.08-.018-.082-.014-.085-.01-.088-.006-.09,0-.094,0-.1h0l.006-.1.01-.095.014-.092.018-.088.021-.086.025-.084.027-.08.031-.078.033-.076.037-.072.041-.068.043-.068.045-.061.049-.062.051-.056.054-.055.057-.051.06-.047.062-.045.064-.041.067-.037.07-.037.072-.031.072-.029.076-.024.078-.023.08-.018.082-.017.084-.01.086-.01.089,0,.088,0" transform="translate(-88.407 -704.29)" fill="none" stroke="#fff" stroke-width="0.215"></path></g></g><path id="Path_104" data-name="Path 104" d="M94.43,710.541h.242v.031h-.095v.2h-.053v-.2H94.43Z" transform="translate(-74.662 -702.497)" fill="#fff"></path><g id="Group_222" data-name="Group 222" transform="translate(19.768 8.045)"><g id="Group_221" data-name="Group 221"><path id="Path_105" data-name="Path 105" d="M94.43,710.541h.242v.031h-.095v.2h-.053v-.2H94.43v-.031" transform="translate(-94.43 -710.541)" fill="none" stroke="#fff" stroke-width="0.215"></path></g></g><path id="Path_106" data-name="Path 106" d="M94.993,710.541h.074l.086.179h0l.084-.179h.074v.232h-.054v-.178h0l-.084.178H95.13l-.085-.178h0v.178h-.053Z" transform="translate(-74.951 -702.497)" fill="#fff"></path><g id="Group_224" data-name="Group 224" transform="translate(20.041 8.045)"><g id="Group_223" data-name="Group 223"><path id="Path_107" data-name="Path 107" d="M94.993,710.541h.074l.086.179h0l.084-.179h.074v.232h-.054v-.178h0l-.084.178H95.13l-.085-.178h0v.178h-.053v-.232" transform="translate(-94.993 -710.541)" fill="none" stroke="#fff" stroke-width="0.215"></path></g></g><path id="Path_108" data-name="Path 108" d="M90.529,706.54l-.012.115-.006.107v.1l.006.09.012.082.018.072.023.066.028.059.035.051.039.043.043.037.047.029.051.022.058.017.059.008.064,0,.07,0,.068-.008.064-.015.061-.022.058-.029.055-.037.051-.043.049-.052.043-.057.041-.066.039-.074.033-.08.031-.088.027-.1.021-.1.018-.113.01-.089.006-.084V706.3l-.006-.078-.01-.072-.016-.07-.023-.064-.027-.059-.033-.054-.037-.045-.043-.041-.047-.033-.053-.027-.058-.016-.061-.01h-.068l-.084.006-.078.014-.072.024-.068.031-.061.041-.057.045-.051.051L90.74,706l-.043.061-.037.066-.033.065-.027.07-.025.07-.02.07-.014.07Z" transform="translate(-72.643 -700.019)" fill="#ec1c2e"></path></g></g><g id="Group_228" data-name="Group 228" transform="translate(-82.03 684.413)"><path id="Rectangle_232" data-name="Rectangle 232" d="M2.391,0H32.419a2.392,2.392,0,0,1,2.392,2.392V19.364a2.393,2.393,0,0,1-2.393,2.393H2.392A2.392,2.392,0,0,1,0,19.365V2.391A2.391,2.391,0,0,1,2.391,0Z" transform="translate(0)" fill="#f9f9f9"></path><g id="Group_227" data-name="Group 227" transform="translate(6.971 4.633)"><path id="Path_109" data-name="Path 109" d="M-2.936,706.454l.322-.008.318-.023.312-.04.31-.055.3-.069.3-.084.291-.1.285-.112.278-.126.27-.137.261-.152.255-.162.244-.175.236-.186.228-.2.217-.208L1.7,704.4l.2-.228.186-.236.175-.244.162-.255.151-.262.137-.27.127-.278.112-.285.1-.291.085-.3.069-.3.055-.31.04-.312.023-.318.008-.322-.008-.32-.023-.316-.04-.312-.055-.306-.069-.3-.085-.3-.1-.291-.112-.282L2.7,697.5l-.137-.27-.151-.259-.162-.255-.175-.245-.186-.234-.2-.227-.208-.217-.217-.207-.228-.2L.808,695.2l-.244-.175-.255-.162-.261-.15-.27-.137-.278-.127-.285-.112-.291-.1-.3-.084-.3-.07-.31-.055L-2.3,694l-.318-.023-.322-.008-.321.008-.318.023-.311.04-.308.055-.3.07-.3.084-.289.1-.285.112-.276.127-.267.137-.261.15-.253.162-.244.175-.236.186-.225.2-.217.207-.206.217-.2.227-.185.234-.173.245-.162.255-.15.259-.139.27-.124.276-.112.282-.1.291-.085.3-.069.3-.055.306-.04.312-.024.316-.008.32.008.322.024.318.04.312.055.31.069.3.085.3.1.291.112.285.124.278.139.27.15.262.162.255.173.244.185.236.2.228.206.217.217.208.225.2.236.186.244.175.253.162.261.152.267.137.276.126.285.112.289.1.3.084.3.069.308.055.311.04.318.023.321.008Z" transform="translate(17.548 -693.964)" fill="#fbb231" fill-rule="evenodd"></path><path id="Path_110" data-name="Path 110" d="M-20.184,706.454l.32-.008.318-.023.312-.04.307-.055.3-.069.3-.084.289-.1.284-.112.276-.126.268-.137.261-.152.252-.162.245-.175.236-.186.225-.2.217-.208.207-.217.2-.228.185-.236.173-.244.163-.255.149-.262.139-.27.124-.278.112-.285.1-.291.084-.3.07-.3.055-.31.04-.312.023-.318.009-.322-.009-.32-.023-.316-.04-.312-.055-.306-.07-.3-.084-.3-.1-.291-.112-.282-.124-.276-.139-.27-.149-.259-.163-.255-.173-.245-.185-.234-.2-.227-.207-.217-.217-.207-.225-.2-.236-.186-.245-.175-.252-.162-.261-.15-.268-.137-.276-.127-.284-.112-.289-.1-.3-.084-.3-.07-.307-.055-.312-.04-.318-.023-.32-.008-.323.008-.318.023-.312.04-.31.055-.3.07-.3.084-.291.1-.284.112-.278.127-.27.137-.261.15-.255.162-.244.175-.236.186-.228.2-.217.207-.209.217-.2.227-.185.234-.175.245-.162.255-.152.259-.137.27-.127.276-.112.282-.1.291-.084.3-.07.3-.055.306-.04.312-.023.316-.008.32.008.322.023.318.04.312.055.31.07.3.084.3.1.291.112.285.127.278.137.27.152.262.162.255.175.244.185.236.2.228.209.217.217.208.228.2.236.186.244.175.255.162.261.152.27.137.278.126.284.112.291.1.3.084.3.069.31.055.312.04.318.023.323.008Z" transform="translate(26.441 -693.964)" fill="#ec1c2e" fill-rule="evenodd"></path><path id="Path_111" data-name="Path 111" d="M-6.438,698.542H-3.12V698.2H-6.151l-.286.339Z" transform="translate(16.141 -696.146)" fill="#fbb231" fill-rule="evenodd"></path><path id="Path_112" data-name="Path 112" d="M-7.463,700.1h3.815v-.339H-7.263l-.2.339Z" transform="translate(16.669 -696.946)" fill="#fbb231" fill-rule="evenodd"></path><path id="Path_113" data-name="Path 113" d="M-8.227,701.647h4.186v-.339H-8.079l-.147.339Z" transform="translate(17.062 -697.745)" fill="#fbb231" fill-rule="evenodd"></path><path id="Path_114" data-name="Path 114" d="M-8.753,703.2h4.441v-.339H-8.647l-.105.339Z" transform="translate(17.333 -698.546)" fill="#fbb231" fill-rule="evenodd"></path><path id="Path_115" data-name="Path 115" d="M-8.56,710.715h4.3v-.339H-8.666l.106.339Z" transform="translate(17.289 -702.414)" fill="#fbb231" fill-rule="evenodd"></path><path id="Path_116" data-name="Path 116" d="M-7.961,712.269h3.986v-.339H-8.119l.158.339Z" transform="translate(17.007 -703.215)" fill="#fbb231" fill-rule="evenodd"></path><path id="Path_117" data-name="Path 117" d="M-7.1,713.82h3.539v-.339H-7.311l.212.339Z" transform="translate(16.591 -704.013)" fill="#fbb231" fill-rule="evenodd"></path><path id="Path_118" data-name="Path 118" d="M-5.919,715.372H-3v-.341H-6.216l.3.341Z" transform="translate(16.027 -704.811)" fill="#fbb231" fill-rule="evenodd"></path><path id="Path_119" data-name="Path 119" d="M-9.061,704.752h4.59v-.339H-9l-.065.339Z" transform="translate(17.492 -699.344)" fill="#fbb231" fill-rule="evenodd"></path><path id="Path_120" data-name="Path 120" d="M-3.294,709.164h1.751v-.34H-3.23l-.063.34Z" transform="translate(14.522 -701.616)" fill="#fbb231" fill-rule="evenodd"></path><path id="Path_121" data-name="Path 121" d="M-3.007,707.611H-1.4v-.341H-2.944l-.063.341Z" transform="translate(14.375 -700.815)" fill="#fbb231" fill-rule="evenodd"></path><path id="Path_122" data-name="Path 122" d="M-9.3,707.27h.455v.341h-.434l-.021-.341Z" transform="translate(17.615 -700.815)" fill="#fbb231" fill-rule="evenodd"></path><path id="Path_123" data-name="Path 123" d="M-12.929,705.86l-.029,0-.029,0-.028,0-.027,0-.026,0-.027,0-.027,0-.03,0-.029,0-.034,0-.038,0-.04,0h-.044l-.048,0-.055,0-.061,0-.042.006-.04.006-.036.012-.031.012-.03.015-.027.017-.021.021-.019.019-.012.023-.01.023,0,.025v.025l.006.027.009.027.017.027.021.027.042.04.051.032.059.027.063.023.067.021.069.023.07.026.067.027.063.036.059.044.053.053.044.065.034.08.021.095.008.114-.008.133-.015.1-.025.086-.034.08-.042.069-.048.061-.055.052-.059.046-.065.04-.068.031-.069.027-.072.021-.074.017-.072.013-.069.006-.07,0-.065,0h-.091l-.084,0h-.074l-.069,0-.063,0-.057,0-.05,0-.049-.006-.044,0-.04-.008-.04-.007-.036-.01-.036-.009-.033-.013-.034-.012-.036-.013.095-.466.019,0,.023.006.03.008.036.009.038.008.042.008.046.01.05.009.053.008.055.009.057.006.059.006.061,0,.062,0h.06l.061,0,.061-.012.049-.017.038-.023.03-.029.021-.03.017-.034.011-.033.008-.032,0-.061-.019-.053-.036-.042-.052-.036-.063-.031-.074-.032-.082-.03-.082-.034-.084-.038-.08-.044-.074-.055-.068-.065-.053-.08-.038-.095-.019-.113,0-.135.011-.082.015-.078.021-.071.025-.067.034-.063.038-.055.044-.053.053-.046.061-.04.067-.034.076-.031.084-.023.1-.019.1-.015.113-.008.125,0h.078l.072,0,.066,0,.059,0,.053,0,.048,0,.042,0,.038,0,.036,0,.03.006.027,0,.026,0,.021,0,.019,0,.019,0,.017,0-.108.476Z" transform="translate(20.394 -699.816)" fill="#fff" fill-rule="evenodd"></path><path id="Path_124" data-name="Path 124" d="M-12.929,705.86h0l-.029,0-.029,0-.028,0-.027,0-.026,0-.027,0-.027,0-.03,0-.029,0-.034,0-.038,0-.04,0h-.044l-.048,0-.055,0-.061,0h0l-.042.006-.04.006-.036.012-.031.012-.03.015-.027.017-.021.021-.019.019-.012.023-.01.023,0,.025v.025l.006.027.009.027.017.027.021.027h0l.042.04.051.032.059.027.063.023.067.021.069.023.07.026.067.027.063.036.059.044.053.053.044.065.034.08.021.095.008.114-.008.133h0l-.015.1-.025.086-.034.08-.042.069-.048.061-.055.052-.059.046-.065.04-.068.031-.069.027-.072.021-.074.017-.072.013-.069.006-.07,0-.065,0h-.091l-.084,0h-.074l-.069,0-.063,0-.057,0-.05,0-.049-.006-.044,0-.04-.008-.04-.007-.036-.01-.036-.009-.033-.013-.034-.012-.036-.013.095-.466h0l.019,0,.023.006.03.008.036.009.038.008.042.008.046.01.05.009.053.008.055.009.057.006.059.006.061,0,.062,0h.06l.061,0h0l.061-.012.049-.017.038-.023.03-.029.021-.03.017-.034.011-.033.008-.032h0l0-.061-.019-.053-.036-.042-.052-.036-.063-.031-.074-.032-.082-.03-.082-.034-.084-.038-.08-.044-.074-.055-.068-.065-.053-.08-.038-.095-.019-.113,0-.135h0l.011-.082.015-.078.021-.071.025-.067.034-.063.038-.055.044-.053.053-.046.061-.04.067-.034.076-.031.084-.023.1-.019.1-.015.113-.008.125,0h.078l.072,0,.066,0,.059,0,.053,0,.048,0,.042,0,.038,0,.036,0,.03.006.027,0,.026,0,.021,0,.019,0,.019,0,.017,0-.108.476" transform="translate(20.394 -699.816)" fill="none" stroke="#fff" stroke-miterlimit="2.613" stroke-width="0.216"></path><path id="Path_125" data-name="Path 125" d="M-10.461,704.37h.584l-.086.51h.352l-.076.476-.371-.011-.2,1.175,0,.042.01.036.021.027.028.023.038.015.042.013.046.008.051,0,.046,0,.042,0,.038-.007.034-.008.028-.008.019-.006.013,0,0,0-.073.392-.015.01-.015.008-.015.008-.015.008-.015.006-.017.006-.019.006-.019.006-.021.006-.021,0-.025,0-.025,0-.027,0-.032,0-.034,0-.036,0h-.16l-.084-.006-.073-.008-.067-.012-.057-.015-.049-.019-.04-.021-.036-.026-.027-.027-.021-.029-.015-.036-.01-.036-.006-.04,0-.044v-.046l.006-.048.006-.053.4-2.3Z" transform="translate(18.427 -699.322)" fill="#fff" fill-rule="evenodd"></path><path id="Path_126" data-name="Path 126" d="M-10.461,704.37h.584l-.086.51h.352l-.076.476-.371-.011-.2,1.175h0l0,.042.01.036.021.027.028.023.038.015.042.013.046.008.051,0h0l.046,0,.042,0,.038-.007.034-.008.028-.008.019-.006.013,0,0,0-.073.392h0l-.015.01-.015.008-.015.008-.015.008-.015.006-.017.006-.019.006-.019.006-.021.006-.021,0-.025,0-.025,0-.027,0-.032,0-.034,0-.036,0h-.16l-.084-.006-.073-.008-.067-.012-.057-.015-.049-.019-.04-.021-.036-.026-.027-.027-.021-.029-.015-.036-.01-.036-.006-.04,0-.044v-.046l.006-.048.006-.053.4-2.3" transform="translate(18.427 -699.322)" fill="none" stroke="#fff" stroke-miterlimit="2.613" stroke-width="0.216"></path><path id="Path_127" data-name="Path 127" d="M-7.964,706.643h0l-.006.036,0,.038,0,.04.008.04.015.04.017.038.023.04.025.036.03.036.031.032.034.031.038.025.038.023.042.019.042.015.042.009h0l.055.008.053.006.055.006.055,0,.055,0h.057l.055,0,.057,0,.057-.008.057-.011.059-.012.057-.019.059-.023.061-.026.059-.033.061-.036-.084.518h0l-.034.017-.033.017-.034.012-.031.013-.032.01-.034.011-.034.008-.036.007-.038.006-.042,0-.044,0-.049,0-.055,0h-.057l-.066,0h-.07l-.1,0-.105-.01-.106-.015-.105-.026-.1-.031-.1-.04-.1-.052-.088-.061-.082-.072-.071-.086-.061-.1-.051-.112-.035-.124-.023-.141-.007-.156.011-.173h0l.008-.067.012-.078.017-.082.023-.089.032-.09.038-.091.048-.093.059-.088.067-.084.082-.08.093-.072.105-.063.122-.053.137-.038.151-.025.171-.009h0l.082,0,.086.008.086.015.086.021.084.032.082.038.076.051.069.059.063.072.053.084.042.1.03.112.017.126,0,.143-.015.16-.032.177-.01.128H-8.134l.1-.415h.923l0-.052,0-.051,0-.047-.008-.042-.015-.04-.015-.036-.021-.031-.021-.029-.025-.025-.028-.021-.032-.019-.032-.017-.034-.012-.034-.009-.036-.006-.038,0h0l-.04,0-.038.006-.036.009-.036.012-.036.017-.031.019-.032.023-.027.025-.028.029-.025.031-.023.034-.019.036-.019.038-.015.042-.013.042-.009.044-.084.436" transform="translate(17.244 -699.816)" fill="none" stroke="#fff" stroke-miterlimit="2.613" stroke-width="0.216"></path><path id="Path_128" data-name="Path 128" d="M.766,704.9l-.027-.015-.027-.013-.03-.015-.031-.015-.032-.013-.035-.013-.036-.013L.509,704.8l-.04-.01-.041-.008-.044-.009-.044-.006-.049,0-.048,0H.088l-.055,0-.057.007-.059.01-.059.017-.059.023-.059.03-.059.038-.057.047-.055.055-.053.068-.05.078-.047.093-.044.105-.04.118-.033.135-.013.076-.008.074,0,.074,0,.072.006.072.015.068.019.063.023.063.032.057.038.055.045.049.05.044.057.038.065.032.072.027.08.019.028.006.032.006.038,0,.042,0,.046,0h.1l.053,0,.055-.007.055-.01.053-.015.053-.017.053-.023.048-.027.044-.034.042-.038-.094.563-.013.01L.4,706.9l-.017.015-.019.012-.023.017-.03.015-.034.015-.038.012L.193,707l-.055.011-.063.009L0,707.026l-.082,0-.1,0-.107,0-.118-.006-.1-.011-.1-.021-.1-.031-.1-.042-.093-.05L-.97,706.8l-.084-.073-.078-.084-.07-.1-.059-.105-.051-.118-.038-.129-.025-.141-.009-.15,0-.164.023-.175.017-.086.019-.084.021-.082.021-.078.023-.074.028-.074.028-.07.029-.065.032-.065.031-.061.036-.059.038-.055.038-.053.042-.05.042-.046.044-.044.048-.042.049-.04.051-.036.053-.034.057-.032.057-.027.059-.025.061-.023.065-.021.065-.017.068-.015.072-.012.071-.011.076-.008.076,0,.08,0,.068,0,.065,0,.063.006L.4,704.2l.059.008.057.013.055.011.051.013.049.013.042.013.04.013.033.012.03.01.025.009.019.008.013,0-.106.583Z" transform="translate(13.538 -699.221)" fill="#fff" fill-rule="evenodd"></path><path id="Path_129" data-name="Path 129" d="M.766,704.9h0l-.027-.015-.027-.013-.03-.015-.031-.015-.032-.013-.035-.013-.036-.013L.509,704.8l-.04-.01-.041-.008-.044-.009-.044-.006-.049,0-.048,0H.088l-.055,0-.057.007-.059.01-.059.017-.059.023-.059.03-.059.038-.057.047-.055.055-.053.068-.05.078-.047.093-.044.105-.04.118-.033.135h0l-.013.076-.008.074,0,.074,0,.072.006.072.015.068.019.063.023.063.032.057.038.055.045.049.05.044.057.038.065.032.072.027.08.019h0l.028.006.032.006.038,0,.042,0,.046,0h.1l.053,0,.055-.007.055-.01.053-.015.053-.017.053-.023.048-.027.044-.034.042-.038-.094.563h0l-.013.01L.4,706.9l-.017.015-.019.012-.023.017-.03.015-.034.015-.038.012L.193,707l-.055.011-.063.009L0,707.026l-.082,0-.1,0-.107,0-.118-.006h0l-.1-.011-.1-.021-.1-.031-.1-.042-.093-.05L-.97,706.8l-.084-.073-.078-.084-.07-.1-.059-.105-.051-.118-.038-.129-.025-.141-.009-.15,0-.164.023-.175h0l.017-.086.019-.084.021-.082.021-.078.023-.074.028-.074.028-.07.029-.065.032-.065.031-.061.036-.059.038-.055.038-.053.042-.05.042-.046.044-.044.048-.042.049-.04.051-.036.053-.034.057-.032.057-.027.059-.025.061-.023.065-.021.065-.017.068-.015.072-.012.071-.011.076-.008.076,0,.08,0h0l.068,0,.065,0,.063.006L.4,704.2l.059.008.057.013.055.011.051.013.049.013.042.013.04.013.033.012.03.01.025.009.019.008.013,0-.106.583" transform="translate(13.538 -699.221)" fill="none" stroke="#fff" stroke-miterlimit="2.613" stroke-width="0.216"></path><path id="Path_130" data-name="Path 130" d="M11.691,707.147h-.584l.042-.234v-.021l-.034.042-.036.038-.035.034-.038.03-.038.027-.038.023-.038.019-.04.019-.04.015-.04.01-.04.01-.042.006-.042.007-.04,0-.042,0h-.042l-.11-.009-.1-.023-.093-.036-.084-.048L10.06,707l-.067-.071-.059-.078-.051-.088-.042-.1-.034-.1-.023-.1-.017-.108-.006-.108,0-.109.01-.107.019-.107.032-.125.038-.118.044-.107.052-.1.055-.095.063-.084.065-.075.07-.07.074-.061.078-.053.08-.046.08-.036.084-.03.084-.019.084-.013.086,0,.061,0,.059.007.055.01.05.015.049.017.042.019.042.023.038.023.034.025.031.028.028.027.025.027.021.027.019.027.017.026.012.025h0l.148-.828h.573l-.476,2.755Z" transform="translate(7.8 -699.333)" fill="#fff" fill-rule="evenodd"></path><path id="Path_131" data-name="Path 131" d="M11.691,707.147h-.584l.042-.234v-.021h0l-.034.042-.036.038-.035.034-.038.03-.038.027-.038.023-.038.019-.04.019-.04.015-.04.01-.04.01-.042.006-.042.007-.04,0-.042,0h-.042l-.11-.009-.1-.023-.093-.036-.084-.048L10.06,707l-.067-.071-.059-.078-.051-.088-.042-.1-.034-.1-.023-.1-.017-.108-.006-.108,0-.109.01-.107.019-.107h0l.032-.125.038-.118.044-.107.052-.1.055-.095.063-.084.065-.075.07-.07.074-.061.078-.053.08-.046.08-.036.084-.03.084-.019.084-.013.086,0h0l.061,0,.059.007.055.01.05.015.049.017.042.019.042.023.038.023.034.025.031.028.028.027.025.027.021.027.019.027.017.026.012.025h0l.148-.828h.573l-.476,2.755" transform="translate(7.8 -699.333)" fill="none" stroke="#fff" stroke-miterlimit="2.613" stroke-width="0.216"></path><path id="Path_132" data-name="Path 132" d="M11.456,707.706l.059,0,.055-.013.051-.015.049-.023.044-.025.042-.032.04-.036.036-.038.031-.042.03-.046.027-.048.023-.05.021-.053.017-.055.014-.057.011-.057.01-.059.007-.061v-.057l0-.059-.006-.055-.008-.053-.015-.051-.017-.048-.021-.042-.025-.04-.027-.034-.032-.029-.036-.025-.038-.017-.04-.01-.044,0-.057,0-.053.008-.049.017-.048.021-.042.027-.042.034-.036.036-.036.04-.031.046-.03.049-.028.05-.023.055-.021.057-.017.057-.017.061-.012.061-.011.093,0,.1.014.1.028.1.042.087.055.069.069.046.084.017Z" transform="translate(7.081 -700.402)" fill="#fbb231" fill-rule="evenodd"></path><path id="Path_133" data-name="Path 133" d="M-16.935,707.18l-.085.468h-.531l.015-.086.011-.078.008-.059.009-.032-.029.034-.034.034-.04.032-.044.029-.05.03-.053.025-.055.025-.057.021-.061.019-.061.015-.061.013-.063.008-.061,0-.061,0-.059-.006-.057-.008-.074-.019-.067-.021-.059-.027-.053-.032-.046-.033-.042-.038-.034-.04-.03-.042-.025-.044-.021-.047-.017-.046-.013-.046-.009-.049-.006-.049,0-.047v-.046l.006-.082.013-.078.021-.074.027-.072.034-.067.038-.061.044-.059.051-.053.053-.048.059-.044.061-.04.063-.034.067-.029.07-.024.072-.019.074-.013h0l.011,0,.015,0,.023,0,.025,0,.029,0,.031,0,.036,0,.036,0,.036,0,.038,0,.033,0,.034,0,.031,0,.03,0h.072l.051,0,.046,0h.046l.038,0,.03,0,.021,0h.006l0-.015.013-.038.01-.044,0-.04-.008-.046-.019-.043-.025-.038-.034-.032-.04-.027-.044-.019-.051-.013-.055,0-.059,0-.064,0h-.065l-.067,0-.07,0-.068.006-.067.006-.065.009-.064.008-.061.011-.055.01-.05.011-.046.013-.038.012-.029.015-.023.013.15-.508.046-.019.046-.017.051-.015.05-.011.051-.011.055-.008.055-.009.057,0,.059,0,.061,0,.063,0h.2l.074,0,.074,0,.059,0,.063.011.065.015.067.019.065.025.063.029.063.036.06.04.052.047.047.05.042.057.031.063.021.068.012.071v.08l-.012.084-.213,1.112Z" transform="translate(22.534 -699.833)" fill="#fff" fill-rule="evenodd"></path><path id="Path_134" data-name="Path 134" d="M-16.935,707.18l-.085.468h-.531l.015-.086.011-.078.008-.059.009-.032h0l-.029.034-.034.034-.04.032-.044.029-.05.03-.053.025-.055.025-.057.021-.061.019-.061.015-.061.013-.063.008-.061,0-.061,0-.059-.006-.057-.008h0l-.074-.019-.067-.021-.059-.027-.053-.032-.046-.033-.042-.038-.034-.04-.03-.042-.025-.044-.021-.047-.017-.046-.013-.046-.009-.049-.006-.049,0-.047v-.046h0l.006-.082.013-.078.021-.074.027-.072.034-.067.038-.061.044-.059.051-.053.053-.048.059-.044.061-.04.063-.034.067-.029.07-.024.072-.019.074-.013h0l.011,0,.015,0,.023,0,.025,0,.029,0,.031,0,.036,0,.036,0,.036,0,.038,0,.033,0,.034,0,.031,0,.03,0h.072l.051,0,.046,0h.046l.038,0,.03,0,.021,0h.006l0-.015.013-.038.01-.044,0-.04h0l-.008-.046-.019-.043-.025-.038-.034-.032-.04-.027-.044-.019-.051-.013-.055,0h0l-.059,0-.064,0h-.065l-.067,0-.07,0-.068.006-.067.006-.065.009-.064.008-.061.011-.055.01-.05.011-.046.013-.038.012-.029.015-.023.013.15-.508h0l.046-.019.046-.017.051-.015.05-.011.051-.011.055-.008.055-.009.057,0,.059,0,.061,0,.063,0h.2l.074,0,.074,0h0l.059,0,.063.011.065.015.067.019.065.025.063.029.063.036.06.04.052.047.047.05.042.057.031.063.021.068.012.071v.08l-.012.084-.213,1.112" transform="translate(22.534 -699.833)" fill="none" stroke="#fff" stroke-miterlimit="2.613" stroke-width="0.216"></path><path id="Path_135" data-name="Path 135" d="M-16.747,707.933l0-.01-.009-.01-.013-.006-.021,0-.023,0-.027,0h-.064l-.033,0-.036,0-.034,0-.034,0-.032,0-.03.006-.025.007-.023.006-.014,0-.017.007-.023.008-.023.01-.027.013-.027.015-.029.014-.027.017-.029.021-.028.021-.025.025-.023.025-.021.027-.015.03-.012.033-.007.034,0,.072.01.057.021.042.027.032.032.021.036.013.034.006.034,0,.063,0,.057-.006.055-.009.049-.013.042-.015.04-.019.036-.019.032-.023.027-.021.025-.025.021-.023.017-.025.014-.025.013-.025.01-.023.006-.023.017-.061.015-.07.013-.067.011-.055Z" transform="translate(21.839 -701.137)" fill="#ec1c2e" fill-rule="evenodd"></path><path id="Path_136" data-name="Path 136" d="M-24.643,707.136h-.573l.478-2.766h1l.1,1.641.689-1.641h1.041l-.489,2.766h-.573l.362-2.066h-.023l-.858,2.066h-.646l0-.086-.015-.23-.019-.326-.021-.375-.021-.377-.019-.331-.015-.24,0-.1h-.031l-.35,2.066Z" transform="translate(25.81 -699.322)" fill="#fff" fill-rule="evenodd"></path><path id="Path_137" data-name="Path 137" d="M-24.643,707.136h-.573l.478-2.766h1l.1,1.641.689-1.641h1.041l-.489,2.766h-.573l.362-2.066h-.023l-.858,2.066h-.646l0-.086-.015-.23-.019-.326-.021-.375-.021-.377-.019-.331-.015-.24,0-.1h-.031l-.35,2.066" transform="translate(25.81 -699.322)" fill="none" stroke="#fff" stroke-miterlimit="2.613" stroke-width="0.216"></path><path id="Path_138" data-name="Path 138" d="M4.63,707.18l-.087.468H4.014l0-.086,0-.076v-.057l0-.025L4,707.435l-.032.031-.038.029-.042.03-.044.027-.051.025-.053.026-.053.021-.057.017-.059.017-.059.011-.059.008-.061,0-.059,0-.057-.006-.057-.008-.076-.019-.067-.021-.059-.027-.055-.032-.046-.033-.04-.038-.034-.04-.029-.042-.025-.044-.019-.047-.017-.046-.01-.046-.009-.049-.006-.049,0-.047v-.046l0-.082.013-.078.019-.074.028-.072.031-.067.04-.061.044-.059.049-.053L3,706.448l.057-.044.061-.04.065-.034.065-.029.069-.024.07-.019.072-.013h0l.01,0,.015,0,.021,0,.028,0,.029,0,.032,0,.033,0,.036,0,.038,0,.036,0,.036,0,.034,0,.029,0,.03,0h.074l.051,0,.048,0h.046l.04,0,.034,0,.019,0h.009l0-.015.006-.038.006-.044,0-.04-.008-.046-.017-.043-.027-.038-.032-.032-.038-.027-.044-.019L4,705.861l-.051,0-.059,0-.063,0H3.764l-.068,0-.069,0-.068.006-.067.006-.065.009-.063.008L3.3,705.9l-.055.01-.05.011-.046.013-.038.012-.03.015-.023.013.148-.508.046-.019.049-.017.048-.015.05-.011.053-.011.053-.008.054-.009.057,0,.059,0,.061,0,.061,0H4l.072,0,.072,0,.059,0,.063.011.065.015.068.019.065.025.065.029.063.036.059.04.053.047.048.05.042.057.032.063.023.068.015.071v.08l-.011.084L4.63,707.18Z" transform="translate(11.426 -699.833)" fill="#fff" fill-rule="evenodd"></path><path id="Path_139" data-name="Path 139" d="M6.465,709.588l.012-.013.086-.468-.025,0-.086.468.013-.013v.03l.01,0,0-.01-.012.013Z" transform="translate(9.504 -701.759)" fill="#fff" fill-rule="evenodd"></path><path id="Path_140" data-name="Path 140" d="M5.36,710.056l.013.015H5.9v-.03H5.372l.013.015H5.36l0,.015h.015l-.013-.015Z" transform="translate(10.068 -702.242)" fill="#fff" fill-rule="evenodd"></path><path id="Path_141" data-name="Path 141" d="M5.4,709.567l-.019-.017-.008.034,0,.057v.076l0,.086h.025l0-.086,0-.076,0-.057v-.017l-.019-.017.021.017Z" transform="translate(10.066 -701.989)" fill="#fff" fill-rule="evenodd"></path><path id="Path_142" data-name="Path 142" d="M3.742,709.837h0l.059.008.057.006.059,0,.061,0,.061-.008.059-.011.059-.017.059-.017.053-.021.055-.025.051-.025.044-.03.044-.03.038-.029.034-.034.028-.032-.021-.017-.027.032-.03.03-.038.03-.04.029-.044.025-.05.026-.051.025-.053.021-.055.017-.059.017-.059.01-.057.008-.061,0-.059,0L3.8,709.82l-.055-.008h0l0,.025Z" transform="translate(10.9 -701.989)" fill="#fff" fill-rule="evenodd"></path><path id="Path_143" data-name="Path 143" d="M2.691,708.825h0l0,.046,0,.047.006.051.008.049.01.046.017.048.019.048.028.044.029.044.034.04.042.04.048.034.055.034.061.027.069.021.076.019,0-.025-.076-.019-.065-.021-.057-.027-.055-.03-.044-.033-.038-.036-.034-.04-.03-.04-.023-.044-.019-.044-.017-.044-.01-.047-.008-.049-.006-.046,0-.047,0-.046H2.691Z" transform="translate(11.441 -701.616)" fill="#fff" fill-rule="evenodd"></path><path id="Path_144" data-name="Path 144" d="M3.447,707.157h0l-.074.013-.072.019-.07.023-.067.029-.066.034-.063.042-.057.045-.055.05-.051.053-.044.059-.042.063-.032.07-.027.071-.019.076-.013.08-.006.082H2.72l0-.082.013-.076.019-.072.027-.072.031-.065.038-.059.045-.059.046-.052L3,707.383l.057-.044.059-.038.066-.034.063-.029.07-.023.067-.019.07-.013h0v-.025Z" transform="translate(11.441 -700.757)" fill="#fff" fill-rule="evenodd"></path><path id="Path_145" data-name="Path 145" d="M4.684,707.066H4.661l-.03,0-.029,0-.034,0-.036,0-.036,0-.038,0-.036,0-.033,0-.032,0-.029,0-.028,0-.021,0-.017,0-.008,0h0v.025h0l.013,0,.013,0,.021,0,.028,0,.029,0,.032,0,.033,0,.036,0,.038,0,.036,0,.036,0,.034,0,.029,0h.053v-.03Z" transform="translate(10.638 -700.71)" fill="#fff" fill-rule="evenodd"></path><path id="Path_146" data-name="Path 146" d="M5.429,707.089l.013-.011H5.433l-.019,0-.034,0-.04,0H5.246l-.051,0H5.144v.03h.1l.048,0H5.38l.034,0,.019,0h.009l.013-.011-.013.011.011,0,0-.012-.025,0Z" transform="translate(10.178 -700.71)" fill="#fff" fill-rule="evenodd"></path><path id="Path_147" data-name="Path 147" d="M5.752,706.836h0l0,.04-.007.042-.006.038,0,.015.025,0,0-.015.006-.038.006-.046.006-.04H5.752Z" transform="translate(9.876 -700.592)" fill="#fff" fill-rule="evenodd"></path><path id="Path_148" data-name="Path 148" d="M5.257,706.377v0l.049,0,.044.013.042.019.036.025.029.029.025.036.017.038.008.044h.025l-.009-.048-.017-.047-.03-.04-.033-.034-.04-.029-.046-.019-.049-.012-.053-.006v.027Z" transform="translate(10.12 -700.341)" fill="#fff" fill-rule="evenodd"></path><path id="Path_149" data-name="Path 149" d="M3.394,706.474l.021.012.021-.011.027-.015.036-.013.046-.012.051-.01.054-.011.061-.011.061-.008.065-.009.067-.006.068-.006.069,0h.2l.059,0v-.025l-.059,0-.063,0H4.111l-.068,0-.069,0-.068.007-.067.006-.065.008-.065.008-.061.011-.054.011-.051.011-.046.012-.04.013-.032.014-.025.015.021.013-.025,0Z" transform="translate(11.079 -700.337)" fill="#fff" fill-rule="evenodd"></path><path id="Path_150" data-name="Path 150" d="M3.551,705.546l-.009.011-.147.508.025,0,.148-.508-.009.011-.008-.025-.007,0,0,.009.009-.011Z" transform="translate(11.079 -699.928)" fill="#fff" fill-rule="evenodd"></path><path id="Path_151" data-name="Path 151" d="M4.653,705.34h0l-.072,0-.072,0h-.2l-.061,0-.061,0-.059,0-.057,0-.057.009-.052.008-.053.011-.051.01-.05.015-.048.017-.046.019.008.025.047-.019.048-.017.046-.015.051-.01.053-.011.052-.008.053-.009.057,0,.059,0,.061,0H4.51l.072,0h.072v-.025Z" transform="translate(10.913 -699.818)" fill="#fff" fill-rule="evenodd"></path><path id="Path_152" data-name="Path 152" d="M6.371,706.061h0l.01-.086v-.08l-.014-.074-.023-.069-.034-.065-.043-.059-.05-.052-.052-.047-.061-.04-.063-.038-.067-.029-.065-.025-.069-.019-.066-.015-.065-.01-.059,0v.025l.059,0,.061.011.065.015.065.019.066.025.063.03.063.034.057.04.053.046.046.049.042.054.029.062.023.065.015.069v.08l-.011.082h0l.025,0Z" transform="translate(9.918 -699.825)" fill="#fff" fill-rule="evenodd"></path><path id="Path_153" data-name="Path 153" d="M6.655,707.927h0l.221-1.112-.025,0-.221,1.112h0l.025,0Z" transform="translate(9.413 -700.578)" fill="#fff" fill-rule="evenodd"></path><path id="Path_154" data-name="Path 154" d="M4.816,707.931l0-.013-.008-.01-.015-.006-.021-.006-.023,0-.028,0H4.685l-.031,0-.034,0-.034,0-.034,0-.032,0-.031.006-.028,0-.028.006-.021,0-.015,0-.017.006-.021.006-.023.008-.028.012-.025.013-.03.015-.027.019-.028.019-.028.023-.023.023-.023.028-.019.029-.015.031-.012.034-.006.036,0,.072.01.057.017.042.025.031.032.021.036.013.036.006.036,0,.063,0,.059-.006.055-.011.049-.015.046-.017.04-.019.038-.021.034-.025.03-.023.025-.027.023-.025.019-.028.015-.025.011-.025.008-.025.006-.023.009-.059.011-.061.008-.059,0-.053Z" transform="translate(10.73 -701.135)" fill="#fbb231" fill-rule="evenodd"></path><path id="Path_155" data-name="Path 155" d="M14.55,709.175l0-.049.016-.057.03-.051.036-.044.044-.036.051-.026.055-.017.059-.006.059.006.055.017.051.026.044.036.036.044.029.051.017.057,0,.049h-.063l0-.038-.013-.046-.021-.042-.027-.036-.033-.029-.04-.021-.046-.015-.049,0-.048,0-.046.015-.04.021-.034.029-.027.036-.021.042-.013.046,0,.038Z" transform="translate(5.334 -701.649)" fill="#fff" fill-rule="evenodd"></path><path id="Path_156" data-name="Path 156" d="M14.942,709.343v-.127h.116l.026,0,.023,0,.017.006.015.008.011.013.008.013,0,.014,0,.015,0,.019,0,.015-.006.013,0,0h-.089l.008,0,.015,0,.012,0,.011,0,.008-.006,0-.007,0-.01v-.015l0-.011,0-.009-.006,0-.007,0-.011,0-.01,0h-.086v.082Z" transform="translate(5.133 -701.817)" fill="#fff" fill-rule="evenodd"></path><path id="Path_157" data-name="Path 157" d="M14.549,709.477l0,.012.007.061.016.057.03.051.036.042.044.036.051.028.055.017.059.006.059-.006.055-.017.051-.028.044-.036.036-.042.029-.051.017-.057.006-.061,0-.012h-.063l0,.012,0,.051-.013.047-.021.04-.027.035-.033.03-.04.023-.046.015-.049,0-.048,0-.046-.015-.04-.023-.034-.03-.027-.035-.021-.04-.013-.047,0-.051v-.012Z" transform="translate(5.336 -701.952)" fill="#fff" fill-rule="evenodd"></path><path id="Path_158" data-name="Path 158" d="M14.942,709.477v.128h.053V709.5h.052l.063.105h.043l-.063-.105H15.1l.015,0,.013,0,.011-.008,0-.006h-.089l-.01,0h-.052v0Z" transform="translate(5.133 -701.952)" fill="#fff" fill-rule="evenodd"></path><path id="Path_159" data-name="Path 159" d="M14.547,709.187h0l.007-.061.016-.057.03-.05.036-.044.044-.035.051-.026.055-.017.059-.006h0l.059.006.055.017.05.026.045.035.035.044.03.05.016.057.006.061h0l-.006.061-.016.057-.03.05-.035.042-.045.035-.05.028-.055.016-.059.006h0l-.059-.006-.055-.016-.051-.028-.044-.035-.036-.042-.03-.05-.016-.057-.007-.061m.244.116h-.053v-.255h.115l.026,0,.023,0,.016.006.015.008.011.013.008.013,0,.015,0,.015h0l0,.019,0,.015-.006.013-.008.011-.011.008-.013,0-.015,0h-.015l.063.105h-.042l-.063-.105h-.052v.105m.052-.127h0l.019,0,.015,0,.012,0,.011,0,.009-.006,0-.007,0-.01v-.015h0l0-.01,0-.009-.006,0-.006,0-.011,0-.01,0h-.086v.084h.052m0,.255h0l.049,0,.047-.015.04-.023.033-.03.028-.035.021-.04.013-.047,0-.05h0l0-.051-.013-.046-.021-.042-.028-.036-.033-.03-.04-.021-.047-.015-.049,0h0l-.049,0-.046.015-.04.021-.034.03-.027.036-.021.042-.013.046,0,.051h0l0,.05.013.047.021.04.027.035.034.03.04.023.046.015.049,0" transform="translate(5.336 -701.649)" fill="none" stroke="#fff" stroke-miterlimit="2.613" stroke-width="0.216"></path><path id="Path_160" data-name="Path 160" d="M6.982,707.652h.594l.212-1.2.008-.046.013-.047.012-.046.017-.046.021-.046.025-.044.028-.042.034-.04.038-.036.042-.034.049-.032.055-.025.061-.021.067-.017.074-.013.082,0h.053l.095-.541-.059,0-.057.007-.053.01-.051.015-.046.017-.044.022-.042.023-.04.025-.038.03-.036.029-.034.034-.034.034L8,705.657l-.031.04-.032.038-.029.042.063-.381H7.376l-.394,2.256Z" transform="translate(9.231 -699.838)" fill="#fff" fill-rule="evenodd"></path><path id="Path_161" data-name="Path 161" d="M6.982,707.652h.594l.212-1.2h0l.008-.046.013-.047.012-.046.017-.046.021-.046.025-.044.028-.042.034-.04.038-.036.042-.034.049-.032.055-.025.061-.021.067-.017.074-.013.082,0h.053l.095-.541h0l-.059,0-.057.007-.053.01-.051.015-.046.017-.044.022-.042.023-.04.025-.038.03-.036.029-.034.034-.034.034L8,705.657l-.031.04-.032.038-.029.042.063-.381H7.376l-.394,2.256h0" transform="translate(9.231 -699.838)" fill="none" stroke="#fff" stroke-miterlimit="2.613" stroke-width="0.216"></path><path id="Path_162" data-name="Path 162" d="M-4.518,707.652h.6l.2-1.2.008-.046.01-.044.01-.044.015-.042.017-.042.021-.04.025-.038.03-.036.034-.032.038-.031.047-.025.05-.023.059-.019.065-.016.072-.011.082-.006h.007l.008,0,.01,0h.011l.01,0,.009,0,.006,0h0l0-.008.006-.025.008-.038.011-.047.015-.055.015-.059.019-.059.019-.059.017-.04.021-.04.021-.04.021-.036.019-.031.015-.025.011-.015,0-.006h0l-.009,0-.01,0-.015,0h-.014l-.017,0-.015,0h-.015l-.065,0-.059.007-.055.01-.05.013-.049.017-.044.021-.04.021-.038.025-.035.028-.034.032-.031.032-.032.035-.032.036-.029.04-.031.042-.032.042.076-.381h-.6l-.394,2.256Z" transform="translate(15.153 -699.838)" fill="#fff" fill-rule="evenodd"></path><path id="Path_163" data-name="Path 163" d="M-4.518,707.652h.6l.2-1.2h0l.008-.046.01-.044.01-.044.015-.042.017-.042.021-.04.025-.038.03-.036.034-.032.038-.031.047-.025.05-.023.059-.019.065-.016.072-.011.082-.006h.007l.008,0,.01,0h.011l.01,0,.009,0,.006,0h0l0-.008.006-.025.008-.038.011-.047.015-.055.015-.059.019-.059.019-.059h0l.017-.04.021-.04.021-.04.021-.036.019-.031.015-.025.011-.015,0-.006h0l-.009,0-.01,0-.015,0h-.014l-.017,0-.015,0h-.015l-.065,0-.059.007-.055.01-.05.013-.049.017-.044.021-.04.021-.038.025-.035.028-.034.032-.031.032-.032.035-.032.036-.029.04-.031.042-.032.042.076-.381h-.6l-.394,2.256h0" transform="translate(15.153 -699.838)" fill="none" stroke="#fff" stroke-miterlimit="2.613" stroke-width="0.216"></path><path id="Path_164" data-name="Path 164" d="M14.561,714.392v-.008l.016-.055.03-.048.036-.042.044-.034.051-.026.055-.014.059-.006.059.006.055.014.051.026.044.034.036.042.029.048.017.055v.008h-.061l-.013-.044-.021-.04-.027-.036-.033-.029-.04-.023L14.9,714.2l-.049,0-.048,0-.046.015-.04.023-.034.029-.027.036-.021.04-.013.044Z" transform="translate(5.329 -704.362)" fill="#fbb231" fill-rule="evenodd"></path><path id="Path_165" data-name="Path 165" d="M14.942,714.562v-.073h.141l.023,0,.017,0,.015.008.011.011.008.013,0,.015,0,.019h-.042v-.011l0-.011,0-.008-.006,0-.007,0-.011,0-.01,0h-.086v.042Z" transform="translate(5.133 -704.532)" fill="#fbb231" fill-rule="evenodd"></path><path id="Path_166" data-name="Path 166" d="M14.547,714.686l.007-.046h.061v0l0,.044Z" transform="translate(5.336 -704.61)" fill="#fbb231" fill-rule="evenodd"></path><path id="Path_167" data-name="Path 167" d="M14.942,714.686v-.046h.053v.042h.052l.019,0,.015,0,.012,0,.011,0,.008-.006,0-.007,0-.01v0h.042l0,.015,0,.013-.006.011-.008.008Z" transform="translate(5.133 -704.61)" fill="#fbb231" fill-rule="evenodd"></path><path id="Path_168" data-name="Path 168" d="M15.637,714.686l0-.044v0h.061l.006.046Z" transform="translate(4.777 -704.61)" fill="#fbb231" fill-rule="evenodd"></path><path id="Path_169" data-name="Path 169" d="M14.547,714.735v.006l.007.061.016.057.03.051.036.044.044.036.051.025.055.017.059.006.059-.006.055-.017.051-.025.044-.036.036-.044.029-.051.017-.057.006-.061v-.006h-.063v.006l0,.051-.013.046-.021.04-.027.036-.033.03-.04.023-.046.015-.049,0-.048,0-.046-.015-.04-.023-.034-.03-.027-.036-.021-.04-.013-.046,0-.051v-.006Z" transform="translate(5.336 -704.659)" fill="#fbb231" fill-rule="evenodd"></path><path id="Path_170" data-name="Path 170" d="M14.942,714.735v.122h.053v-.106h.052l.063.106h.043l-.063-.106H15.1l.015,0,.013,0,.011-.009h-.2Z" transform="translate(5.133 -704.659)" fill="#fbb231" fill-rule="evenodd"></path><path id="Path_171" data-name="Path 171" d="M-6.544,706.045l-.017-.126-.03-.112-.042-.1-.053-.084-.063-.072-.069-.059-.076-.05-.082-.038-.084-.032-.086-.021-.087-.015-.086-.009-.082,0-.171.009-.151.025-.137.038-.122.053-.105.063-.093.071-.082.08-.067.084-.059.089-.049.092-.038.091-.032.09-.023.089-.017.082-.012.078-.009.067-.011.173.007.156.023.142.035.124.051.112.061.1.072.086.082.071.088.062.1.052.1.04.1.032.105.025.106.015.1.011h.295l.055,0,.049,0,.044,0,.042,0,.038-.006.036-.007.033-.008.034-.011.032-.011.031-.013.034-.013.033-.017.034-.017.084-.519-.061.036-.059.034-.061.026-.06.023-.057.019-.059.013-.057.011-.057.008-.057,0-.055,0h-.057l-.054,0-.055,0-.055-.006-.053-.006-.055-.008-.042-.009-.042-.015-.042-.019-.038-.023-.037-.025-.034-.031-.031-.032-.03-.036-.025-.036-.023-.039-.017-.039-.015-.04-.008-.04,0-.04,0-.035,0-.027H-6.6l.011-.129.032-.177.015-.161Zm-.571.194h-.769v0h0l.005-.03.008-.044.013-.042.015-.042.019-.037.019-.036.023-.034.026-.032.028-.029.027-.025.032-.023.032-.019.036-.017.036-.012.036-.009.037-.006.04,0,.038,0,.036.006.034.009.033.012.032.017.032.019.028.021.025.025.021.029.021.032.015.036.015.04.008.042,0,.047,0,.05Z" transform="translate(17.244 -699.816)" fill="#fff" fill-rule="evenodd"></path></g></g><g id="Group_230" data-name="Group 230" transform="translate(34.468 684.413)"><path id="Rectangle_233" data-name="Rectangle 233" d="M2.391,0H32.419a2.392,2.392,0,0,1,2.392,2.392V19.365a2.391,2.391,0,0,1-2.391,2.391H2.392A2.392,2.392,0,0,1,0,19.364V2.391A2.391,2.391,0,0,1,2.391,0Z" fill="#f9f9f9"></path><g id="Group_229" data-name="Group 229" transform="translate(3.725 5.781)"><path id="Path_172" data-name="Path 172" d="M214.1,700.92v-.348l-.167.348H212.49l-.18-.373v.373h-2.694l-.319-.753h-.539l-.337.753h-1.4v-2.274l1.025-2.317h1.96l.275.656v-.652h2.4l.527,1.105.516-1.11h7.569a1.292,1.292,0,0,1,.658.178v-.178h1.906v.251a1.553,1.553,0,0,1,.85-.251h3.365l.3.666v-.666h2.157l.391.666v-.666h2.062v4.6h-2.118l-.5-.8v.8h-2.632l-.37-.82h-.516l-.348.82H224.9a2.06,2.06,0,0,1-1.04-.326v.326h-3.172v-1.072c0-.156-.119-.145-.119-.145h-.115v1.217Z" transform="translate(-207.022 -696.329)" fill="#fff"></path><path id="Path_173" data-name="Path 173" d="M218.346,707.845h4.167l.6.681.615-.681h3.2a1.48,1.48,0,0,1,.587.16v-.16h2.853a1.459,1.459,0,0,1,.667.181v-.181h3.668v.167a1.241,1.241,0,0,1,.612-.167h2.39v.167a1.46,1.46,0,0,1,.619-.167H240.2v4.33a1.033,1.033,0,0,1-.757.279h-2.473v-.138a1.265,1.265,0,0,1-.593.138h-6.57v-1.12c0-.11-.049-.13-.146-.13h-.091v1.25h-2.052v-1.242a1.389,1.389,0,0,1-.608.122h-.739v1.12h-2.531l-.576-.7-.615.7h-4.106Z" transform="translate(-212.853 -702.259)" fill="#fff"></path><path id="Path_174" data-name="Path 174" d="M245.422,709.27h2.615v.7h-1.815v.611h1.764v.618h-1.764v.643h1.815v.684h-2.615Z" transform="translate(-226.794 -702.992)" fill="#147591"></path><path id="Path_175" data-name="Path 175" d="M259.4,710.547c.983.05,1.065.541,1.065,1.065a.952.952,0,0,1-1.026.939h-1.68v-.7h1.31c.222,0,.553,0,.553-.312,0-.149-.058-.244-.295-.269-.1-.015-.494-.037-.553-.038-.888-.023-1.095-.465-1.095-1a.9.9,0,0,1,.953-.945h1.68v.7h-1.23c-.279,0-.581-.033-.581.283,0,.2.148.24.338.259C258.907,710.525,259.343,710.548,259.4,710.547Z" transform="translate(-233.107 -703)" fill="#147591"></path><path id="Path_176" data-name="Path 176" d="M253.194,710.547c.983.05,1.065.541,1.065,1.065a.952.952,0,0,1-1.025.939h-1.68v-.7h1.309c.222,0,.553,0,.553-.312,0-.149-.059-.244-.295-.269-.106-.015-.495-.037-.553-.038-.888-.023-1.094-.465-1.094-1a.9.9,0,0,1,.953-.945h1.68v.7h-1.229c-.28,0-.582-.033-.582.283,0,.2.149.24.339.259C252.7,710.525,253.136,710.548,253.194,710.547Z" transform="translate(-229.911 -703)" fill="#147591"></path><path id="Path_177" data-name="Path 177" d="M227.225,709.277h-2.807l-.916,1.011-.887-1.018h-3.153v3.258h3.052l.96-1.077.939,1.084h1.534V711.43h1.076c.415,0,1.171-.015,1.171-1.156A.9.9,0,0,0,227.225,709.277Zm-5.131,2.567H220.25V711.2h1.764v-.618H220.25v-.611l1.945,0,.779.887Zm3.059.378L224,710.863l1.149-1.273Zm1.8-1.464h-1v-.782h1a.394.394,0,1,1,0,.782Z" transform="translate(-213.427 -702.992)" fill="#147591"></path><path id="Path_178" data-name="Path 178" d="M240.793,711.059a.89.89,0,0,0,.553-.9.86.86,0,0,0-.96-.872h-2.08v3.258h.8v-1.15h1.047c.276,0,.385.276.392.553l.022.6h.778l-.029-.669C241.317,711.35,241.171,711.1,240.793,711.059Zm-.691-.337h-1v-.738h1a.384.384,0,0,1,.44.375C240.546,710.576,240.429,710.722,240.1,710.722Z" transform="translate(-223.13 -703)" fill="#147591"></path><rect id="Rectangle_234" data-name="Rectangle 234" width="0.8" height="3.262" transform="translate(15.496 0.653)" fill="#147591"></rect><path id="Path_179" data-name="Path 179" d="M225.466,697.682h2.614v.7h-1.814v.611h1.763v.618h-1.763v.643h1.814v.684h-2.614Z" transform="translate(-216.519 -697.026)" fill="#147591"></path><path id="Path_180" data-name="Path 180" d="M234.323,699.456a.889.889,0,0,0,.553-.9.86.86,0,0,0-.961-.872h-2.08v3.258h.8v-1.149h1.047c.276,0,.386.276.393.553l.022.6h.778l-.029-.669C234.846,699.747,234.7,699.5,234.323,699.456Zm-.691-.337h-1v-.738h1a.384.384,0,0,1,.44.375C234.075,698.974,233.959,699.119,233.632,699.119Z" transform="translate(-219.798 -697.026)" fill="#147591"></path><path id="Path_181" data-name="Path 181" d="M214.132,697.682l-.981,2.186-.978-2.186h-1.254v3.138l-1.4-3.138h-1.058l-1.426,3.258h.844l.312-.728h1.6l.317.728h1.611v-2.419l1.069,2.419h.728l1.094-2.378v2.378h.8v-3.258ZM208.5,699.51l.477-1.139.5,1.139Z" transform="translate(-207.03 -697.026)" fill="#147591"></path><path id="Path_182" data-name="Path 182" d="M249.3,697.679v2.256l-1.349-2.256h-1.182v3.06L245.4,697.68h-1.058l-1.1,2.524s-.465,0-.512-.012c-.194-.039-.494-.176-.5-.75v-.236c0-.764.415-.82.946-.82h.494v-.708H242.63c-.364,0-1.155.277-1.181,1.616-.018.9.374,1.646,1.261,1.646h1.055l.313-.727h1.6l.316.727h1.578v-2.386l1.44,2.386H250.1v-3.261Zm-4.914,1.831.476-1.138.5,1.138Z" transform="translate(-224.748 -697.024)" fill="#147591"></path></g></g><g id="Group_231" data-name="Group 231" transform="translate(73.326 684.413)"><path id="Rectangle_235" data-name="Rectangle 235" d="M2.392,0H32.419a2.392,2.392,0,0,1,2.392,2.392V19.365a2.391,2.391,0,0,1-2.391,2.391H2.391A2.391,2.391,0,0,1,0,19.365V2.392A2.392,2.392,0,0,1,2.392,0Z" fill="#f9f9f9"></path><g id="Logo_x-large_primary-money" data-name="Logo/x-large/primary-money" transform="translate(2.527 8.623)"><g id="Logo_SubPay" data-name="Logo/SubPay"><g id="Logo_item_zip_with-divider" data-name="Logo/item/zip/with-divider"><g id="Logo_item_zip_no-divider" data-name="Logo/item/zip/no-divider" transform="translate(0 0.023)"><g id="Asset-1"><g id="Logo_icon_colour-primary" data-name="Logo/icon/colour-primary"><path id="Shape" d="M289.473,703.893l-1.01.9h-2.5a.962.962,0,0,0-.634.237l1.262-1.124.019-.017,1.581-1.409a.967.967,0,0,1,.939-.2.953.953,0,0,1,.641.706.943.943,0,0,1-.3.9Z" transform="translate(-285.002 -702.235)" fill="#f15b41"></path><ellipse id="Oval" cx="0.96" cy="0.95" rx="0.96" ry="0.95" transform="translate(0 0.001)" fill="#f99d1d"></ellipse><path id="Shape-2" data-name="Shape" d="M285.616,707.506a.962.962,0,0,0-.634.237l-.008.007a.942.942,0,0,0-.072,1.341.967.967,0,0,0,1.355.071l1.86-1.657Z" transform="translate(-284.656 -704.949)" fill="#272560"></path><path id="Shape-3" data-name="Shape" d="M289.133,707.506l-1.86,1.657a.963.963,0,0,1-.642.243h2.87a.93.93,0,0,0,.944-.95.948.948,0,0,0-.944-.95Z" transform="translate(-285.673 -704.949)" fill="#00b6bd"></path></g><g id="Logo_item_zip_text_primary" data-name="Logo/item/zip/text/primary" transform="translate(5.846 0.004)"><path id="Shape-4" data-name="Shape" d="M297,706.98a.279.279,0,0,1-.212-.086.3.3,0,0,1-.08-.212.458.458,0,0,1,.058-.227.854.854,0,0,1,.122-.172l1.185-1.325H297.04a.225.225,0,0,1-.211-.1.429.429,0,0,1-.055-.222.344.344,0,0,1,.062-.21.216.216,0,0,1,.185-.088h1.824a.282.282,0,0,1,.208.077.29.29,0,0,1,.078.216.454.454,0,0,1-.044.208.718.718,0,0,1-.112.155l-1.234,1.365h1.169a.223.223,0,0,1,.18.085.334.334,0,0,1,.065.213.421.421,0,0,1-.056.227.229.229,0,0,1-.211.1Z" transform="translate(-296.708 -703.322)" fill="#272560"></path><path id="Shape-5" data-name="Shape" d="M302.762,705.937c-.325,0-.392-.165-.392-.3v-2.018a.34.34,0,0,1,.1-.254.416.416,0,0,1,.3-.1.429.429,0,0,1,.272.078.294.294,0,0,1,.1.241v2.037a.279.279,0,0,1-.1.242A.455.455,0,0,1,302.762,705.937Zm0-2.886a.44.44,0,0,1-.309-.109.417.417,0,0,1,0-.584.429.429,0,0,1,.31-.114.49.49,0,0,1,.291.1.356.356,0,0,1,.137.307.382.382,0,0,1-.119.295.439.439,0,0,1-.309.108Z" transform="translate(-299.605 -702.244)" fill="#272560"></path><path id="Shape-6" data-name="Shape" d="M305.351,707.7c-.3,0-.368-.168-.368-.309v-2.854a.323.323,0,0,1,.1-.239.417.417,0,0,1,.3-.1.539.539,0,0,1,.245.056.243.243,0,0,1,.122.237c.016-.019.034-.038.053-.057a.891.891,0,0,1,.172-.135.934.934,0,0,1,.507-.14,1.11,1.11,0,0,1,.5.106,1.007,1.007,0,0,1,.36.295,1.291,1.291,0,0,1,.213.445,2.1,2.1,0,0,1,.07.555,1.9,1.9,0,0,1-.08.564,1.32,1.32,0,0,1-.234.447,1.08,1.08,0,0,1-.379.295,1.194,1.194,0,0,1-.511.106,1.058,1.058,0,0,1-.348-.048.969.969,0,0,1-.228-.112.617.617,0,0,1-.105-.089v.65a.307.307,0,0,1-.093.248A.446.446,0,0,1,305.351,707.7Zm.933-2.89a.492.492,0,0,0-.24.056.518.518,0,0,0-.174.159.735.735,0,0,0-.109.243,1.214,1.214,0,0,0-.037.307.954.954,0,0,0,.147.563.469.469,0,0,0,.414.2.453.453,0,0,0,.409-.211,1.013,1.013,0,0,0,.142-.555,1.23,1.23,0,0,0-.038-.307.783.783,0,0,0-.107-.243.5.5,0,0,0-.171-.158A.476.476,0,0,0,306.284,704.807Z" transform="translate(-300.969 -703.231)" fill="#272560"></path></g></g></g><g id="Logo_item_divider_colour" data-name="Logo/item/divider/colour" transform="translate(13.243)"><path id="Shape-7" data-name="Shape" d="M312.077,706.641c0,.041-.02.059-.061.059s-.061-.018-.061-.059v-4.394c0-.041.02-.058.061-.058s.061.017.061.058Z" transform="translate(-311.956 -702.188)" fill="#00b6bd"></path></g></g><g id="Logo_item_sub_money" data-name="Logo/item/sub/money" transform="translate(14.334 1.019)"><path id="money" d="M317.071,704.288a.938.938,0,0,1,.635.2.779.779,0,0,1,.233.622v1.515q0,.167-.208.166-.223,0-.224-.166v-1.387a1.178,1.178,0,0,0-.023-.243.415.415,0,0,0-.084-.183.394.394,0,0,0-.165-.114.75.75,0,0,0-.267-.04.6.6,0,0,0-.33.086.633.633,0,0,0-.208.219.985.985,0,0,0-.109.3,1.706,1.706,0,0,0-.033.329v1.034q0,.167-.208.166c-.149,0-.224-.055-.224-.166v-1.387a1.212,1.212,0,0,0-.023-.243.421.421,0,0,0-.084-.183.4.4,0,0,0-.165-.114.749.749,0,0,0-.266-.04.582.582,0,0,0-.538.3.989.989,0,0,0-.11.3,1.711,1.711,0,0,0-.033.329V706.6a.171.171,0,0,1-.058.15.275.275,0,0,1-.16.04.264.264,0,0,1-.158-.04.176.176,0,0,1-.056-.15v-2.087a.17.17,0,0,1,.051-.143.254.254,0,0,1,.152-.038.267.267,0,0,1,.155.038.166.166,0,0,1,.053.143v.224a.517.517,0,0,1,.04-.086.585.585,0,0,1,.132-.157.889.889,0,0,1,.246-.146,1.025,1.025,0,0,1,.389-.064.979.979,0,0,1,.505.116.676.676,0,0,1,.282.317.78.78,0,0,1,.33-.315A1.109,1.109,0,0,1,317.071,704.288Zm1.961,1.272a1.046,1.046,0,0,0,.2.682.812.812,0,0,0,1.168,0,1.043,1.043,0,0,0,.2-.682,1.023,1.023,0,0,0-.2-.677.824.824,0,0,0-1.168,0A1.025,1.025,0,0,0,319.032,705.56Zm-.457,0a1.5,1.5,0,0,1,.089-.536,1.078,1.078,0,0,1,.648-.651,1.553,1.553,0,0,1,1.016,0,1.1,1.1,0,0,1,.394.25,1.114,1.114,0,0,1,.254.4,1.515,1.515,0,0,1,.089.536,1.533,1.533,0,0,1-.089.538,1.106,1.106,0,0,1-.254.4,1.124,1.124,0,0,1-.394.253,1.5,1.5,0,0,1-1.016,0,1.124,1.124,0,0,1-.394-.253,1.1,1.1,0,0,1-.254-.4A1.522,1.522,0,0,1,318.575,705.56Zm3.556,1.043a.171.171,0,0,1-.058.15.277.277,0,0,1-.16.04.264.264,0,0,1-.158-.04.174.174,0,0,1-.056-.15v-2.087a.17.17,0,0,1,.051-.143.252.252,0,0,1,.152-.038.266.266,0,0,1,.155.038.166.166,0,0,1,.053.143v.224a.82.82,0,0,1,.193-.224,1.072,1.072,0,0,1,.267-.157,1.047,1.047,0,0,1,.414-.071.976.976,0,0,1,.651.21.794.794,0,0,1,.249.643v1.487q0,.167-.208.166c-.149,0-.224-.055-.224-.166v-1.387a.65.65,0,0,0-.125-.429.565.565,0,0,0-.45-.147.658.658,0,0,0-.34.083.693.693,0,0,0-.231.216.985.985,0,0,0-.132.3,1.29,1.29,0,0,0-.043.326Zm3.612-1.967a.8.8,0,0,0-.31.055.663.663,0,0,0-.224.147.688.688,0,0,0-.145.219.931.931,0,0,0-.069.264h1.479a1.07,1.07,0,0,0-.064-.26.647.647,0,0,0-.137-.219.663.663,0,0,0-.221-.15A.773.773,0,0,0,325.743,704.636Zm1.168.872q0,.172-.208.172h-1.727a.815.815,0,0,0,.206.6.777.777,0,0,0,.582.21.825.825,0,0,0,.256-.036.766.766,0,0,0,.186-.086.653.653,0,0,0,.124-.1c.033-.035.059-.065.079-.09a.327.327,0,0,1,.068-.072.171.171,0,0,1,.1-.024.26.26,0,0,1,.14.043.13.13,0,0,1,.069.114.286.286,0,0,1-.056.148,1.238,1.238,0,0,1-.119.145.93.93,0,0,1-.188.15,1.11,1.11,0,0,1-.277.119,1.348,1.348,0,0,1-.381.048,1.368,1.368,0,0,1-.516-.093,1.117,1.117,0,0,1-.394-.262,1.152,1.152,0,0,1-.249-.405,1.6,1.6,0,0,1,0-1.037,1.176,1.176,0,0,1,.246-.4,1.1,1.1,0,0,1,.386-.262,1.314,1.314,0,0,1,.505-.093,1.27,1.27,0,0,1,.5.093,1.015,1.015,0,0,1,.366.258,1.1,1.1,0,0,1,.224.388A1.482,1.482,0,0,1,326.911,705.508Zm1.275,2.14a.33.33,0,0,1-.076.1.19.19,0,0,1-.122.033.238.238,0,0,1-.147-.046.148.148,0,0,1-.061-.126.249.249,0,0,1,.008-.057.335.335,0,0,1,.033-.081l.371-.781-.889-2.011c-.014-.032-.027-.061-.041-.088a.172.172,0,0,1-.02-.079.145.145,0,0,1,.079-.129.336.336,0,0,1,.176-.048.184.184,0,0,1,.173.133l.757,1.744.8-1.754a.259.259,0,0,1,.066-.1.152.152,0,0,1,.1-.029.336.336,0,0,1,.168.043.135.135,0,0,1,.076.124.182.182,0,0,1-.018.074c-.012.027-.024.055-.038.083Z" transform="translate(-314.206 -704.288)" fill="#272560"></path></g></g></g></g></g></svg> 