<?xml version="1.0" encoding="UTF-8"?> <svg xmlns="http://www.w3.org/2000/svg" id="Component_12_65" data-name="Component 12 – 65" width="16.101" height="19.185" viewBox="0 0 16.101 19.185"><path id="Path_97" data-name="Path 97" d="M323.281,463.432v9a1.051,1.051,0,0,1-.521.911l-7,4.042a1.046,1.046,0,0,1-1.049,0l-7.135-4.121a.784.784,0,0,1-.391-.678v-9.156a1.052,1.052,0,0,1,.528-.906l7-4.042a1.046,1.046,0,0,1,1.049,0l7,4.042A1.049,1.049,0,0,1,323.281,463.432Z" transform="translate(-307.18 -458.343)" fill="#003da8"></path><path id="Path_98" data-name="Path 98" d="M328.434,497.372l-2.37-2.169-1.349,1.474,3.781,3.459,6.479-6.479-1.412-1.412Z" transform="translate(-321.794 -486.598)" fill="#fff"></path></svg> 