<?xml version="1.0" encoding="UTF-8"?> <svg xmlns="http://www.w3.org/2000/svg" xmlns:xlink="http://www.w3.org/1999/xlink" width="62.695" height="62.695" viewBox="0 0 62.695 62.695"><defs><clipPath id="clip-path"><rect id="Rectangle_336" data-name="Rectangle 336" width="62.695" height="62.695" transform="translate(0 0)" fill="none"></rect></clipPath><clipPath id="clip-path-2"><rect id="Rectangle_340" data-name="Rectangle 340" width="27.365" height="27.365" fill="none"></rect></clipPath></defs><g id="Group_471" data-name="Group 471" transform="translate(-329 -12036)"><g id="Group_420" data-name="Group 420" transform="translate(329 12036)"><g id="Group_419" data-name="Group 419" clip-path="url(#clip-path)"><path id="Path_1430" data-name="Path 1430" d="M54.951,61.695H7.744C4.035,61.695,1,59.094,1,55.914V6.78C1,3.6,4.035,1,7.744,1H54.951c3.709,0,6.744,2.6,6.744,5.78V55.914C61.695,59.094,58.66,61.695,54.951,61.695Z" fill="none" stroke="#003da8" stroke-width="2"></path><line id="Line_56" data-name="Line 56" x1="8.846" y1="9.656" transform="translate(44.618 46.521)" fill="none" stroke="#f05e00" stroke-linecap="round" stroke-width="2"></line><line id="Line_57" data-name="Line 57" x2="8.846" y2="8.474" transform="translate(9.232 6.518)" fill="none" stroke="#f05e00" stroke-linecap="round" stroke-width="2"></line><path id="Path_1431" data-name="Path 1431" d="M47.566,56.177h5.9V50.659" fill="none" stroke="#f05e00" stroke-linecap="round" stroke-width="2"></path><path id="Path_1432" data-name="Path 1432" d="M15.129,6.518h-5.9v5.518" fill="none" stroke="#f05e00" stroke-linecap="round" stroke-width="2"></path></g></g><g id="Group_426" data-name="Group 426" transform="translate(346.389 12053.389)"><g id="Group_425" data-name="Group 425" clip-path="url(#clip-path-2)"><path id="Path_1440" data-name="Path 1440" d="M0,13.682A13.682,13.682,0,1,1,13.682,27.365,13.682,13.682,0,0,1,0,13.682" fill="#d8e1f2"></path></g></g></g></svg> 