<?xml version="1.0" encoding="UTF-8"?> <svg xmlns="http://www.w3.org/2000/svg" xmlns:xlink="http://www.w3.org/1999/xlink" id="Group_422" data-name="Group 422" width="62.695" height="62.695" viewBox="0 0 62.695 62.695"><defs><clipPath id="clip-path"><rect id="Rectangle_338" data-name="Rectangle 338" width="62.695" height="62.695" transform="translate(0 0)" fill="none"></rect></clipPath></defs><g id="Group_421" data-name="Group 421" clip-path="url(#clip-path)"><path id="Path_1433" data-name="Path 1433" d="M54.951,61.695H7.744C4.035,61.695,1,59.094,1,55.914V6.78C1,3.6,4.035,1,7.744,1H54.951c3.709,0,6.744,2.6,6.744,5.78V55.914C61.695,59.094,58.66,61.695,54.951,61.695Z" fill="none" stroke="#003da8" stroke-width="2"></path><path id="Path_1434" data-name="Path 1434" d="M14.276,31.348A17.071,17.071,0,1,1,31.347,48.419,17.071,17.071,0,0,1,14.276,31.348" fill="#d8e1f2"></path><path id="Path_1435" data-name="Path 1435" d="M38.419,33.483H33.594v4.936H29.1V33.483H24.276V29.24H29.1V24.277h4.493V29.24h4.825Z" fill="#f05e00"></path></g></svg> 