<?xml version="1.0" encoding="UTF-8"?> <svg xmlns="http://www.w3.org/2000/svg" xmlns:xlink="http://www.w3.org/1999/xlink" id="Group_416" data-name="Group 416" width="62.695" height="62.695" viewBox="0 0 62.695 62.695"><defs><clipPath id="clip-path"><rect id="Rectangle_333" data-name="Rectangle 333" width="62.695" height="62.695" transform="translate(0 0)" fill="none"></rect></clipPath></defs><g id="Group_415" data-name="Group 415" clip-path="url(#clip-path)"><path id="Path_1417" data-name="Path 1417" d="M54.951,61.695H7.744C4.035,61.695,1,59.094,1,55.914V6.78C1,3.6,4.035,1,7.744,1H54.951c3.709,0,6.744,2.6,6.744,5.78V55.914C61.695,59.094,58.66,61.695,54.951,61.695Z" fill="none" stroke="#003da8" stroke-width="2"></path><path id="Path_1418" data-name="Path 1418" d="M31.347,13.419A17.926,17.926,0,0,0,20.094,17.4l-.007-3.53a.45.45,0,0,0-.45-.447h0a.449.449,0,0,0-.447.449l.01,4.484a.447.447,0,0,0,.447.447l4.467.01h0a.448.448,0,1,0,0-.9l-3.228-.007A17.034,17.034,0,0,1,45.471,40.871a.448.448,0,1,0,.743.5A17.93,17.93,0,0,0,31.347,13.419" fill="#003da8"></path><path id="Path_1419" data-name="Path 1419" d="M31.347,13.419A17.926,17.926,0,0,0,20.094,17.4l-.007-3.53a.45.45,0,0,0-.45-.447h0a.449.449,0,0,0-.447.449l.01,4.484a.447.447,0,0,0,.447.447l4.467.01h0a.448.448,0,1,0,0-.9l-3.228-.007A17.034,17.034,0,0,1,45.471,40.871a.448.448,0,1,0,.743.5A17.93,17.93,0,0,0,31.347,13.419Z" fill="none" stroke="#003da8" stroke-width="0.6"></path><path id="Path_1420" data-name="Path 1420" d="M31.347,49.276a17.905,17.905,0,0,0,11.227-3.951l.007,3.5a.448.448,0,0,0,.448.447h0a.447.447,0,0,0,.447-.449l-.009-4.494a.447.447,0,0,0-.447-.447H38.553a.448.448,0,1,0,0,.9H41.81A17.032,17.032,0,0,1,17.223,21.824a.448.448,0,1,0-.743-.5A17.931,17.931,0,0,0,31.347,49.276" fill="#003da8"></path><path id="Path_1421" data-name="Path 1421" d="M31.347,49.276a17.905,17.905,0,0,0,11.227-3.951l.007,3.5a.448.448,0,0,0,.448.447h0a.447.447,0,0,0,.447-.449l-.009-4.494a.447.447,0,0,0-.447-.447H38.553a.448.448,0,1,0,0,.9H41.81A17.032,17.032,0,0,1,17.223,21.824a.448.448,0,1,0-.743-.5A17.931,17.931,0,0,0,31.347,49.276Z" fill="none" stroke="#003da8" stroke-width="0.6"></path><path id="Path_1422" data-name="Path 1422" d="M38.528,28.344h-4.52v-4.18a2.066,2.066,0,0,0-2.06-2.07h-7.78a2.068,2.068,0,0,0-2.07,2.07v5.61a2.068,2.068,0,0,0,2.07,2.07h.33l.01,2.06a.445.445,0,0,0,.25.4.492.492,0,0,0,.2.05.478.478,0,0,0,.28-.1l2.99-2.41h.46v4.18a2.066,2.066,0,0,0,2.06,2.07h3.72l2.99,2.41a.478.478,0,0,0,.28.1.492.492,0,0,0,.2-.05.445.445,0,0,0,.25-.4l.01-2.06h.33a2.068,2.068,0,0,0,2.07-2.07v-5.61a2.068,2.068,0,0,0-2.07-2.07m-10.46,2.6a.478.478,0,0,0-.28.1l-2.39,1.93v-1.58a.448.448,0,0,0-.45-.45h-.78a1.174,1.174,0,0,1-1.18-1.17v-5.61a1.174,1.174,0,0,1,1.18-1.17h7.78a1.171,1.171,0,0,1,1.17,1.17v5.61a1.171,1.171,0,0,1-1.17,1.17Zm11.64,5.08a1.18,1.18,0,0,1-1.18,1.17h-.78a.448.448,0,0,0-.45.45v1.57l-2.39-1.92a.478.478,0,0,0-.28-.1h-3.88a1.178,1.178,0,0,1-1.17-1.17v-4.18h2.37a2.066,2.066,0,0,0,2.06-2.07v-.54h4.52a1.182,1.182,0,0,1,1.18,1.18Z" fill="#f05e00"></path><path id="Path_1423" data-name="Path 1423" d="M39.708,30.414v5.61a1.18,1.18,0,0,1-1.18,1.17h-.78a.448.448,0,0,0-.45.45v1.57l-2.39-1.92a.478.478,0,0,0-.28-.1h-3.88a1.178,1.178,0,0,1-1.17-1.17v-4.18h2.37a2.066,2.066,0,0,0,2.06-2.07v-.54h4.52a1.182,1.182,0,0,1,1.18,1.18" fill="#d8e1f2"></path><path id="Path_1424" data-name="Path 1424" d="M33.118,24.164v5.61a1.172,1.172,0,0,1-1.17,1.17H28.067a.475.475,0,0,0-.279.1L25.4,32.974v-1.58a.447.447,0,0,0-.449-.45h-.781a1.174,1.174,0,0,1-1.18-1.17v-5.61a1.174,1.174,0,0,1,1.18-1.17h7.781a1.172,1.172,0,0,1,1.17,1.17" fill="#d8e1f2"></path></g></svg> 