<?xml version="1.0" encoding="UTF-8"?> <svg xmlns="http://www.w3.org/2000/svg" xmlns:xlink="http://www.w3.org/1999/xlink" id="Group_436" data-name="Group 436" width="62.695" height="62.695" viewBox="0 0 62.695 62.695"><defs><clipPath id="clip-path"><rect id="Rectangle_355" data-name="Rectangle 355" width="62.695" height="62.695" transform="translate(0 0)" fill="none"></rect></clipPath></defs><g id="Group_435" data-name="Group 435" clip-path="url(#clip-path)"><path id="Path_1464" data-name="Path 1464" d="M16.725,31.348A14.623,14.623,0,1,1,31.348,45.971,14.623,14.623,0,0,1,16.725,31.348" fill="#d8e1f2"></path><path id="Path_1465" data-name="Path 1465" d="M54.951,61.695H7.744C4.035,61.695,1,59.094,1,55.914V6.78C1,3.6,4.035,1,7.744,1H54.951c3.709,0,6.744,2.6,6.744,5.78V55.914C61.695,59.094,58.66,61.695,54.951,61.695Z" fill="none" stroke="#003da8" stroke-width="2"></path><rect id="Rectangle_345" data-name="Rectangle 345" width="2.218" height="6.615" transform="translate(14.709 28.047)" fill="#003da8"></rect><rect id="Rectangle_346" data-name="Rectangle 346" width="2.218" height="6.615" transform="translate(45.767 28.047)" fill="#003da8"></rect><rect id="Rectangle_347" data-name="Rectangle 347" width="2.218" height="6.615" transform="translate(36.894 28.047)" fill="#003da8"></rect><rect id="Rectangle_348" data-name="Rectangle 348" width="2.218" height="6.615" transform="translate(28.02 28.047)" fill="#003da8"></rect><rect id="Rectangle_349" data-name="Rectangle 349" width="2.218" height="13.223" transform="translate(19.146 24.739)" fill="#003da8"></rect><rect id="Rectangle_350" data-name="Rectangle 350" width="2.218" height="13.223" transform="translate(32.457 24.739)" fill="#003da8"></rect><rect id="Rectangle_351" data-name="Rectangle 351" width="2.218" height="19.832" transform="translate(41.398 21.432)" fill="#f05e00"></rect><rect id="Rectangle_352" data-name="Rectangle 352" width="2.218" height="26.447" transform="translate(23.59 18.124)" fill="#003da8"></rect><rect id="Rectangle_353" data-name="Rectangle 353" width="2.218" height="2.205" transform="translate(10.272 30.252)" fill="#003da8"></rect><rect id="Rectangle_354" data-name="Rectangle 354" width="2.218" height="2.205" transform="translate(50.204 30.252)" fill="#003da8"></rect></g></svg> 