<?xml version="1.0" encoding="UTF-8"?> <svg xmlns="http://www.w3.org/2000/svg" width="452.696" height="70" viewBox="0 0 452.696 70"><g id="Group_378" data-name="Group 378" transform="translate(-671.687 -6353.879)"><g id="Group_377" data-name="Group 377" transform="translate(672 6354)"><path id="Path_1395" data-name="Path 1395" d="M-1815.244-458.88a34.9,34.9,0,0,0-34.9,34.9,34.9,34.9,0,0,0,34.9,34.9,34.9,34.9,0,0,0,34.9-34.9A34.9,34.9,0,0,0-1815.244-458.88Zm0,57.642A22.746,22.746,0,0,1-1838-423.984a22.746,22.746,0,0,1,22.746-22.746,22.746,22.746,0,0,1,22.746,22.746,22.746,22.746,0,0,1-22.727,22.765Z" transform="translate(2046.819 458.88)" fill="#fff"></path><circle id="Ellipse_16" data-name="Ellipse 16" cx="22.746" cy="22.746" r="22.746" transform="translate(201.873 47.211) rotate(-67.5)" fill="#db0909"></circle><circle id="Ellipse_17" data-name="Ellipse 17" cx="35" cy="35" r="35" transform="translate(-0.313 -0.121)" fill="#fff"></circle><path id="Path_1396" data-name="Path 1396" d="M-2124.667-458.88a34.724,34.724,0,0,1,17.651,4.8h-22.5v-4.441A34.965,34.965,0,0,1-2124.667-458.88Zm-4.854,37.63h39.629c.076-.9.12-1.815.12-2.735s-.044-1.834-.12-2.741h-39.629Zm0-21.889h34.021a35.143,35.143,0,0,0-4.441-5.469h-29.579Zm0,10.957h38.773a34.427,34.427,0,0,0-1.815-5.495h-36.958Zm4.854,43.093a34.788,34.788,0,0,0,17.651-4.8h-35.3a34.769,34.769,0,0,0,17.651,4.8Zm-32.111-21.21h64.215a34.825,34.825,0,0,0,1.808-5.475h-67.825a34.178,34.178,0,0,0,1.8,5.475Zm7.385,10.932h49.45a35.144,35.144,0,0,0,4.441-5.469h-58.333a34.792,34.792,0,0,0,4.441,5.469Z" transform="translate(2159.563 458.88)" fill="#c64252"></path><path id="Path_1397" data-name="Path 1397" d="M-2151.77-446.425a34.707,34.707,0,0,0-5.228,8.21l.375,1.167h1.6l-1.269.933.489,1.516-1.269-.945-1.269.945.032-.108a34.653,34.653,0,0,0-1.707,9.149v.4c0,.45-.032.907-.032,1.37,0,.92.044,1.834.114,2.735h29.928V-458.34a34.793,34.793,0,0,0-4.41.907l.394,1.225h1.593l-1.269.926.5,1.529-1.269-.945-1.269.933.5-1.516-1.269-.926h1.6l.374-1.167a34.536,34.536,0,0,0-7.74,3.236l-.229.127a35.665,35.665,0,0,0-4.48,3.077l-.495.412a34.9,34.9,0,0,0-3.883,3.807m-4.308,19.789-1.269-.945-1.269.926.482-1.51-1.269-.933h1.586l.5-1.516.489,1.516h1.6l-1.269.933Zm4.518,3.807-1.269-.933-1.269.933.5-1.529-1.269-.933h1.58l.5-1.5.489,1.51h1.6l-1.269.933Zm-.5-9.174.5,1.5-1.269-.933-1.269.933.5-1.516-1.269-.933h1.58l.5-1.51.489,1.529h1.6Zm0-7.671.5,1.529-1.269-.945-1.269.933.5-1.516-1.269-.926h1.58l.5-1.516.489,1.516h1.6Zm5,13.026-1.269-.945-1.269.926.489-1.51-1.269-.933h1.612l.476-1.516.5,1.516h1.58l-1.269.933Zm-.482-9.187.482,1.516-1.269-.945-1.269.945.489-1.529-1.269-.933h1.612l.476-1.5.5,1.516h1.58Zm0-7.671.482,1.529-1.269-.945-1.269.926.489-1.51-1.269-.933h1.612l.476-1.516.5,1.516h1.58Zm4.987,20.677-1.269-.933-1.269.933.489-1.529-1.269-.933h1.586l.482-1.5.5,1.51h1.586l-1.269.933Zm-.489-9.174.489,1.5-1.269-.933-1.269.933.489-1.516-1.269-.933h1.586l.482-1.51.5,1.529h1.586Zm0-7.671.489,1.529-1.269-.945-1.269.933.489-1.516-1.269-.926h1.586l.482-1.516.5,1.516h1.586Zm0-7.658.489,1.516-1.269-.945-1.269.945.489-1.529-1.269-.933h1.586l.482-1.51.5,1.529h1.586Zm4.993,20.684-1.269-.945-1.269.926.482-1.51-1.269-.933h1.58l.5-1.516.489,1.516h1.6l-1.269.933Zm-.489-9.187.489,1.516-1.269-.945-1.269.945.482-1.529-1.269-.933h1.58l.5-1.5.489,1.516h1.6Zm0-7.671.489,1.529-1.269-.945-1.269.926.482-1.51-1.269-.933h1.58l.5-1.516.489,1.516h1.6Zm0-7.658.489,1.516-1.269-.933-1.269.933.482-1.516-1.269-.933h1.58l.5-1.516.489,1.516h1.6Zm5.006,28.335-1.269-.933-1.269.933.5-1.529-1.269-.933h1.6l.489-1.5.489,1.51h1.593l-1.269.933Zm-.5-9.174.5,1.5-1.269-.933-1.269.933.5-1.516-1.269-.933h1.6l.489-1.51.489,1.529h1.593Zm0-7.671.5,1.529-1.269-.945-1.269.933.5-1.516-1.269-.926h1.6l.489-1.516.489,1.516h1.593Zm0-7.658.5,1.516-1.269-.945-1.269.945.5-1.529-1.269-.933h1.6l.489-1.51.489,1.529h1.593Z" transform="translate(2160.101 458.683)" fill="#2b497a"></path><path id="Path_1398" data-name="Path 1398" d="M-1974.234-389.088a34.9,34.9,0,0,0,34.9-34.9,34.9,34.9,0,0,0-34.9-34.9,34.9,34.9,0,0,0-34.9,34.9,34.9,34.9,0,0,0,34.9,34.9" transform="translate(2104.935 458.88)" fill="#d83225"></path><path id="Path_1399" data-name="Path 1399" d="M-1981.356-430.437l-5.488,3.775,1.967,5.9-5.279-3.623-5.279,3.623,1.973-5.9-5.488-3.775h6.744l2.049-6.154,2.056,6.154Zm6.979-8.883-1.352,1.573-2.024-.92,1.161,1.9-1.415,1.643,2.113-.47,1.161,1.9.133-2.214,2.03-.444-1.941-.888Zm3.94,9.358.317,2.221.99-1.986,2.043.374-1.447-1.573.945-1.9-1.853.926-1.5-1.637.317,2.227-1.9.964Zm1.9,8.331,1.643-1.358-2.068.089-.71-2.106-.635,2.164-2.164.1,1.789,1.218-.634,2.164,1.713-1.415,1.713,1.174Zm-5.977,4.923.165-2.208-1.409,1.751-2.03-.749,1.18,1.821-1.408,1.751,2.125-.634,1.123,1.745.158-2.132,2.043-.634Z" transform="translate(2101.214 451.73)" fill="#eac81f"></path><path id="Path_1400" data-name="Path 1400" d="M-1673.017-458.88a34.9,34.9,0,0,0-32.783,22.9h65.56A34.9,34.9,0,0,0-1673.017-458.88Z" transform="translate(1994.058 458.88)" fill="#fff"></path><path id="Path_1401" data-name="Path 1401" d="M-1709.13-410.792a34.893,34.893,0,0,0,2.113,11.992h65.56a34.771,34.771,0,0,0,2.119-11.992,34.81,34.81,0,0,0-2.119-12h-65.56A34.958,34.958,0,0,0-1709.13-410.792Z" transform="translate(1995.276 445.688)" fill="#0547af"></path><path id="Path_1402" data-name="Path 1402" d="M-1673.017-362.079a34.9,34.9,0,0,0,32.779-22.91l-65.562.006A34.9,34.9,0,0,0-1673.017-362.079Z" transform="translate(1994.058 431.871)" fill="#d82e25"></path><circle id="Ellipse_18" data-name="Ellipse 18" cx="34.896" cy="34.896" r="34.896" transform="translate(382.591 0.057)" fill="#fff"></circle><path id="Path_1403" data-name="Path 1403" d="M-1555.035-410.57q-.482,1.523-.825,3.109l4.3-3.109Z" transform="translate(1939.251 441.221)" fill="#006"></path><path id="Path_1404" data-name="Path 1404" d="M-1504.99-458.7a35.011,35.011,0,0,0-3.578-.178,34.787,34.787,0,0,0-11.141,1.827v9Z" transform="translate(1926.037 458.88)" fill="#006"></path><path id="Path_1405" data-name="Path 1405" d="M-1535.046-449.25a35.365,35.365,0,0,0-3.134,2.436l3.134,2.271Z" transform="translate(1932.788 455.36)" fill="#006"></path><path id="Path_1406" data-name="Path 1406" d="M-1523.315-446.094h11.389v12.423h-11.389l11.389,8.248v4.168h-5.78l-15.7-11.351v11.351h-8.584v-11.357l-15.132,10.945a34.9,34.9,0,0,0,34.858,33.481,34.9,34.9,0,0,0,34.9-34.9,35.108,35.108,0,0,0-1.618-10.545h0l-1.96,2.043.387-2.8-2.83-.235,2.443-1.459-1.567-2.354,1.954.736a34.972,34.972,0,0,0-21.363-18.71v2.1Zm-1.954,46.614.895,6.465-4.486-4.72-4.479,4.72.888-6.465-6.5-.565,5.615-3.318-3.623-5.437,6.11,2.309,1.992-6.211,2.011,6.211,6.11-2.309-3.623,5.437,5.6,3.318Zm17.01-21.908,2.652,1,.863-2.7.875,2.7,2.652-1-1.58,2.354,2.443,1.447-2.83.254.406,2.811-1.967-2.068-1.9,2.068.368-2.811-2.83-.241,2.443-1.459Z" transform="translate(1939.711 457.977)" fill="#030375"></path><path id="Path_1407" data-name="Path 1407" d="M-1529.094-446.773h-3.851l15.9-11.5c1.021.152,2.024.355,3.02.6Zm-6.034,2.487V-456.2a35.228,35.228,0,0,0-5.12,2.538v9.377h-10.221a35.047,35.047,0,0,0-4.137,7.442h14.358v14.9h5.12v-14.91h23.19v-7.442Zm-12.467-3.452c-.3.317-.59.634-.876.964h2.2Zm-9.428,21.16c-.076.933-.127,1.865-.127,2.817v.051l14.72-10.64h-3.839Zm27.917-7.772,17.131,12.4v-2.773l-13.324-9.631Z" transform="translate(1939.722 458.657)" fill="#d80909"></path></g></g></svg> 