<?xml version="1.0" encoding="UTF-8"?> <svg xmlns="http://www.w3.org/2000/svg" width="29.374" height="35" viewBox="0 0 29.374 35"><g id="Group_155" data-name="Group 155" transform="translate(18.172 -545.435)"><path id="Path_124" data-name="Path 124" d="M11.2,554.72v16.421a1.92,1.92,0,0,1-.951,1.662l-12.777,7.374a1.906,1.906,0,0,1-1.915,0l-13.017-7.517a1.429,1.429,0,0,1-.714-1.237v-16.7a1.921,1.921,0,0,1,.963-1.653l12.768-7.374a1.906,1.906,0,0,1,1.915,0l12.777,7.374A1.916,1.916,0,0,1,11.2,554.72Z" fill="#003da8"></path><g id="Group_154" data-name="Group 154"><path id="Path_125" data-name="Path 125" d="M-7.664,567.057q1.869-1.547,2.948-2.538a12.224,12.224,0,0,0,1.823-2.08,3.762,3.762,0,0,0,.744-2.119,1.864,1.864,0,0,0-.363-1.221A1.326,1.326,0,0,0-3.6,558.66a1.344,1.344,0,0,0-1.136.544,2.506,2.506,0,0,0-.41,1.536H-8.294a5.411,5.411,0,0,1,.7-2.71,4.05,4.05,0,0,1,1.737-1.6,5.49,5.49,0,0,1,2.395-.515A4.626,4.626,0,0,1-.04,557.076a4.126,4.126,0,0,1,1.154,3.034A5.952,5.952,0,0,1-.279,563.9,20.552,20.552,0,0,1-3.828,567.3H1.324v2.653h-9.58v-2.424Q-7.608,567.019-7.664,567.057Z" fill="#fff"></path></g></g></svg> 