<?xml version="1.0" encoding="UTF-8"?> <svg xmlns="http://www.w3.org/2000/svg" width="120.081" height="33.298" viewBox="0 0 120.081 33.298"><g id="Group_94" data-name="Group 94" transform="translate(-267.495 -137.771)"><path id="Path_86" data-name="Path 86" d="M393.931,169.526a5.651,5.651,0,0,1,2.158,2.358,8.67,8.67,0,0,1,0,7.2,5.664,5.664,0,0,1-2.158,2.345,6.014,6.014,0,0,1-3.135.818,5.4,5.4,0,0,1-3.267-.974,4.989,4.989,0,0,1-1.239-1.285.329.329,0,0,0-.606.18v1.578a.332.332,0,0,1-.332.332h-1.53a.332.332,0,0,1-.332-.332V164.614a.332.332,0,0,1,.332-.332h1.53a.332.332,0,0,1,.332.332v6.173a.33.33,0,0,0,.606.18,4.989,4.989,0,0,1,1.239-1.285,5.4,5.4,0,0,1,3.267-.974A6.017,6.017,0,0,1,393.931,169.526Zm-6.077,1.72a4.071,4.071,0,0,0-1.616,1.7,5.424,5.424,0,0,0-.579,2.55,5.352,5.352,0,0,0,.579,2.538,4.163,4.163,0,0,0,1.616,1.7,4.528,4.528,0,0,0,2.315.6,4.286,4.286,0,0,0,3.268-1.287,5.778,5.778,0,0,0,0-7.1,4.286,4.286,0,0,0-3.268-1.287A4.6,4.6,0,0,0,387.854,171.246Z" transform="translate(-82.461 -18.847)" fill="#3a3a3a"></path><path id="Path_87" data-name="Path 87" d="M447.109,180.41a5.865,5.865,0,0,1,2.363,2.358,8,8,0,0,1,0,7.2,5.881,5.881,0,0,1-2.363,2.345,7.529,7.529,0,0,1-6.824,0,5.958,5.958,0,0,1-2.375-2.345,7.907,7.907,0,0,1,0-7.2,5.941,5.941,0,0,1,2.375-2.358,7.527,7.527,0,0,1,6.824,0Zm-5.595,1.636a3.986,3.986,0,0,0-1.616,1.624,5.462,5.462,0,0,0-.615,2.706,5.407,5.407,0,0,0,.615,2.682,3.982,3.982,0,0,0,1.616,1.624,4.764,4.764,0,0,0,4.365,0,3.982,3.982,0,0,0,1.616-1.624,5.4,5.4,0,0,0,.615-2.682,5.456,5.456,0,0,0-.615-2.706,3.986,3.986,0,0,0-1.616-1.624,4.764,4.764,0,0,0-4.365,0Z" transform="translate(-120.531 -29.731)" fill="#3a3a3a"></path><path id="Path_88" data-name="Path 88" d="M495.568,183.684v1.26a.332.332,0,0,1-.332.332h-1.308a4.215,4.215,0,0,1-3.026-.962,4.337,4.337,0,0,1-1-3.223V174.3a.332.332,0,0,0-.332-.332h-1.314a.332.332,0,0,1-.332-.332V172.4a.332.332,0,0,1,.332-.332h1.314a.332.332,0,0,0,.332-.332v-2.632a.332.332,0,0,1,.332-.332h1.555a.332.332,0,0,1,.332.332v2.632a.332.332,0,0,0,.332.332h2.76a.332.332,0,0,1,.332.332v1.237a.332.332,0,0,1-.332.332h-2.76a.332.332,0,0,0-.332.332v6.837a2.466,2.466,0,0,0,.47,1.744,2.269,2.269,0,0,0,1.628.469h1.018A.332.332,0,0,1,495.568,183.684Z" transform="translate(-156.703 -22.041)" fill="#3a3a3a"></path><path id="Path_89" data-name="Path 89" d="M294.535,145.031l-12.157-7.016a1.816,1.816,0,0,0-1.82,0l-12.149,7.016a1.825,1.825,0,0,0-.914,1.573V162.5a1.359,1.359,0,0,0,.679,1.177l12.384,7.152a1.816,1.816,0,0,0,1.82,0l12.157-7.016a1.822,1.822,0,0,0,.906-1.581V146.6A1.818,1.818,0,0,0,294.535,145.031Zm-4.124,15.113a.414.414,0,0,1-.2.35l-4.013,2.312a.378.378,0,0,1-.2.055h-6.722v-3.7a.47.47,0,0,1,.469-.469h5.379a.47.47,0,0,0,.469-.469v-1.716h-8.248v5.951a.4.4,0,0,1-.6.35l-4.013-2.312a.414.414,0,0,1-.2-.35v-11.45a.414.414,0,0,1,.2-.35l4.013-2.312a.4.4,0,0,1,.6.35v5.546a.407.407,0,0,0,.405.405l7.43.008a1.535,1.535,0,0,1,.771.207L290.212,155a.413.413,0,0,1,.2.35Zm0-7.175a.4.4,0,0,1-.6.35l-4.013-2.312a.4.4,0,0,1-.2-.35v-4.275a.4.4,0,0,1,.6-.35l4,2.312a.414.414,0,0,1,.206.35Z" fill="#003da8"></path><g id="Group_93" data-name="Group 93" transform="translate(342.001 146.734)"><path id="Path_90" data-name="Path 90" d="M539.288,169.211v15.411a.436.436,0,0,1-.436.435h-3.09a.436.436,0,0,1-.436-.435V178.7a.436.436,0,0,0-.436-.436h-5.3a.436.436,0,0,0-.436.436v5.922a.435.435,0,0,1-.436.435h-3.067a.436.436,0,0,1-.436-.435V169.211a.436.436,0,0,1,.436-.436h3.067a.436.436,0,0,1,.436.436v5.439a.436.436,0,0,0,.436.436h5.3a.436.436,0,0,0,.436-.436v-5.439a.436.436,0,0,1,.436-.436h3.09A.436.436,0,0,1,539.288,169.211Z" transform="translate(-525.217 -168.775)" fill="#3a3a3a"></path><path id="Path_91" data-name="Path 91" d="M586.05,168.775a.436.436,0,0,1,.436.436v8.961a3.7,3.7,0,0,0,.725,2.464,3.032,3.032,0,0,0,4.214,0,3.7,3.7,0,0,0,.725-2.464v-8.961a.436.436,0,0,1,.436-.436h3.067a.436.436,0,0,1,.436.436v8.961a7.74,7.74,0,0,1-.9,3.881,5.838,5.838,0,0,1-2.452,2.371,7.605,7.605,0,0,1-3.512.795,7.343,7.343,0,0,1-3.454-.783,5.559,5.559,0,0,1-2.349-2.372,8.147,8.147,0,0,1-.852-3.892v-8.961a.436.436,0,0,1,.436-.436Z" transform="translate(-565.99 -168.775)" fill="#3a3a3a"></path><path id="Path_92" data-name="Path 92" d="M650.115,178.1a3.91,3.91,0,0,1,.864,2.51,4.044,4.044,0,0,1-1.393,3.27,6.038,6.038,0,0,1-4,1.174h-7.141a.436.436,0,0,1-.436-.435V169.211a.436.436,0,0,1,.436-.436h6.957a6.036,6.036,0,0,1,3.846,1.083,3.717,3.717,0,0,1,1.359,3.086,3.8,3.8,0,0,1-.783,2.453,3.557,3.557,0,0,1-1.045.893.43.43,0,0,0,.02.75A3.885,3.885,0,0,1,650.115,178.1Zm-8.164-3.107a.436.436,0,0,0,.435.436h2.144q2.049,0,2.05-1.75t-2.1-1.75h-2.1a.436.436,0,0,0-.435.436Zm5,5.065a1.713,1.713,0,0,0-.576-1.37,2.434,2.434,0,0,0-1.635-.5h-2.351a.436.436,0,0,0-.435.436v2.79a.435.435,0,0,0,.435.436h2.374Q646.948,181.856,646.948,180.06Z" transform="translate(-605.404 -168.775)" fill="#3a3a3a"></path></g></g></svg> 