<?xml version="1.0" encoding="UTF-8"?> <svg xmlns="http://www.w3.org/2000/svg" width="81" height="81" viewBox="0 0 81 81"><g id="Group_325" data-name="Group 325" transform="translate(-337 -711)"><g id="Group_104" data-name="Group 104" transform="translate(-144.667 -244.667)"><rect id="Rectangle_217" data-name="Rectangle 217" width="81" height="81" rx="20" transform="translate(481.667 955.667)" fill="#fff"></rect></g><path id="Path_1329" data-name="Path 1329" d="M305.518,147.98l-17.1-9.866a2.554,2.554,0,0,0-2.559,0L268.78,147.98a2.566,2.566,0,0,0-1.285,2.212v22.345a1.911,1.911,0,0,0,.955,1.655l17.413,10.056a2.554,2.554,0,0,0,2.559,0l17.1-9.866a2.562,2.562,0,0,0,1.274-2.224V150.193A2.556,2.556,0,0,0,305.518,147.98Zm-5.8,21.251a.582.582,0,0,1-.279.492l-5.642,3.251a.532.532,0,0,1-.279.078h-9.453v-5.207a.661.661,0,0,1,.659-.659h7.564a.66.66,0,0,0,.659-.659v-2.413h-11.6v8.368a.565.565,0,0,1-.849.492l-5.642-3.251a.583.583,0,0,1-.279-.492v-16.1a.582.582,0,0,1,.279-.491l5.642-3.251a.564.564,0,0,1,.849.491v7.8a.572.572,0,0,0,.57.57l10.447.011a2.159,2.159,0,0,1,1.084.291L299.439,162a.581.581,0,0,1,.279.491Zm0-10.089a.566.566,0,0,1-.849.491l-5.643-3.251a.558.558,0,0,1-.279-.492V149.88a.564.564,0,0,1,.849-.491l5.631,3.251a.582.582,0,0,1,.29.491Z" transform="translate(90.505 590.229)" fill="#003da8"></path></g></svg> 