<?xml version="1.0" encoding="UTF-8"?> <svg xmlns="http://www.w3.org/2000/svg" xmlns:xlink="http://www.w3.org/1999/xlink" id="Group_357" data-name="Group 357" width="62.695" height="62.695" viewBox="0 0 62.695 62.695"><defs><clipPath id="clip-path"><rect id="Rectangle_309" data-name="Rectangle 309" width="62.695" height="62.695" transform="translate(0 0)" fill="none"></rect></clipPath></defs><g id="Group_356" data-name="Group 356" clip-path="url(#clip-path)"><path id="Path_1366" data-name="Path 1366" d="M54.951,61.695H7.744C4.035,61.695,1,59.094,1,55.914V6.78C1,3.6,4.035,1,7.744,1H54.951c3.709,0,6.744,2.6,6.744,5.78V55.914C61.695,59.094,58.66,61.695,54.951,61.695Z" fill="none" stroke="#003da8" stroke-width="2"></path><path id="Path_1367" data-name="Path 1367" d="M14.177,9.884H24.909A4.293,4.293,0,0,1,29.2,14.177V24.909A4.293,4.293,0,0,1,24.909,29.2H14.177a4.293,4.293,0,0,1-4.293-4.292V14.177a4.293,4.293,0,0,1,4.293-4.293" fill="#d8e1f2"></path><path id="Rectangle_308" data-name="Rectangle 308" d="M3.22,0H13.952a3.219,3.219,0,0,1,3.219,3.219V13.951a3.22,3.22,0,0,1-3.22,3.22H3.22A3.22,3.22,0,0,1,0,13.951V3.22A3.22,3.22,0,0,1,3.22,0Z" transform="translate(34.567 10.957)" fill="none" stroke="#f05e00" stroke-width="2"></path><path id="Path_1368" data-name="Path 1368" d="M14.177,33.494H24.909A4.293,4.293,0,0,1,29.2,37.787V48.519a4.293,4.293,0,0,1-4.292,4.292H14.177a4.293,4.293,0,0,1-4.293-4.292V37.787a4.293,4.293,0,0,1,4.293-4.293" fill="#d8e1f2"></path><path id="Path_1369" data-name="Path 1369" d="M36.707,33.494H47.439a4.293,4.293,0,0,1,4.293,4.293V48.519a4.293,4.293,0,0,1-4.293,4.292H36.707a4.293,4.293,0,0,1-4.293-4.292V37.787a4.293,4.293,0,0,1,4.293-4.293" fill="#d8e1f2"></path></g></svg> 