<?xml version="1.0" encoding="UTF-8"?> <svg xmlns="http://www.w3.org/2000/svg" xmlns:xlink="http://www.w3.org/1999/xlink" id="Group_365" data-name="Group 365" width="62.695" height="62.695" viewBox="0 0 62.695 62.695"><defs><clipPath id="clip-path"><rect id="Rectangle_313" data-name="Rectangle 313" width="62.695" height="62.695" transform="translate(0 0)" fill="none"></rect></clipPath></defs><g id="Group_364" data-name="Group 364" clip-path="url(#clip-path)"><path id="Path_1378" data-name="Path 1378" d="M54.951,61.695H7.744C4.035,61.695,1,59.094,1,55.914V6.78C1,3.6,4.035,1,7.744,1H54.951c3.709,0,6.744,2.6,6.744,5.78V55.914C61.695,59.094,58.66,61.695,54.951,61.695Z" fill="none" stroke="#003da8" stroke-width="2"></path><path id="Path_1379" data-name="Path 1379" d="M31.347,12.036A19.312,19.312,0,1,1,12.035,31.348,19.312,19.312,0,0,1,31.347,12.036" fill="#d8e1f2"></path><path id="Path_1380" data-name="Path 1380" d="M20.768,22.564H23.76v7.523h8.467V22.564h2.979V40.441H32.227V32.893H23.76v7.548H20.768Zm18.167-.31h2.992V25H38.935Zm0,4.779h2.992V40.441H38.935Z" fill="#f05e00"></path></g></svg> 