<?xml version="1.0" encoding="UTF-8"?> <svg xmlns="http://www.w3.org/2000/svg" xmlns:xlink="http://www.w3.org/1999/xlink" id="Group_361" data-name="Group 361" width="62.695" height="62.695" viewBox="0 0 62.695 62.695"><defs><clipPath id="clip-path"><rect id="Rectangle_311" data-name="Rectangle 311" width="62.695" height="62.695" transform="translate(0 0)" fill="none"></rect></clipPath></defs><g id="Group_360" data-name="Group 360" clip-path="url(#clip-path)"><path id="Path_1372" data-name="Path 1372" d="M54.951,61.695H7.744C4.035,61.695,1,59.094,1,55.914V6.78C1,3.6,4.035,1,7.744,1H54.951c3.709,0,6.744,2.6,6.744,5.78V55.914C61.695,59.094,58.66,61.695,54.951,61.695Z" fill="none" stroke="#003da8" stroke-width="2"></path><path id="Path_1373" data-name="Path 1373" d="M12.913,47.027,48.684,29.3a2.007,2.007,0,0,0,0-3.579L12.913,7.828" fill="#d8e1f2" fill-rule="evenodd"></path><line id="Line_23" data-name="Line 23" y2="45.994" transform="translate(12.913 8.873)"></line><line id="Line_24" data-name="Line 24" y2="45.994" transform="translate(12.913 8.873)" fill="none" stroke="#003da8" stroke-linecap="round" stroke-linejoin="round" stroke-width="2"></line><path id="Path_1374" data-name="Path 1374" d="M27.039,30.721,24.648,31.79a.671.671,0,0,1-1-.624l.5-2.315a.611.611,0,0,0-.2-.534l-1.893-1.692a.551.551,0,0,1,.4-.979l2.689-.357a.651.651,0,0,0,.5-.356l1.2-2.137a.7.7,0,0,1,1.195,0l1.195,2.137a.984.984,0,0,0,.5.356l2.69.357c.6.089.8.712.4.979l-2.091,1.692a.609.609,0,0,0-.2.534l.5,2.315a.671.671,0,0,1-1,.624l-2.39-1.069A.7.7,0,0,0,27.039,30.721Z" fill="none" stroke="#f05e00" stroke-miterlimit="10" stroke-width="1"></path></g></svg> 