<?xml version="1.0" encoding="UTF-8"?> <svg xmlns="http://www.w3.org/2000/svg" xmlns:xlink="http://www.w3.org/1999/xlink" id="Group_393" data-name="Group 393" width="62.695" height="62.695" viewBox="0 0 62.695 62.695"><defs><clipPath id="clip-path"><rect id="Rectangle_325" data-name="Rectangle 325" width="62.695" height="62.695" transform="translate(0 0)" fill="none"></rect></clipPath></defs><g id="Group_392" data-name="Group 392" clip-path="url(#clip-path)"><path id="Path_1409" data-name="Path 1409" d="M54.951,61.695H7.744C4.035,61.695,1,59.094,1,55.914V6.78C1,3.6,4.035,1,7.744,1H54.951c3.709,0,6.744,2.6,6.744,5.78V55.914C61.695,59.094,58.66,61.695,54.951,61.695Z" fill="none" stroke="#003da8" stroke-width="2"></path><path id="Path_1410" data-name="Path 1410" d="M16.941,38.432a1.86,1.86,0,0,1,1.34,1.782v.591a15.851,15.851,0,0,0,25.2,1.222V40.214a1.867,1.867,0,0,1,1.867-1.867V29.014c-2.577,0-4.667-1.059-4.667-4.667a12.822,12.822,0,0,1,.944-4.61,15.827,15.827,0,0,0-21.477.855v5.622a1.866,1.866,0,0,1-1.867,1.866h-2.34" fill="#d8e1f2"></path><path id="Path_1411" data-name="Path 1411" d="M16.414,47.681h0a1.867,1.867,0,0,1-1.867-1.867v-5.6a1.867,1.867,0,0,1,3.734,0v5.6A1.867,1.867,0,0,1,16.414,47.681Z" fill="none" stroke="#003da8" stroke-linejoin="round" stroke-width="1.5"></path><path id="Path_1412" data-name="Path 1412" d="M20.147,15.014v9.333H12.68V15.014" fill="none" stroke="#003da8" stroke-linejoin="round" stroke-width="1.5"></path><path id="Path_1413" data-name="Path 1413" d="M18.281,28.081H14.548a1.866,1.866,0,0,1-1.867-1.867V24.348h7.467v1.866A1.867,1.867,0,0,1,18.281,28.081Z" fill="none" stroke="#003da8" stroke-linejoin="round" stroke-width="1.5"></path><line id="Line_45" data-name="Line 45" y1="9.333" transform="translate(16.414 15.015)" fill="none" stroke="#003da8" stroke-linejoin="round" stroke-width="1.5"></line><line id="Line_46" data-name="Line 46" y2="10.267" transform="translate(16.414 28.081)" fill="none" stroke="#003da8" stroke-linejoin="round" stroke-width="1.5"></line><path id="Path_1414" data-name="Path 1414" d="M45.347,47.681h0a1.867,1.867,0,0,1-1.867-1.867v-5.6a1.867,1.867,0,0,1,3.734,0v5.6A1.867,1.867,0,0,1,45.347,47.681Z" fill="none" stroke="#003da8" stroke-linejoin="round" stroke-width="1.5"></path><path id="Path_1415" data-name="Path 1415" d="M50.014,24.348c0,3.608-2.09,4.667-4.667,4.667s-4.666-1.059-4.666-4.667,2.089-8.4,4.666-8.4S50.014,20.74,50.014,24.348Z" fill="none" stroke="#003da8" stroke-linejoin="round" stroke-width="1.5"></path><line id="Line_47" data-name="Line 47" y2="9.333" transform="translate(45.347 29.014)" fill="none" stroke="#003da8" stroke-linejoin="round" stroke-width="1.5"></line><path id="Path_1416" data-name="Path 1416" d="M31.347,24.348a7.466,7.466,0,1,1-7.467,7.467A7.467,7.467,0,0,1,31.347,24.348Z" fill="none" stroke="#f05e00" stroke-linejoin="round" stroke-width="1.5"></path></g></svg> 