<?xml version="1.0" encoding="UTF-8"?> <svg xmlns="http://www.w3.org/2000/svg" width="29.374" height="35" viewBox="0 0 29.374 35"><g id="Group_159" data-name="Group 159" transform="translate(234.832 -545.031)"><path id="Path_128" data-name="Path 128" d="M-205.458,554.316v16.421a1.917,1.917,0,0,1-.951,1.662l-12.778,7.375a1.909,1.909,0,0,1-1.914,0l-13.017-7.518a1.429,1.429,0,0,1-.714-1.237v-16.7a1.919,1.919,0,0,1,.963-1.653l12.768-7.374a1.9,1.9,0,0,1,1.914,0l12.778,7.374A1.916,1.916,0,0,1-205.458,554.316Z" fill="#003da8"></path><g id="Group_158" data-name="Group 158"><path id="Path_129" data-name="Path 129" d="M-225.766,566.92v-2.633l6.031-8.626h3.645V564.1h1.565v2.824h-1.565V569.4h-3.263V566.92Zm6.642-7.671-3.207,4.847h3.207Z" fill="#fff"></path></g></g></svg> 