<?xml version="1.0" encoding="UTF-8"?> <svg xmlns="http://www.w3.org/2000/svg" width="29.374" height="35" viewBox="0 0 29.374 35"><g id="Group_153" data-name="Group 153" transform="translate(-85.18 -505.343)"><path id="Path_122" data-name="Path 122" d="M114.554,514.628v16.421a1.917,1.917,0,0,1-.951,1.662l-12.777,7.375a1.907,1.907,0,0,1-1.914,0l-13.017-7.517a1.431,1.431,0,0,1-.714-1.237v-16.7a1.918,1.918,0,0,1,.963-1.653L98.911,505.6a1.908,1.908,0,0,1,1.914,0l12.777,7.375A1.913,1.913,0,0,1,114.554,514.628Z" transform="translate(0 0)" fill="#003da8"></path><g id="Group_152" data-name="Group 152" transform="translate(97.224 515.877)"><path id="Path_123" data-name="Path 123" d="M124.816,543.046v-3.034H130.1v13.931h-3.4v-10.9Z" transform="translate(-124.816 -540.011)" fill="#fff"></path></g></g></svg> 