<?xml version="1.0" encoding="UTF-8"?> <svg xmlns="http://www.w3.org/2000/svg" xmlns:xlink="http://www.w3.org/1999/xlink" id="Group_424" data-name="Group 424" width="62.695" height="62.695" viewBox="0 0 62.695 62.695"><defs><clipPath id="clip-path"><rect id="Rectangle_339" data-name="Rectangle 339" width="62.695" height="62.695" transform="translate(0 0)" fill="none"></rect></clipPath></defs><g id="Group_423" data-name="Group 423" clip-path="url(#clip-path)"><path id="Path_1436" data-name="Path 1436" d="M54.951,61.695H7.744C4.035,61.695,1,59.094,1,55.914V6.78C1,3.6,4.035,1,7.744,1H54.951c3.709,0,6.744,2.6,6.744,5.78V55.914C61.695,59.094,58.66,61.695,54.951,61.695Z" fill="none" stroke="#003da8" stroke-width="2"></path><path id="Path_1437" data-name="Path 1437" d="M49.517,27.6a19.909,19.909,0,0,0-5.9-2.27v-3.35a.665.665,0,0,0-.381-.6l-11.609-5.35a.683.683,0,0,0-.56,0l-11.6,5.35a.647.647,0,0,0-.38.6v3.37a21.248,21.248,0,0,0-5.871,2.25c-1.75,1.08-2.64,2.3-2.64,3.62,0,1.78,1.64,3.4,4.741,4.68a27.105,27.105,0,0,0,3.77,1.2v3.61a.647.647,0,0,0,.38.6l11.609,5.34a.6.6,0,0,0,.551,0l11.609-5.34a.665.665,0,0,0,.381-.6v-3.62c4.809-1.19,8.5-3.17,8.5-5.87,0-1.65-1.41-2.88-2.6-3.62m-30.429,8.14c-4.73-1.21-7.18-3-7.18-4.52,0-1.04,1.1-1.93,2.009-2.49a19.082,19.082,0,0,1,5.171-2.01Zm1.32-12.72,10.28,4.76v8.03l-3.86-2.53a.665.665,0,0,0-.68-.03.656.656,0,0,0-.35.58v3.03a44.646,44.646,0,0,1-5.39-.81Zm10.28,22-10.28-4.74V37.4a46.672,46.672,0,0,0,5.39.79v3.33a.656.656,0,0,0,.35.58.689.689,0,0,0,.68-.03l3.86-2.53Zm-3.56-4.73v-5.23l3.98,2.61Zm4.219-13.66-10.029-4.65,10.029-4.62,10.041,4.62Zm10.94,9.42a46.657,46.657,0,0,1-6.349.89A.666.666,0,0,0,36,38.274h.051a48.784,48.784,0,0,0,6.239-.88v2.89l-10.27,4.74v-6.35l.66-.44a.662.662,0,0,0,0-1.11l-.66-.44v-8.9l10.27-4.76Zm4.511-1.34a25.681,25.681,0,0,1-3.18,1.02v-9.04c4.469,1.14,7.169,2.85,7.169,4.54,0,1.17-1.45,2.44-3.989,3.48" fill="#003da8"></path><path id="Path_1438" data-name="Path 1438" d="M31.108,37.674l-3.98,2.62v-5.23Z" fill="#f05e00"></path><path id="Path_1439" data-name="Path 1439" d="M35.327,37.634a.671.671,0,0,0,.67.64h.05a48.8,48.8,0,0,0,6.24-.88v2.89l-10.27,4.74v-6.35l.66-.44a.663.663,0,0,0,0-1.11l-.66-.44v-8.9l10.27-4.76v13.03a46.65,46.65,0,0,1-6.35.89.677.677,0,0,0-.61.69" fill="#d8e1f2"></path></g></svg> 