<?xml version="1.0" encoding="UTF-8"?> <svg xmlns="http://www.w3.org/2000/svg" xmlns:xlink="http://www.w3.org/1999/xlink" id="Group_367" data-name="Group 367" width="62.695" height="62.695" viewBox="0 0 62.695 62.695"><defs><clipPath id="clip-path"><rect id="Rectangle_314" data-name="Rectangle 314" width="62.695" height="62.695" transform="translate(0 0)" fill="none"></rect></clipPath></defs><g id="Group_366" data-name="Group 366" clip-path="url(#clip-path)"><path id="Path_1381" data-name="Path 1381" d="M54.951,61.695H7.744C4.035,61.695,1,59.094,1,55.914V6.78C1,3.6,4.035,1,7.744,1H54.951c3.709,0,6.744,2.6,6.744,5.78V55.914C61.695,59.094,58.66,61.695,54.951,61.695Z" fill="none" stroke="#003da8" stroke-width="2"></path><path id="Path_1382" data-name="Path 1382" d="M48.673,47.71s-2.24-17.325-2.688-21.962a110.9,110.9,0,0,1,0-12.689"></path><path id="Path_1383" data-name="Path 1383" d="M48.673,47.71s-2.24-17.325-2.688-21.962a110.9,110.9,0,0,1,0-12.689" fill="none" stroke="#003da8" stroke-linecap="round" stroke-width="2"></path><path id="Path_1384" data-name="Path 1384" d="M14.022,47.71s2.24-17.325,2.688-21.962a110.655,110.655,0,0,0,0-12.689"></path><path id="Path_1385" data-name="Path 1385" d="M14.022,47.71s2.24-17.325,2.688-21.962a110.655,110.655,0,0,0,0-12.689" fill="none" stroke="#003da8" stroke-linecap="round" stroke-width="2"></path><path id="Path_1386" data-name="Path 1386" d="M19.8,38.085a11.55,11.55,0,1,1,11.55,11.55A11.55,11.55,0,0,1,19.8,38.085" fill="#d8e1f2"></path><line id="Line_25" data-name="Line 25" y1="10.588" transform="translate(31.347 13.059)"></line><line id="Line_26" data-name="Line 26" y1="10.588" transform="translate(31.347 13.059)" fill="none" stroke="#f05e00" stroke-linecap="round" stroke-width="2"></line><path id="Path_1387" data-name="Path 1387" d="M26.535,16.91l4.813-3.85,4.812,3.85" fill="none" stroke="#f05e00" stroke-linecap="round" stroke-linejoin="bevel" stroke-width="2"></path></g></svg> 