<?xml version="1.0" encoding="UTF-8"?> <svg xmlns="http://www.w3.org/2000/svg" width="29.374" height="35" viewBox="0 0 29.374 35"><g id="Group_157" data-name="Group 157" transform="translate(97.832 -545.031)"><path id="Path_126" data-name="Path 126" d="M-68.458,554.316v16.421a1.917,1.917,0,0,1-.951,1.662l-12.778,7.375a1.909,1.909,0,0,1-1.914,0l-13.017-7.518a1.429,1.429,0,0,1-.714-1.237v-16.7a1.919,1.919,0,0,1,.963-1.653l12.768-7.374a1.9,1.9,0,0,1,1.914,0l12.778,7.374A1.916,1.916,0,0,1-68.458,554.316Z" fill="#003da8"></path><g id="Group_156" data-name="Group 156"><path id="Path_127" data-name="Path 127" d="M-86.485,556.453a4.992,4.992,0,0,1,3.416-1.107,5.574,5.574,0,0,1,2.452.5,3.6,3.6,0,0,1,1.546,1.355,3.623,3.623,0,0,1,.525,1.928,3.2,3.2,0,0,1-.63,2.051,3.2,3.2,0,0,1-1.469,1.079v.076a3.443,3.443,0,0,1,1.717,1.2,3.5,3.5,0,0,1,.63,2.157,3.975,3.975,0,0,1-.544,2.089,3.712,3.712,0,0,1-1.584,1.422,5.5,5.5,0,0,1-2.471.515,5.563,5.563,0,0,1-3.655-1.126,4.349,4.349,0,0,1-1.441-3.4h3.168a1.93,1.93,0,0,0,.477,1.327,1.75,1.75,0,0,0,1.336.486,1.524,1.524,0,0,0,1.155-.429,1.577,1.577,0,0,0,.41-1.135,1.511,1.511,0,0,0-.582-1.327,3.294,3.294,0,0,0-1.861-.41h-.61v-2.653h.61a3.23,3.23,0,0,0,1.575-.334,1.244,1.244,0,0,0,.6-1.193,1.441,1.441,0,0,0-.382-1.068,1.415,1.415,0,0,0-1.049-.382,1.3,1.3,0,0,0-1.079.439,1.969,1.969,0,0,0-.41,1.088h-3.187A4.192,4.192,0,0,1-86.485,556.453Z" fill="#fff"></path></g></g></svg> 