<?xml version="1.0" encoding="UTF-8"?> <svg xmlns="http://www.w3.org/2000/svg" xmlns:xlink="http://www.w3.org/1999/xlink" id="Group_434" data-name="Group 434" width="62.695" height="62.695" viewBox="0 0 62.695 62.695"><defs><clipPath id="clip-path"><rect id="Rectangle_344" data-name="Rectangle 344" width="62.695" height="62.695" transform="translate(0 0)" fill="none"></rect></clipPath></defs><g id="Group_433" data-name="Group 433" clip-path="url(#clip-path)"><path id="Path_1460" data-name="Path 1460" d="M13.368,31.178a18.89,18.89,0,1,1,18.89,18.89,18.89,18.89,0,0,1-18.89-18.89" fill="#d8e1f2"></path><path id="Path_1461" data-name="Path 1461" d="M54.951,61.695H7.744C4.035,61.695,1,59.094,1,55.914V6.78C1,3.6,4.035,1,7.744,1H54.951c3.709,0,6.744,2.6,6.744,5.78V55.914C61.695,59.094,58.66,61.695,54.951,61.695Z" fill="none" stroke="#003da8" stroke-width="2"></path><path id="Path_1462" data-name="Path 1462" d="M33.475,20.117a15.97,15.97,0,0,1,4.7,11.231,15.616,15.616,0,0,1-4.7,11.234.843.843,0,0,0-.275.584.812.812,0,0,0,.835.788,1.557,1.557,0,0,0,.7-.329,17.116,17.116,0,0,0,5.135-12.277A17.916,17.916,0,0,0,34.777,19.08a.955.955,0,0,0-.738-.338.812.812,0,0,0-.835.788.768.768,0,0,0,.274.584ZM29.9,23.3a11.263,11.263,0,0,1-.013,16.112.77.77,0,0,0-.3.606.812.812,0,0,0,.835.787.853.853,0,0,0,.611-.251,12.93,12.93,0,0,0,3.946-9.182,12.727,12.727,0,0,0-3.946-9.225.859.859,0,0,0-.611-.25.812.812,0,0,0-.835.787.771.771,0,0,0,.314.616m-1.346,8.062a7,7,0,0,1-2.337,5.2l.011.009a.757.757,0,0,0-.167.473.813.813,0,0,0,.835.788.858.858,0,0,0,.582-.223l.009.007a8.487,8.487,0,0,0,0-12.526l-.011.009a.856.856,0,0,0-.581-.223.813.813,0,0,0-.835.788.752.752,0,0,0,.167.472l-.008.007a7.068,7.068,0,0,1,2.334,5.222" fill="#003da8"></path><path id="Path_1463" data-name="Path 1463" d="M24.287,31.359c0,2.139-1.473,2.183-1.473,2.965a.812.812,0,0,0,.835.788,2.017,2.017,0,0,0,.609-.181,4.672,4.672,0,0,0,1.722-3.572,4.737,4.737,0,0,0-1.718-3.6.865.865,0,0,0-1.252.114c-.4.524.044,1.019.291,1.266a3.162,3.162,0,0,1,.986,2.218" fill="#f05e00"></path></g></svg> 