<?xml version="1.0" encoding="UTF-8"?> <svg xmlns="http://www.w3.org/2000/svg" width="81" height="81" viewBox="0 0 81 81"><g id="Group_470" data-name="Group 470" transform="translate(-920 -289)"><g id="Group_321" data-name="Group 321" transform="translate(-159 -580)"><g id="Group_104" data-name="Group 104" transform="translate(597.333 -86.667)"><rect id="Rectangle_217" data-name="Rectangle 217" width="81" height="81" rx="20" transform="translate(481.667 955.667)" fill="#fff"></rect></g></g><g id="Group_322" data-name="Group 322" transform="translate(66.265 -76.735)"><path id="Path_194" data-name="Path 194" d="M926.191,408a8.661,8.661,0,0,0-4.006-2.277.5.5,0,0,1-.314-.228.462.462,0,0,1-.049-.357,15.112,15.112,0,0,1,2.037-4.351,28.279,28.279,0,0,1,2.628-3.446,2.382,2.382,0,0,0,.615-1.9,2.34,2.34,0,0,0-1.046-1.649l-1.859-1.175a2.332,2.332,0,0,0-2.554,0,25.806,25.806,0,0,0-7.619,8.086A21.792,21.792,0,0,0,910.7,412.18c0,3.3.88,5.9,2.609,7.711a8.787,8.787,0,0,0,6.585,2.745,8.449,8.449,0,0,0,6.092-2.511,8.573,8.573,0,0,0,2.585-6.369A7.724,7.724,0,0,0,926.191,408Zm-1.5,10.8a6.61,6.61,0,0,1-4.806,1.988,6.9,6.9,0,0,1-5.249-2.172c-1.391-1.458-2.1-3.625-2.1-6.437a19.976,19.976,0,0,1,3.077-10.517,23.893,23.893,0,0,1,7.077-7.5.468.468,0,0,1,.246-.068.5.5,0,0,1,.277.08l1.846,1.182a.461.461,0,0,1,.209.332.507.507,0,0,1-.135.418,30.381,30.381,0,0,0-2.806,3.692,17.046,17.046,0,0,0-2.277,4.923,2.283,2.283,0,0,0,.246,1.766,2.314,2.314,0,0,0,1.458,1.083,6.823,6.823,0,0,1,3.163,1.809,5.87,5.87,0,0,1,1.846,4.419A6.71,6.71,0,0,1,924.7,418.8Z" transform="translate(-14.599 0)" fill="#003da8"></path><path id="Path_195" data-name="Path 195" d="M884.225,405.74a.5.5,0,0,1-.314-.228.491.491,0,0,1-.049-.357A15.273,15.273,0,0,1,885.9,400.8a28.268,28.268,0,0,1,2.628-3.446,2.339,2.339,0,0,0-.443-3.551l-1.846-1.182a2.321,2.321,0,0,0-2.548,0,25.755,25.755,0,0,0-7.625,8.08,21.791,21.791,0,0,0-3.329,11.477c0,3.3.88,5.9,2.615,7.711a8.768,8.768,0,0,0,6.585,2.745,8.469,8.469,0,0,0,6.092-2.511,8.617,8.617,0,0,0,2.579-6.369A7.716,7.716,0,0,0,888.237,408,8.708,8.708,0,0,0,884.225,405.74Zm2.511,13.065a6.605,6.605,0,0,1-4.8,1.988,6.9,6.9,0,0,1-5.256-2.172c-1.391-1.458-2.1-3.625-2.1-6.437a19.978,19.978,0,0,1,3.077-10.517,23.962,23.962,0,0,1,7.077-7.5.493.493,0,0,1,.246-.068.517.517,0,0,1,.283.08l1.846,1.182a.474.474,0,0,1,.215.332.535.535,0,0,1-.141.418,30.854,30.854,0,0,0-2.8,3.692,16.726,16.726,0,0,0-2.277,4.923,2.253,2.253,0,0,0,.24,1.766,2.314,2.314,0,0,0,1.458,1.083,6.859,6.859,0,0,1,3.163,1.8,5.87,5.87,0,0,1,1.815,4.425A6.682,6.682,0,0,1,886.735,418.805Z" transform="translate(0 -0.004)" fill="#003da8"></path></g></g></svg> 