<?xml version="1.0" encoding="UTF-8"?> <svg xmlns="http://www.w3.org/2000/svg" xmlns:xlink="http://www.w3.org/1999/xlink" id="Group_363" data-name="Group 363" width="62.695" height="62.695" viewBox="0 0 62.695 62.695"><defs><clipPath id="clip-path"><rect id="Rectangle_312" data-name="Rectangle 312" width="62.695" height="62.695" transform="translate(0 0)" fill="none"></rect></clipPath></defs><g id="Group_362" data-name="Group 362" clip-path="url(#clip-path)"><path id="Path_1375" data-name="Path 1375" d="M31.347,12.036A19.312,19.312,0,1,1,12.035,31.348,19.312,19.312,0,0,1,31.347,12.036" fill="#d8e1f2"></path><path id="Path_1376" data-name="Path 1376" d="M54.951,61.695H7.744C4.035,61.695,1,59.094,1,55.914V6.78C1,3.6,4.035,1,7.744,1H54.951c3.709,0,6.744,2.6,6.744,5.78V55.914C61.695,59.094,58.66,61.695,54.951,61.695Z" fill="none" stroke="#003da8" stroke-width="2"></path><path id="Path_1377" data-name="Path 1377" d="M31.348,20.312,23.072,39.624l8.275-3.449,8.278,3.449Z" fill="none" stroke="#f05e00" stroke-miterlimit="10" stroke-width="1"></path></g></svg> 