<?xml version="1.0" encoding="UTF-8"?> <svg xmlns="http://www.w3.org/2000/svg" width="78" height="78" viewBox="0 0 78 78"><g id="Group_466" data-name="Group 466" transform="translate(-1121 -4209)"><g id="Ellipse_12" data-name="Ellipse 12" transform="translate(1121 4209)" fill="none" stroke="#003da8" stroke-width="1.5"><circle cx="39" cy="39" r="39" stroke="none"></circle><circle cx="39" cy="39" r="38.25" fill="none"></circle></g><g id="Group_242" data-name="Group 242" transform="translate(270.119 3701.877)"><g id="Group_235" data-name="Group 235" transform="translate(865.881 533.181)"><g id="Group_234" data-name="Group 234" transform="translate(0 0)"><path id="Path_184" data-name="Path 184" d="M898.958,563.188q.608,2.637,1.216,5.279c.058.248.116.5.174.748.253-.332.505-.669.763-1h-5.748c.253.195.505.385.763.579-.516-1.337-1.026-2.674-1.542-4.005a.819.819,0,0,0-.974-.552,24.234,24.234,0,0,1-9.047,0,.81.81,0,0,0-.974.552c-.21.674-.511,1.326-.763,1.984-.258.674-.521,1.348-.779,2.021.253-.195.505-.385.763-.579h-5.748c.253.332.505.669.763,1q.608-2.621,1.211-5.248c.058-.253.116-.5.174-.752a.807.807,0,0,0-.363-.89,19.319,19.319,0,0,1-2.026-1.19c-.311-.21-.616-.426-.916-.658.073.058-.079-.063-.1-.079-.074-.058-.147-.121-.226-.179-.147-.121-.3-.242-.437-.368a15.616,15.616,0,0,1-1.553-1.564c-.11-.126-.221-.257-.326-.394l-.111-.137c.047.058-.032-.042-.032-.042-.037-.052-.079-.105-.116-.158-.205-.279-.4-.568-.589-.863-.205-.321-.4-.658-.569-.995-.095-.179-.179-.363-.263-.547-.037-.079-.073-.163-.105-.242-.053-.116.042.1-.011-.021-.021-.058-.047-.116-.068-.174a.825.825,0,0,0-.763-.579c-.842,0-1.689.016-2.536,0a1.516,1.516,0,0,1-.153-.005c.164.021-.089-.037-.131-.053.142.058-.068-.052-.116-.079.158.111-.158-.2-.053-.052-.026-.037-.047-.079-.073-.116-.116-.163.016.079-.021-.032a1.307,1.307,0,0,1-.037-.131c-.037-.111-.006.121-.006,0,0-.048-.005-.1-.005-.147-.006-.31,0-.622,0-.932v-4.853c0-.047,0-.095.005-.148-.021.158,0,.027.01,0,0,.006.079-.2.032-.1-.042.09.026-.042.037-.058.021-.037.116-.147.016-.032.031-.032.063-.064.094-.1s.116-.09,0,0c.058-.037.116-.074.174-.105-.169.089.195-.053.105-.032s.1-.006.121-.006h2.5a.825.825,0,0,0,.763-.579,13.056,13.056,0,0,1,1.242-2.353,12.291,12.291,0,0,1,.763-1.036,1.093,1.093,0,0,0,.316-.753c-.037-.826-.116-1.647-.174-2.474-.052-.727-.068-1.458-.152-2.184v-.011c-.021-.158-.047.084,0-.053s0,0-.011.016c.037-.042.084-.079-.016.011.042-.037.1-.058-.021,0a1,1,0,0,1,.106-.058c-.164.09-.042.037-.021.021-.032.021-.169-.006-.032.011-.037-.006-.111.011-.058-.011.026-.011.147.063.058.016-.073-.042.026.027.053.042.268.19.542.368.816.558.732.495,1.458.995,2.189,1.489a.771.771,0,0,0,.8,0,20.163,20.163,0,0,1,4.552-2.137c-.332-.253-.668-.505-1-.763a8.486,8.486,0,0,0,1.5,5.489.822.822,0,0,0,.89.363,21.813,21.813,0,0,1,12.132,0,.8.8,0,0,0,.889-.363,8.5,8.5,0,0,0,1.516-5.342c-.332.253-.669.506-1,.763a19.7,19.7,0,0,1,3.195,1.442,18.366,18.366,0,0,1,2.743,1.879,14.126,14.126,0,0,1,3.984,5.242,11.551,11.551,0,0,1,.821,3.3,11.79,11.79,0,0,1,.021,1.664q-.024.347-.063.694c-.026.243.026-.157-.011.079,0,.047-.016.1-.021.142-.021.142-.047.284-.079.431a11.509,11.509,0,0,1-.368,1.4c-.073.231-.157.458-.247.684-.027.068-.053.136-.085.2.011-.032.058-.126,0,.011s-.121.268-.184.4a12.288,12.288,0,0,1-.71,1.284c-.132.21-.269.416-.411.621-.074.1-.143.205-.221.305-.037.053-.074.1-.111.147s-.032.042.011-.01c-.032.042-.063.079-.095.116a16.183,16.183,0,0,1-2.516,2.505c-.184.147-.342.268-.605.458s-.511.358-.768.526a19.122,19.122,0,0,1-1.679.969.789.789,0,0,0,.794,1.363c3.969-2.047,7.432-5.495,8.569-9.917a12.523,12.523,0,0,0-.237-7.016,15.022,15.022,0,0,0-4.068-6.163,20.589,20.589,0,0,0-7.243-4.269.8.8,0,0,0-1,.763,6.952,6.952,0,0,1-1.3,4.542l.89-.363a23.57,23.57,0,0,0-10.2-.621,22.894,22.894,0,0,0-2.778.621c.294.121.595.242.889.363a6.988,6.988,0,0,1-1.289-4.7.8.8,0,0,0-1-.763,22.374,22.374,0,0,0-4.932,2.294h.8c-.526-.358-1.053-.715-1.579-1.079-.347-.237-.7-.473-1.048-.716a3.46,3.46,0,0,0-.71-.421,1.58,1.58,0,0,0-2.026.995,2.133,2.133,0,0,0-.052.837c.058.81.11,1.626.168,2.437.048.668.1,1.342.142,2.01.079-.184.152-.373.231-.558a15.033,15.033,0,0,0-2.505,4.2c.253-.195.505-.385.763-.579H869.2a11.814,11.814,0,0,0-1.369.016,2.185,2.185,0,0,0-1.947,2.158c0,.295,0,.584,0,.879v4.842A2.231,2.231,0,0,0,867,555.451a4.034,4.034,0,0,0,2,.269h1.584c-.253-.195-.505-.384-.763-.579a15.984,15.984,0,0,0,5.8,7.121A20.772,20.772,0,0,0,878,563.693c-.121-.294-.243-.595-.363-.889-.406,1.747-.8,3.5-1.211,5.247-.058.253-.116.5-.174.753a.8.8,0,0,0,.763,1h5.747a.824.824,0,0,0,.763-.579c.258-.674.521-1.348.779-2.021.253-.658.553-1.31.763-1.984-.326.184-.647.368-.974.552a26.028,26.028,0,0,0,9.885,0c-.327-.184-.648-.368-.974-.552.516,1.337,1.026,2.673,1.542,4.005a.817.817,0,0,0,.763.579h5.747a.8.8,0,0,0,.763-1q-.608-2.637-1.216-5.279c-.058-.248-.116-.5-.174-.748a.8.8,0,0,0-.974-.552A.809.809,0,0,0,898.958,563.188Z" transform="translate(-865.881 -536.126)" fill="#003da8"></path></g></g><g id="Group_237" data-name="Group 237" transform="translate(907.51 543.105)"><g id="Group_236" data-name="Group 236"><path id="Path_185" data-name="Path 185" d="M925.667,555.572a5.941,5.941,0,0,0,1.59-.169,4.722,4.722,0,0,0,1.779-.963,4.608,4.608,0,0,0,1.573-3.458.789.789,0,1,0-1.579,0c0,.121-.011.242-.016.368-.011.153.01-.052-.006.042-.01.068-.026.142-.042.21a3.1,3.1,0,0,1-.106.374c-.021.068-.047.132-.073.2.042-.106.011-.021-.016.037-.058.116-.116.227-.179.337l-.111.174c-.021.032-.142.195-.037.063a3.408,3.408,0,0,1-.526.542c-.016.011-.163.126-.079.068s-.094.063-.116.079c-.105.068-.216.137-.326.195-.064.032-.127.063-.185.095-.131.063.048-.016-.037.016-.121.042-.242.084-.368.121a3.8,3.8,0,0,1-.416.09c.116-.021.021,0-.042,0s-.121.011-.184.011c-.163.006-.332.006-.495.006a.781.781,0,1,0-.006,1.563Z" transform="translate(-924.883 -550.192)" fill="#003da8"></path></g></g><g id="Group_239" data-name="Group 239" transform="translate(880.772 526.123)"><g id="Group_238" data-name="Group 238"><path id="Path_186" data-name="Path 186" d="M902.372,534.6a6.965,6.965,0,0,1-1.316,4.058l.89-.363a23.593,23.593,0,0,0-10.2-.621,23.017,23.017,0,0,0-2.779.621l.89.363a7.454,7.454,0,0,1-.8-1.426c.016.037.037.094-.021-.053-.021-.053-.042-.111-.063-.163-.047-.121-.085-.248-.126-.374a7.05,7.05,0,0,1-.2-.816,6.924,6.924,0,0,1-.1-1.547c0-.132.016-.258.026-.39,0-.037.037-.316.016-.153.032-.236.079-.473.132-.71a5.929,5.929,0,0,1,.174-.616c.032-.089.058-.179.095-.268.021-.053.042-.111.063-.163s.058-.142.016-.037a8.414,8.414,0,0,1,.631-1.168c.053-.078.105-.152.158-.231.032-.047.068-.095.1-.142.073-.1-.074.09,0-.006.137-.174.279-.337.426-.5s.29-.3.442-.437l.237-.2c.042-.037.09-.074.131-.111.111-.095-.042.026.032-.026a8.6,8.6,0,0,1,1.089-.684c.094-.047.19-.095.284-.137.053-.026.105-.047.158-.074-.026.011-.137.053,0,0,.211-.084.421-.157.632-.226.195-.058.389-.111.584-.153.116-.026.237-.047.353-.068a1.418,1.418,0,0,1,.143-.021c.236-.037-.158.016.079-.01a7.987,7.987,0,0,1,1.331-.037c.121.006.242.016.368.032l.147.016c-.147-.016-.021,0,0,0,.237.037.474.085.706.143.195.047.389.105.579.169.1.031.2.068.3.105.042.016.09.037.131.052.174.068-.084-.042.068.032a8.456,8.456,0,0,1,1.127.626c.084.058.174.116.258.179.037.026.074.052.111.084-.121-.09,0,0,.032.026.168.143.337.284.495.437s.326.327.479.5c.084.094.163.195.242.295s-.105-.147.026.032c.032.047.068.095.1.142a7.789,7.789,0,0,1,.711,1.242s.09.205.042.1c-.037-.084.042.111.052.137.042.111.085.221.121.332a6.865,6.865,0,0,1,.2.721c.027.116.053.237.074.353.011.047.016.095.026.142.032.19-.005-.095.01.079a6.736,6.736,0,0,1,.068.921.79.79,0,0,0,1.579,0,8.646,8.646,0,0,0-2.142-5.637,8.4,8.4,0,0,0-5-2.737,8.477,8.477,0,0,0-8.3,13.227.823.823,0,0,0,.89.363,21.811,21.811,0,0,1,12.132,0,.8.8,0,0,0,.89-.363,8.525,8.525,0,0,0,1.526-4.858.8.8,0,0,0-.79-.789A.807.807,0,0,0,902.372,534.6Z" transform="translate(-886.986 -526.123)" fill="#f05e00"></path></g></g><g id="Group_241" data-name="Group 241" transform="translate(881.109 537.374)"><g id="Group_240" data-name="Group 240" transform="translate(0 0)"><path id="Path_187" data-name="Path 187" d="M888.46,544.854a21.8,21.8,0,0,1,11.153-.837,23.015,23.015,0,0,1,3.142.837.8.8,0,0,0,.974-.553.812.812,0,0,0-.552-.974,23.426,23.426,0,0,0-11.895-.858,22.982,22.982,0,0,0-3.237.858.811.811,0,0,0-.552.974.8.8,0,0,0,.968.553Z" transform="translate(-887.464 -542.069)" fill="#003da8"></path></g></g></g></g></svg> 