<?xml version="1.0" encoding="UTF-8"?> <svg xmlns="http://www.w3.org/2000/svg" width="78" height="78" viewBox="0 0 78 78"><g id="Group_467" data-name="Group 467" transform="translate(-1321 -4209)"><g id="Ellipse_13" data-name="Ellipse 13" transform="translate(1321 4209)" fill="none" stroke="#003da8" stroke-width="1.5"><circle cx="39" cy="39" r="39" stroke="none"></circle><circle cx="39" cy="39" r="38.25" fill="none"></circle></g><g id="Group_243" data-name="Group 243" transform="translate(396.766 3708.73)"><path id="Path_188" data-name="Path 188" d="M990.347,537.883h-3.413a23.248,23.248,0,0,0-22.314-22.314v-3.412a.887.887,0,1,0-1.774,0v3.412a23.249,23.249,0,0,0-22.314,22.314H937.12a.887.887,0,1,0,0,1.774h3.412a23.248,23.248,0,0,0,22.314,22.314v3.412a.887.887,0,0,0,1.774,0v-3.412a23.244,23.244,0,0,0,22.314-22.314h3.413a.887.887,0,0,0,0-1.774ZM964.621,560.2v-3.519a.887.887,0,1,0-1.774,0V560.2a21.47,21.47,0,0,1-20.54-20.54h3.519a.887.887,0,0,0,0-1.774h-3.519a21.47,21.47,0,0,1,20.54-20.54v3.519a.887.887,0,1,0,1.774,0v-3.519a21.469,21.469,0,0,1,20.54,20.54h-3.519a.887.887,0,0,0,0,1.774h3.519A21.469,21.469,0,0,1,964.621,560.2Z" transform="translate(0)" fill="#003da8"></path><path id="Path_189" data-name="Path 189" d="M979.477,544.887a4.714,4.714,0,1,0-4.714-4.714A4.719,4.719,0,0,0,979.477,544.887Zm0-7.653a2.939,2.939,0,1,1-2.939,2.939A2.943,2.943,0,0,1,979.477,537.234Z" transform="translate(-15.743 -9.884)" fill="#f05e00"></path><path id="Path_190" data-name="Path 190" d="M977.675,555.35a7.331,7.331,0,0,0-7.322,7.322v6.411a.887.887,0,1,0,1.774,0v-6.411a5.547,5.547,0,1,1,11.095,0v6.411a.887.887,0,1,0,1.774,0v-6.411A7.327,7.327,0,0,0,977.675,555.35Z" transform="translate(-13.941 -18.011)" fill="#f05e00"></path></g></g></svg> 