<?xml version="1.0" encoding="UTF-8"?> <svg xmlns="http://www.w3.org/2000/svg" xmlns:xlink="http://www.w3.org/1999/xlink" id="Group_418" data-name="Group 418" width="62.695" height="62.695" viewBox="0 0 62.695 62.695"><defs><clipPath id="clip-path"><rect id="Rectangle_334" data-name="Rectangle 334" width="62.695" height="62.695" transform="translate(0 0)" fill="none"></rect></clipPath></defs><g id="Group_417" data-name="Group 417" clip-path="url(#clip-path)"><path id="Path_1425" data-name="Path 1425" d="M54.951,61.695H7.744C4.035,61.695,1,59.094,1,55.914V6.78C1,3.6,4.035,1,7.744,1H54.951c3.709,0,6.744,2.6,6.744,5.78V55.914C61.695,59.094,58.66,61.695,54.951,61.695Z" fill="none" stroke="#003da8" stroke-width="2"></path><path id="Path_1426" data-name="Path 1426" d="M39.908,20.324v-.01a.214.214,0,0,1-.01-.06c-.02-.08-.04-.15-.06-.23,0,0-.01-.03-.02-.07v-.01c0-.01-.01-.02-.02-.03-.04-.08-.08-.14-.12-.22a.351.351,0,0,1-.05-.08l-.03-.03v-.01c-.01-.01-.01-.01-.01-.02-.04-.04-.1-.09-.11-.1a.382.382,0,0,1-.09-.09c-.01,0-.02-.01-.03-.02s-.02-.03-.03-.03c-.05-.03-.12-.07-.14-.08s-.06-.04-.12-.07a.076.076,0,0,1-.04-.02h-.02l-.04-.02a.142.142,0,0,1-.06-.02l-.23-.06h-.03a.487.487,0,0,0-.12-.01h-.1c-1.08-.01-2.15,0-3.22,0H24.288a1.7,1.7,0,0,0-.22.01h-.03c-.03.01-.06.01-.08.02l-.23.06-.03.01h-.01a.138.138,0,0,1-.04.03c-.07.04-.15.08-.22.12-.01.01-.05.03-.08.05,0,.01-.01.01-.02.02-.05.05-.11.1-.16.16-.01.02-.04.04-.06.06a.035.035,0,0,0-.01.02l-.01.01c0,.01-.01.01-.02.02a.7.7,0,0,1-.1.16c-.02.04-.04.08-.06.13a.187.187,0,0,1-.03.04c-.02.05-.03.13-.04.15-.02.07-.03.14-.05.2v.01c0,.05-.01.09-.01.14v25.16a1.265,1.265,0,0,0,.01.16v.02c.01.04.01.08.02.12a2.25,2.25,0,0,0,.08.24v.02c.01.01,0,.01,0,.01l.01.01a.239.239,0,0,0,.03.07c.04.07.09.15.13.22l.01.01v.01c.01,0,.02.01.03.02v.01c.01,0,.01,0,.02.02a1.787,1.787,0,0,0,.14.13.281.281,0,0,0,.08.08c.01,0,.01.01.02.02.07.04.14.09.22.13a.313.313,0,0,0,.1.05l.02.02c.01,0,.01.01.02.01a.387.387,0,0,1,.12.03c.02,0,.12.03.2.05h.06a.615.615,0,0,0,.13.01H38.4c.08,0,.16-.02.24-.02h.04l.11-.03c.07-.02.14-.04.2-.06.01,0,.01-.01.02-.01a.2.2,0,0,0,.08-.04,1.591,1.591,0,0,0,.22-.13.031.031,0,0,0,.02-.01c.02-.02.03-.02.03-.02a.173.173,0,0,1,.04-.03v-.01c.06-.05.11-.11.16-.16.01-.01.02-.03.03-.04l.03-.03c.05-.08.09-.15.13-.22a.636.636,0,0,0,.06-.1.031.031,0,0,0,.01-.02v-.01a.031.031,0,0,0,.01-.02,1.21,1.21,0,0,1,.05-.18.516.516,0,0,1,.02-.11c0-.02.01-.04.01-.06a.019.019,0,0,0,0-.03.757.757,0,0,0,.01-.15V20.5a1.087,1.087,0,0,1-.01-.18m-4.62,13.2c-.23.3-.44.59-.66.88-.95,1.27-1.91,2.54-2.85,3.82l-1.8,2.4a.9.9,0,0,1-1.19.31.884.884,0,0,1-.32-1.19c.23-.3.44-.59.67-.89.94-1.27,1.9-2.54,2.85-3.81.27-.36.54-.73.81-1.09h-4.63a.877.877,0,0,1-.75-.43.867.867,0,0,1,0-.88c.22-.29.44-.58.66-.88.96-1.27,1.9-2.54,2.86-3.81.59-.8,1.19-1.6,1.79-2.4a.907.907,0,0,1,1.2-.31.876.876,0,0,1,.31,1.19c-.22.29-.44.58-.66.88-.96,1.27-1.9,2.54-2.86,3.81-.27.36-.54.73-.81,1.09h4.62a.9.9,0,0,1,.76.43.891.891,0,0,1,0,.88" fill="#d8e1f2"></path><path id="Path_1427" data-name="Path 1427" d="M35.288,33.524c-.23.3-.44.59-.66.88-.95,1.27-1.91,2.54-2.85,3.82l-1.8,2.4a.9.9,0,0,1-1.19.31.884.884,0,0,1-.32-1.19c.23-.3.44-.59.67-.89.94-1.27,1.9-2.54,2.85-3.81.27-.36.54-.73.81-1.09h-4.63a.877.877,0,0,1-.75-.43.867.867,0,0,1,0-.88c.22-.29.44-.58.66-.88.96-1.27,1.9-2.54,2.86-3.81.59-.8,1.19-1.6,1.79-2.4a.907.907,0,0,1,1.2-.31.876.876,0,0,1,.31,1.19c-.22.29-.44.58-.66.88-.96,1.27-1.9,2.54-2.86,3.81-.27.36-.54.73-.81,1.09h4.62a.9.9,0,0,1,.76.43.891.891,0,0,1,0,.88" fill="#f05e00"></path><path id="Path_1428" data-name="Path 1428" d="M41.568,19.734a3.264,3.264,0,0,0-3.16-2.46H24.258a3.3,3.3,0,0,0-2.28.94,3.4,3.4,0,0,0-.94,2.42v24.89a3.291,3.291,0,0,0,1.64,2.87,3.967,3.967,0,0,0,2,.42h10.7c1.02,0,2.04.01,3.06,0a3.256,3.256,0,0,0,3.2-3.04,1.1,1.1,0,0,0,.02-.18V20.874a5.428,5.428,0,0,0-.09-1.14m-1.66,26.01a.019.019,0,0,1,0,.03c0,.02-.01.04-.01.06a.516.516,0,0,0-.02.11,1.21,1.21,0,0,0-.05.18.031.031,0,0,1-.01.02v.01a.031.031,0,0,1-.01.02.636.636,0,0,1-.06.1c-.04.07-.08.14-.13.22l-.03.03c-.01.01-.02.03-.03.04-.05.05-.1.11-.16.16v.01s-.01,0-.04.03c0,0-.01,0-.03.02a.031.031,0,0,1-.02.01,1.591,1.591,0,0,1-.22.13.2.2,0,0,1-.08.04c-.01,0-.01.01-.02.01-.06.02-.13.04-.2.06l-.11.03a.292.292,0,0,0-.09.02c-.05,0-.04,0,.05-.02-.08,0-.16.02-.24.02H24.228a.615.615,0,0,1-.13-.01h-.06c-.08-.02-.18-.05-.2-.05a.387.387,0,0,0-.12-.03.035.035,0,0,0-.02-.01l-.02-.02a.313.313,0,0,1-.1-.05c-.08-.04-.15-.09-.22-.13-.01-.01-.01-.02-.02-.02a.281.281,0,0,1-.08-.08,1.787,1.787,0,0,1-.14-.13c-.01-.02-.01-.02-.02-.02l-.03-.03v-.01l-.01-.01c-.04-.07-.09-.15-.13-.22a.239.239,0,0,1-.03-.07l-.01-.01s.01,0,0-.01v-.02a2.25,2.25,0,0,1-.08-.24c-.01-.04-.01-.08-.02-.12v-.02a1.265,1.265,0,0,1-.01-.16V20.454c0-.05.01-.09.01-.14V20.3c.02-.06.03-.13.05-.2.01-.02.02-.1.04-.15a.187.187,0,0,0,.03-.04c.02-.05.04-.09.06-.13a.7.7,0,0,0,.1-.16c.01-.01.02-.01.02-.02l.01-.01a.035.035,0,0,1,.01-.02c.02-.02.05-.04.06-.06.05-.06.11-.11.16-.16.01-.01.02-.01.02-.02.03-.02.07-.04.08-.05.07-.04.15-.08.22-.12a.138.138,0,0,0,.04-.03h.01l.03-.01.23-.06c.02-.01.05-.01.08-.02h.03a1.7,1.7,0,0,1,.22-.01h10.92c1.07,0,2.14-.01,3.22,0h.1a.487.487,0,0,1,.12.01h.03l.23.06a.142.142,0,0,0,.06.02l.04.02h.02a.076.076,0,0,0,.04.02c.06.03.11.07.12.07s.09.05.14.08c.01,0,.01.02.03.03v-.01c.01.01.02.01.03.03a.382.382,0,0,0,.09.09c.01.01.07.06.11.1,0,.01,0,.01.01.02v.01l.03.03a.351.351,0,0,0,.05.08c.04.08.08.14.12.22v-.02a.169.169,0,0,0,.02.05v.01c.01.04.02.07.02.07.02.08.04.15.06.23a.214.214,0,0,0,.01.06v.01a1.087,1.087,0,0,0,.01.18v25.09a.757.757,0,0,1-.01.15" fill="#003da8"></path><path id="Path_1429" data-name="Path 1429" d="M34.175,15.687v2.458l.87-.87H27.65l.87.87V15.687c-.008-.165-.052.148,0,0,.044-.131-.03.048-.03.048s.048-.092.052-.1c.074-.147-.022.057-.035.044,0,0,.07-.087.079-.078-.014.013-.031.021-.044.034-.061.044-.057.044,0,.005l.026-.013c.044-.022.031-.018-.026.008-.017.009-.034.013-.052.022l.083-.026s.082-.022.082-.022c.009.035-.2.009-.052.013a1.216,1.216,0,0,0,.135,0h5.35c.153-.008-.095-.047-.021-.008a.58.58,0,0,0,.082.021c.187.04-.126-.047-.026-.008s.013.048.026.008c-.052-.039-.056-.047-.022-.017s.04.039.061.057c-.013.013-.108-.192-.034-.044a.882.882,0,0,1,.052.1c0,.009-.074-.169-.035-.039.057.161,0-.187,0,0a.87.87,0,0,0,1.74,0,1.842,1.842,0,0,0-1.823-1.805c-.156-.005-.308,0-.465,0H28.833a2.316,2.316,0,0,0-1.091.213,1.854,1.854,0,0,0-.962,1.7v2.354a.885.885,0,0,0,.87.87h7.395a.884.884,0,0,0,.87-.87V15.687a.878.878,0,0,0-.87-.87.887.887,0,0,0-.87.87" fill="#003da8"></path></g></svg> 