<?xml version="1.0" encoding="UTF-8"?> <svg xmlns="http://www.w3.org/2000/svg" width="78" height="78" viewBox="0 0 78 78"><g id="Group_468" data-name="Group 468" transform="translate(-921 -4209)"><g id="Ellipse_11" data-name="Ellipse 11" transform="translate(921 4209)" fill="none" stroke="#003da8" stroke-width="1.5"><circle cx="39" cy="39" r="39" stroke="none"></circle><circle cx="39" cy="39" r="38.25" fill="none"></circle></g><g id="Group_233" data-name="Group 233" transform="translate(145.648 3712.957)"><path id="Path_183" data-name="Path 183" d="M826.314,514.044a.984.984,0,0,0-.552.191l-20.793,15.4a.967.967,0,0,0,.124,1.633l8.937,4.739-13.476,19.256c-.658,1.139.426,1.878,1.408,1.31L828.2,535.622a.968.968,0,0,0-.151-1.612l-8.537-4.53,7.69-14a.967.967,0,0,0-.025-.972.974.974,0,0,0-.859-.462Zm-2.961,4.392-6.027,10.974a.965.965,0,0,0,.1,1.079.974.974,0,0,0,.3.242l8.1,4.3-19.809,15.824,10.239-14.63a.976.976,0,0,0,.158-.375.965.965,0,0,0-.011-.407.969.969,0,0,0-.489-.629l-8.548-4.533Z" fill="#f05e00" fill-rule="evenodd"></path></g></g></svg> 