<?xml version="1.0" encoding="UTF-8"?> <svg xmlns="http://www.w3.org/2000/svg" xmlns:xlink="http://www.w3.org/1999/xlink" id="Group_432" data-name="Group 432" width="62.695" height="62.695" viewBox="0 0 62.695 62.695"><defs><clipPath id="clip-path"><rect id="Rectangle_343" data-name="Rectangle 343" width="62.695" height="62.695" transform="translate(0 0)" fill="none"></rect></clipPath></defs><g id="Group_431" data-name="Group 431" clip-path="url(#clip-path)"><path id="Path_1453" data-name="Path 1453" d="M54.951,61.695H7.744C4.035,61.695,1,59.094,1,55.914V6.78C1,3.6,4.035,1,7.744,1H54.951c3.709,0,6.744,2.6,6.744,5.78V55.914C61.695,59.094,58.66,61.695,54.951,61.695Z" fill="none" stroke="#003da8" stroke-width="2"></path><path id="Path_1454" data-name="Path 1454" d="M31.341,25.688a5.67,5.67,0,1,0,5.67,5.67,5.665,5.665,0,0,0-5.67-5.67m0,9.29A3.62,3.62,0,1,1,35,31.358a3.632,3.632,0,0,1-3.66,3.62" fill="#f05e00"></path><path id="Path_1455" data-name="Path 1455" d="M35,31.358a3.64,3.64,0,1,1-3.66-3.62A3.667,3.667,0,0,1,35,31.358" fill="#d8e1f2"></path><path id="Path_1456" data-name="Path 1456" d="M22.179,30.353h-6.47l1.165-1.165a.995.995,0,1,0-1.407-1.407l-2.893,2.894a.97.97,0,0,0,0,1.406l2.893,2.894a1.009,1.009,0,1,0,1.447-1.407L15.749,32.4h6.47a1,1,0,0,0,1.005-1,1.064,1.064,0,0,0-1.045-1.045" fill="#003da8"></path><path id="Path_1457" data-name="Path 1457" d="M33.513,45.826l-1.165,1.165v-6.47a1.005,1.005,0,1,0-2.01,0v6.47l-1.165-1.165a.995.995,0,1,0-1.407,1.407l2.894,2.893a1.068,1.068,0,0,0,1.446,0L35,47.233a.971.971,0,0,0,0-1.407,1.067,1.067,0,0,0-1.487,0" fill="#003da8"></path><path id="Path_1458" data-name="Path 1458" d="M50.151,30.634,47.257,27.74a.995.995,0,0,0-1.406,1.407l1.165,1.165h-6.51a1,1,0,1,0,0,2.01h6.47l-1.165,1.206a1.009,1.009,0,0,0,1.446,1.406l2.894-2.893a1.047,1.047,0,0,0,0-1.407" fill="#003da8"></path><path id="Path_1459" data-name="Path 1459" d="M29.172,16.89l1.165-1.165v6.47a1.005,1.005,0,1,0,2.01,0v-6.47l1.165,1.165a.968.968,0,0,0,.724.281,1.03,1.03,0,0,0,.723-.281.971.971,0,0,0,0-1.407L32.066,12.59a.971.971,0,0,0-1.407,0l-2.934,2.853a.971.971,0,0,0,0,1.407.986.986,0,0,0,1.447.04" fill="#003da8"></path></g></svg> 