<?xml version="1.0" encoding="UTF-8"?> <svg xmlns="http://www.w3.org/2000/svg" xmlns:xlink="http://www.w3.org/1999/xlink" id="Group_430" data-name="Group 430" width="62.695" height="62.695" viewBox="0 0 62.695 62.695"><defs><clipPath id="clip-path"><rect id="Rectangle_342" data-name="Rectangle 342" width="62.695" height="62.695" transform="translate(0 0)" fill="none"></rect></clipPath></defs><g id="Group_429" data-name="Group 429" clip-path="url(#clip-path)"><path id="Path_1445" data-name="Path 1445" d="M54.951,61.695H7.744C4.035,61.695,1,59.094,1,55.914V6.78C1,3.6,4.035,1,7.744,1H54.951c3.709,0,6.744,2.6,6.744,5.78V55.914C61.695,59.094,58.66,61.695,54.951,61.695Z" fill="none" stroke="#003da8" stroke-width="2"></path><path id="Path_1446" data-name="Path 1446" d="M47.481,30.7h-1.93v-3.22a.65.65,0,0,0-1.01-.54l-5.81,3.87a.661.661,0,0,0,0,1.08l5.81,3.87a.689.689,0,0,0,.36.11.681.681,0,0,0,.31-.08.641.641,0,0,0,.34-.57V32h1.93a.65.65,0,1,0,0-1.3m-3.22,3.32-4-2.67,4-2.67Z" fill="#f05e00"></path><path id="Path_1447" data-name="Path 1447" d="M44.261,28.678v5.34l-4-2.67Z" fill="#d8e1f2"></path><path id="Path_1448" data-name="Path 1448" d="M31.347,15.209a.646.646,0,0,0-.646.646V46.84a.646.646,0,1,0,1.292,0V15.855a.646.646,0,0,0-.646-.646" fill="#003da8"></path><path id="Path_1449" data-name="Path 1449" d="M23.961,30.808l-5.81-3.87a.629.629,0,0,0-.66-.03.641.641,0,0,0-.34.57V30.7h-1.94a.65.65,0,1,0,0,1.3h1.94v3.22a.654.654,0,0,0,.64.65.663.663,0,0,0,.36-.11l5.81-3.87a.648.648,0,0,0,0-1.08m-5.52,3.21v-5.34l4,2.67Z" fill="#f05e00"></path><path id="Path_1450" data-name="Path 1450" d="M22.441,31.348l-4,2.67v-5.34Z" fill="#d8e1f2"></path><path id="Path_1451" data-name="Path 1451" d="M35.866,31.348c0-6.246,3.783-15.149,3.821-15.239A.645.645,0,0,0,38.5,15.6c-.161.374-3.926,9.234-3.926,15.747S38.34,46.721,38.5,47.1a.645.645,0,0,0,.594.391.635.635,0,0,0,.254-.052.644.644,0,0,0,.339-.847c-.038-.09-3.821-8.993-3.821-15.239" fill="#003da8"></path><path id="Path_1452" data-name="Path 1452" d="M23.346,15.262a.646.646,0,0,0-.339.848c.038.089,3.821,8.992,3.821,15.238S23.045,46.5,23.007,46.587a.645.645,0,0,0,.339.847.635.635,0,0,0,.254.052.645.645,0,0,0,.594-.391c.16-.374,3.925-9.234,3.925-15.747S24.354,15.975,24.194,15.6a.646.646,0,0,0-.848-.339" fill="#003da8"></path></g></svg> 