<?xml version="1.0" encoding="UTF-8"?> <svg xmlns="http://www.w3.org/2000/svg" xmlns:xlink="http://www.w3.org/1999/xlink" id="Group_438" data-name="Group 438" width="62.695" height="62.695" viewBox="0 0 62.695 62.695"><defs><clipPath id="clip-path"><rect id="Rectangle_356" data-name="Rectangle 356" width="62.695" height="62.695" transform="translate(0 0)" fill="none"></rect></clipPath></defs><g id="Group_437" data-name="Group 437" clip-path="url(#clip-path)"><path id="Path_1466" data-name="Path 1466" d="M13.368,31.178a18.89,18.89,0,1,1,18.89,18.89,18.89,18.89,0,0,1-18.89-18.89" fill="#d8e1f2"></path><path id="Path_1467" data-name="Path 1467" d="M54.951,61.695H7.744C4.035,61.695,1,59.094,1,55.914V6.78C1,3.6,4.035,1,7.744,1H54.951c3.709,0,6.744,2.6,6.744,5.78V55.914C61.695,59.094,58.66,61.695,54.951,61.695Z" fill="none" stroke="#003da8" stroke-width="2"></path><path id="Path_1468" data-name="Path 1468" d="M41.665,21.607a.853.853,0,0,0-1.221-.067c-1.376,1.2-2.642,2.464-3.907,3.773-1.243,1.31-2.462,2.641-3.639,4.017-1.731,2.064-3.395,4.217-4.949,6.437l-5.637-6.059a.842.842,0,0,0-1.065-.156.871.871,0,0,0-.311,1.2s5.371,9.254,5.593,9.654a1.891,1.891,0,0,0,1.709.976,1.964,1.964,0,0,0,1.82-1.176c.333-.621,3.306-6.125,5.236-9.033.956-1.464,2-2.885,3.041-4.283,1.066-1.4,2.175-2.774,3.307-4.061l.023-.023a.938.938,0,0,0,0-1.2" fill="#f05e00"></path></g></svg> 