<?xml version="1.0" encoding="UTF-8"?> <svg xmlns="http://www.w3.org/2000/svg" xmlns:xlink="http://www.w3.org/1999/xlink" id="Group_428" data-name="Group 428" width="62.695" height="62.695" viewBox="0 0 62.695 62.695"><defs><clipPath id="clip-path"><rect id="Rectangle_341" data-name="Rectangle 341" width="62.695" height="62.695" transform="translate(0 0)" fill="none"></rect></clipPath></defs><g id="Group_427" data-name="Group 427" clip-path="url(#clip-path)"><path id="Path_1441" data-name="Path 1441" d="M54.951,61.695H7.744C4.035,61.695,1,59.094,1,55.914V6.78C1,3.6,4.035,1,7.744,1H54.951c3.709,0,6.744,2.6,6.744,5.78V55.914C61.695,59.094,58.66,61.695,54.951,61.695Z" fill="none" stroke="#003da8" stroke-width="2"></path><path id="Path_1442" data-name="Path 1442" d="M23.287,31.074a10.3,10.3,0,1,1,10.3,10.3,10.3,10.3,0,0,1-10.3-10.3" fill="#d8e1f2"></path><path id="Path_1443" data-name="Path 1443" d="M26.745,26.082,16.78,16.117a.568.568,0,0,1,0-.8l.8-.8a.567.567,0,0,1,.8,0l9.965,9.965a.566.566,0,0,1,0,.8l-.8.8a.568.568,0,0,1-.8,0m22.1,22.1L38.88,38.217a.568.568,0,0,1,0-.8l.8-.8a.567.567,0,0,1,.8,0l9.965,9.965a.566.566,0,0,1,0,.8l-.8.8a.568.568,0,0,1-.8,0m-14.1-25.334a.567.567,0,0,1-.567.567H33.048a.567.567,0,0,1-.567-.567V14.915a.567.567,0,0,1,.567-.567h1.133a.567.567,0,0,1,.567.567Zm0,24.933a.567.567,0,0,1-.567.567H33.048a.567.567,0,0,1-.567-.567V39.848a.567.567,0,0,1,.567-.567h1.133a.567.567,0,0,1,.567.567Zm7.366-15.3a.565.565,0,0,1-.566-.566V30.781a.565.565,0,0,1,.566-.566h7.934a.565.565,0,0,1,.566.566v1.134a.565.565,0,0,1-.566.566Zm-1.631-6.4a.567.567,0,0,1-.8,0l-.8-.8a.568.568,0,0,1,0-.8l9.965-9.965a.568.568,0,0,1,.8,0l.8.8a.566.566,0,0,1,0,.8Zm-22.1,22.1a.567.567,0,0,1-.8,0l-.8-.8a.568.568,0,0,1,0-.8l9.965-9.965a.568.568,0,0,1,.8,0l.8.8a.566.566,0,0,1,0,.8Z" fill="#003da8" fill-rule="evenodd"></path><path id="Path_1444" data-name="Path 1444" d="M33.614,34.181a2.835,2.835,0,0,1-2.6-1.7H12.647a.566.566,0,0,1-.566-.567V30.781a.566.566,0,0,1,.566-.567H31.016a2.834,2.834,0,1,1,2.6,3.967" fill="#f05e00" fill-rule="evenodd"></path></g></svg> 