<?xml version="1.0" encoding="UTF-8"?> <svg xmlns="http://www.w3.org/2000/svg" xmlns:xlink="http://www.w3.org/1999/xlink" id="Group_359" data-name="Group 359" width="62.695" height="62.695" viewBox="0 0 62.695 62.695"><defs><clipPath id="clip-path"><rect id="Rectangle_310" data-name="Rectangle 310" width="62.695" height="62.695" transform="translate(0 0)" fill="none"></rect></clipPath></defs><g id="Group_358" data-name="Group 358" clip-path="url(#clip-path)"><path id="Path_1370" data-name="Path 1370" d="M54.951,61.695H7.744C4.035,61.695,1,59.094,1,55.914V6.78C1,3.6,4.035,1,7.744,1H54.951c3.709,0,6.744,2.6,6.744,5.78V55.914C61.695,59.094,58.66,61.695,54.951,61.695Z" fill="none" stroke="#003da8" stroke-width="2"></path><path id="Path_1371" data-name="Path 1371" d="M50.623,19.174a3.607,3.607,0,0,0-3.607-3.607H15.679a3.607,3.607,0,0,0-3.607,3.607V39.012a3.607,3.607,0,0,0,3.607,3.607H26.528l4.819,4.508,4.819-4.508h10.85a3.607,3.607,0,0,0,3.607-3.607Z" fill="#d8e1f2"></path><line id="Line_19" data-name="Line 19" y2="7.214" transform="translate(19.782 25.486)" fill="none" stroke="#f05e00" stroke-miterlimit="10" stroke-width="1"></line><line id="Line_20" data-name="Line 20" y2="12.624" transform="translate(27.493 22.781)" fill="none" stroke="#f05e00" stroke-miterlimit="10" stroke-width="1"></line><line id="Line_21" data-name="Line 21" y2="3.607" transform="translate(35.202 27.29)" fill="none" stroke="#f05e00" stroke-miterlimit="10" stroke-width="1"></line><line id="Line_22" data-name="Line 22" y2="7.214" transform="translate(42.913 25.486)" fill="none" stroke="#f05e00" stroke-miterlimit="10" stroke-width="1"></line></g></svg> 