<?xml version="1.0" encoding="UTF-8"?> <svg xmlns="http://www.w3.org/2000/svg" width="340.749" height="406.002" viewBox="0 0 340.749 406.002"><path id="Path_1328" data-name="Path 1328" d="M597.2,226.3,448.964,140.75a22.147,22.147,0,0,0-22.19,0L278.637,226.3a22.248,22.248,0,0,0-11.142,19.183V439.242a16.575,16.575,0,0,0,8.284,14.35l151,87.2a22.147,22.147,0,0,0,22.19,0L597.2,455.241a22.212,22.212,0,0,0,11.044-19.282V245.484A22.162,22.162,0,0,0,597.2,226.3ZM546.913,410.576a5.046,5.046,0,0,1-2.422,4.265l-48.927,28.193a4.612,4.612,0,0,1-2.422.677H411.176V398.563a5.728,5.728,0,0,1,5.718-5.718h65.589a5.725,5.725,0,0,0,5.718-5.714V366.2H387.633v72.565a4.9,4.9,0,0,1-7.364,4.265l-48.927-28.193a5.055,5.055,0,0,1-2.422-4.265V270.963a5.048,5.048,0,0,1,2.422-4.262l48.927-28.193a4.893,4.893,0,0,1,7.364,4.262V310.4a4.962,4.962,0,0,0,4.942,4.942l90.588.1a18.721,18.721,0,0,1,9.4,2.52l51.93,29.938a5.04,5.04,0,0,1,2.422,4.262Zm0-87.486a4.909,4.909,0,0,1-7.36,4.262l-48.93-28.193a4.842,4.842,0,0,1-2.422-4.265V242.77a4.894,4.894,0,0,1,7.364-4.262L544.4,266.7a5.048,5.048,0,0,1,2.517,4.262Z" transform="translate(-267.495 -137.771)" fill="#003da8" opacity="0.1"></path></svg> 