<?xml version="1.0" encoding="UTF-8"?> <svg xmlns="http://www.w3.org/2000/svg" width="89.911" height="13.634" viewBox="0 0 89.911 13.634"><g id="star" transform="translate(-1079.089 -3494.059)"><g id="Group_219" data-name="Group 219" transform="translate(119.09 18.059)"><path id="Path_1323" data-name="Path 1323" d="M12.352,7.587,10.8,10.736a.822.822,0,0,1-.628.463L6.7,11.7a.822.822,0,0,0-.466,1.417l2.516,2.466a.822.822,0,0,1,.241.74l-.595,3.453a.836.836,0,0,0,1.214.882l3.108-1.644a.823.823,0,0,1,.778,0L16.6,20.659a.836.836,0,0,0,1.214-.882l-.6-3.461a.822.822,0,0,1,.247-.732l2.516-2.466a.822.822,0,0,0-.466-1.425L16.035,11.2a.822.822,0,0,1-.628-.458L13.854,7.587a.839.839,0,0,0-1.5,0Z" transform="translate(954.03 3468.878)" fill="#f05e00"></path><path id="Path_1326" data-name="Path 1326" d="M12.352,7.587,10.8,10.736a.822.822,0,0,1-.628.463L6.7,11.7a.822.822,0,0,0-.466,1.417l2.516,2.466a.822.822,0,0,1,.241.74l-.595,3.453a.836.836,0,0,0,1.214.882l3.108-1.644a.823.823,0,0,1,.778,0L16.6,20.659a.836.836,0,0,0,1.214-.882l-.6-3.461a.822.822,0,0,1,.247-.732l2.516-2.466a.822.822,0,0,0-.466-1.425L16.035,11.2a.822.822,0,0,1-.628-.458L13.854,7.587a.839.839,0,0,0-1.5,0Z" transform="translate(991.848 3468.878)" fill="#f05e00"></path><path id="Path_1324" data-name="Path 1324" d="M12.352,7.587,10.8,10.736a.822.822,0,0,1-.628.463L6.7,11.7a.822.822,0,0,0-.466,1.417l2.516,2.466a.822.822,0,0,1,.241.74l-.595,3.453a.836.836,0,0,0,1.214.882l3.108-1.644a.823.823,0,0,1,.778,0L16.6,20.659a.836.836,0,0,0,1.214-.882l-.6-3.461a.822.822,0,0,1,.247-.732l2.516-2.466a.822.822,0,0,0-.466-1.425L16.035,11.2a.822.822,0,0,1-.628-.458L13.854,7.587a.839.839,0,0,0-1.5,0Z" transform="translate(972.939 3468.878)" fill="#f05e00"></path><path id="Path_1325" data-name="Path 1325" d="M12.352,7.587,10.8,10.736a.822.822,0,0,1-.628.463L6.7,11.7a.822.822,0,0,0-.466,1.417l2.516,2.466a.822.822,0,0,1,.241.74l-.595,3.453a.836.836,0,0,0,1.214.882l3.108-1.644a.823.823,0,0,1,.778,0L16.6,20.659a.836.836,0,0,0,1.214-.882l-.6-3.461a.822.822,0,0,1,.247-.732l2.516-2.466a.822.822,0,0,0-.466-1.425L16.035,11.2a.822.822,0,0,1-.628-.458L13.854,7.587a.839.839,0,0,0-1.5,0Z" transform="translate(1010.757 3468.878)" fill="#f05e00"></path><path id="Path_1327" data-name="Path 1327" d="M12.352,7.587,10.8,10.736a.822.822,0,0,1-.628.463L6.7,11.7a.822.822,0,0,0-.466,1.417l2.516,2.466a.822.822,0,0,1,.241.74l-.595,3.453a.836.836,0,0,0,1.214.882l3.108-1.644a.823.823,0,0,1,.778,0L16.6,20.659a.836.836,0,0,0,1.214-.882l-.6-3.461a.822.822,0,0,1,.247-.732l2.516-2.466a.822.822,0,0,0-.466-1.425L16.035,11.2a.822.822,0,0,1-.628-.458L13.854,7.587a.839.839,0,0,0-1.5,0Z" transform="translate(1029.667 3468.878)" fill="#f05e00"></path></g></g></svg> 